<?xml version="1.0" encoding="UTF-8"?> <svg xmlns="http://www.w3.org/2000/svg" xmlns:xlink="http://www.w3.org/1999/xlink" id="Слой_1" data-name="Слой 1" viewBox="0 0 365.78 297.75"> <defs> <style>.cls-1{fill:#191919;}.cls-2,.cls-21{fill:#262626;}.cls-3{fill:#606060;}.cls-4{fill:#505050;}.cls-5{fill:#1d1d1d;}.cls-6{fill:#2e2e2f;}.cls-7{fill:#3a3a3a;}.cls-8{fill:#444443;}.cls-9{fill:url(#Безымянный_градиент);}.cls-10{fill:url(#Безымянный_градиент_2);}.cls-11{fill:#a52645;}.cls-12{fill:url(#Безымянный_градиент_106);}.cls-13{fill:#917757;}.cls-14{fill:#ad2a49;}.cls-15{fill:#b22244;}.cls-16{fill:#970825;}.cls-17{fill:url(#Безымянный_градиент_105);}.cls-18{fill:#a32b4a;}.cls-19{fill:#b6b1a5;}.cls-20{fill:url(#Безымянный_градиент_104);}.cls-21{opacity:0.8;isolation:isolate;}.cls-22{fill:#e6fdff;}.cls-23{fill:#7f0421;}</style> <linearGradient id="Безымянный_градиент" x1="308.38" y1="49.11" x2="329.62" y2="49.11" gradientTransform="matrix(1, 0, 0, -1, 0, 300)" gradientUnits="userSpaceOnUse"> <stop offset="0" stop-color="#262626"></stop> <stop offset="1" stop-color="#3a3a3a"></stop> </linearGradient> <linearGradient id="Безымянный_градиент_2" x1="297.7" y1="128.24" x2="329.05" y2="128.24" gradientTransform="matrix(1, 0, 0, -1, 0, 300)" gradientUnits="userSpaceOnUse"> <stop offset="0" stop-color="#b6b1a5"></stop> <stop offset="1" stop-color="#d9d4cd"></stop> </linearGradient> <linearGradient id="Безымянный_градиент_106" x1="94.09" y1="190.87" x2="134.33" y2="104.9" gradientTransform="matrix(1, 0, 0, -1, 0, 300)" gradientUnits="userSpaceOnUse"> <stop offset="0" stop-color="#970825"></stop> <stop offset="1" stop-color="#c1536e"></stop> </linearGradient> <linearGradient id="Безымянный_градиент_105" x1="147.58" y1="238.12" x2="128.44" y2="204.94" gradientTransform="matrix(1, 0, 0, -1, 0, 300)" gradientUnits="userSpaceOnUse"> <stop offset="0" stop-color="#ad2a49"></stop> <stop offset="0.3" stop-color="#970825"></stop> <stop offset="0.61" stop-color="#970825"></stop> <stop offset="0.92" stop-color="#970825"></stop> <stop offset="1" stop-color="#970825"></stop> </linearGradient> <linearGradient id="Безымянный_градиент_104" x1="226.82" y1="110.9" x2="236.44" y2="110.9" gradientTransform="matrix(1, 0, 0, -1, 0, 300)" gradientUnits="userSpaceOnUse"> <stop offset="0" stop-color="#7f0421"></stop> <stop offset="0.73" stop-color="#c65872"></stop> <stop offset="1" stop-color="#ad2a49"></stop> </linearGradient> </defs> <title>Монтажная область 1</title> <g id="_0" data-name=" 0"> <g id="Axonometric_Cube" data-name="Axonometric Cube"> <polygon class="cls-1" points="32.17 80.41 8.77 93.92 13.89 98.58 15.32 117.66 38.73 104.15 38.73 84.19 32.17 80.41"></polygon> <polygon id="Cube_face_-_left" data-name="Cube face - left" class="cls-2" points="15.32 117.66 8.77 113.88 8.77 93.92 15.32 97.71 15.32 117.66"></polygon> </g> <polygon class="cls-1" points="20.2 105.38 51.1 127.69 59.58 128.59 75.47 140.34 103.5 156.65 111.86 157.23 118.76 141.41 85.04 101.43 33.65 97.61 20.2 105.38"></polygon> <g id="Axonometric_Cylinder" data-name="Axonometric Cylinder"> <path id="Cylinder_face" data-name="Cylinder face" class="cls-3" d="M105.69,161.2c0,6.21-4.36,8.73-9.74,5.62S86.22,156.17,86.22,150s4.36-8.73,9.73-5.62S105.69,155,105.69,161.2Z"></path> <path id="Cylinder_body" data-name="Cylinder body" class="cls-4" d="M89,143.69l1-.58c1.76-1.06,4.22-.92,6.94.65,5.38,3.1,9.74,10.65,9.74,16.86,0,3.07-1.06,5.23-2.79,6.27l-1,.58c1.73-1,2.79-3.2,2.79-6.27,0-6.21-4.36-13.76-9.74-16.86C93.23,142.77,90.77,142.64,89,143.69Z"></path> </g> <g id="Axonometric_Cylinder-2" data-name="Axonometric Cylinder-2"> <path id="Cylinder_face-2" data-name="Cylinder face-2" class="cls-2" d="M102.69,160.64c0,5-3.47,7-7.75,4.48a17.14,17.14,0,0,1-7.76-13.43c0-4.94,3.48-6.95,7.76-4.48A17.17,17.17,0,0,1,102.69,160.64Z"></path> <path id="Cylinder_body-2" data-name="Cylinder body-2" class="cls-1" d="M89.4,146.7l.81-.46c1.41-.85,3.37-.74,5.53.51a17.14,17.14,0,0,1,7.76,13.43c0,2.44-.85,4.17-2.22,5l-.81.47c1.38-.83,2.22-2.55,2.22-5a17.17,17.17,0,0,0-7.75-13.43C92.77,146,90.81,145.86,89.4,146.7Z"></path> </g> <path class="cls-1" d="M101,161.43l-1.32-3.57c-.09-.25-.18-.5-.29-.74a12.76,12.76,0,0,0-2-3.17A9.78,9.78,0,0,0,95,152l-3.14-1.81a3.76,3.76,0,0,0-3.8-.38L85.88,151a3.76,3.76,0,0,1,3.8.38l3.15,1.81a10,10,0,0,1,2.34,2,12.76,12.76,0,0,1,2,3.17c.11.24.21.49.3.74l1.32,3.57c.25.67.14,1.21-.19,1.4l2.15-1.26C101.09,162.64,101.21,162.1,101,161.43Z"></path> <path class="cls-2" d="M98.8,162.68l-1.32-3.57a11.55,11.55,0,0,0-4.65-5.88l-3.15-1.81c-2-1.13-3.75-.95-4.69.48l-1.31,2c-.41.61.11,2,1,2.44L97.82,164C98.66,164.48,99.21,163.77,98.8,162.68Z"></path> <g id="Axonometric_Cylinder-3" data-name="Axonometric Cylinder-3"> <path id="Cylinder_face-3" data-name="Cylinder face-3" class="cls-3" d="M75.87,144c0,6.21-4.36,8.73-9.74,5.62S56.39,139,56.39,132.74s4.36-8.72,9.74-5.62S75.87,137.77,75.87,144Z"></path> <path id="Cylinder_body-3" data-name="Cylinder body-3" class="cls-4" d="M59.18,126.47l1-.58c1.77-1.06,4.23-.92,7,.65,5.38,3.1,9.74,10.65,9.74,16.86,0,3.07-1.07,5.24-2.79,6.27l-1,.58c1.72-1,2.79-3.2,2.79-6.27,0-6.21-4.36-13.76-9.74-16.86C63.41,125.55,61,125.42,59.18,126.47Z"></path> </g> <g id="Axonometric_Cylinder-4" data-name="Axonometric Cylinder-4"> <ellipse id="Cylinder_face-4" data-name="Cylinder face-4" class="cls-2" cx="65.12" cy="138.94" rx="6.33" ry="10.97" transform="translate(-60.75 51.18) rotate(-30)"></ellipse> <path id="Cylinder_body-4" data-name="Cylinder body-4" class="cls-1" d="M59.58,129.48l.8-.46c1.41-.85,3.37-.74,5.54.51A17.12,17.12,0,0,1,73.67,143c0,2.44-.84,4.17-2.22,5l-.8.47c1.37-.83,2.22-2.55,2.22-5A17.19,17.19,0,0,0,65.12,130C63,128.74,61,128.64,59.58,129.48Z"></path> </g> <path class="cls-1" d="M71.13,144.21l-1.32-3.57c-.09-.25-.19-.5-.3-.74a12.76,12.76,0,0,0-2-3.17,10,10,0,0,0-2.34-2L62,133a3.75,3.75,0,0,0-3.79-.38l-2.16,1.25a3.76,3.76,0,0,1,3.8.38L63,136a9.74,9.74,0,0,1,2.34,2,12.48,12.48,0,0,1,2,3.17c.11.25.21.49.3.74L69,145.46c.25.68.13,1.21-.19,1.4L71,145.61C71.27,145.42,71.38,144.88,71.13,144.21Z"></path> <path class="cls-2" d="M69,145.46l-1.32-3.57A11.59,11.59,0,0,0,63,136l-3.14-1.81c-2-1.13-3.75-.95-4.69.48l-1.32,2c-.41.61.12,2,1,2.44L68,146.78C68.83,147.26,69.38,146.55,69,145.46Z"></path> <g id="Axonometric_Cylinder-5" data-name="Axonometric Cylinder-5"> <path id="Cylinder_face-5" data-name="Cylinder face-5" class="cls-3" d="M45.85,126.66c0,6.2-4.36,8.72-9.73,5.62s-9.74-10.66-9.74-16.87,4.36-8.72,9.74-5.62S45.85,120.45,45.85,126.66Z"></path> <path id="Cylinder_body-5" data-name="Cylinder body-5" class="cls-4" d="M29.17,109.15l1-.59c1.76-1,4.22-.92,7,.65,5.37,3.1,9.73,10.65,9.73,16.86,0,3.07-1.06,5.24-2.79,6.27l-1,.58c1.72-1,2.78-3.2,2.78-6.26,0-6.21-4.36-13.76-9.73-16.87C33.4,108.22,30.94,108.09,29.17,109.15Z"></path> </g> <g id="Axonometric_Cylinder-6" data-name="Axonometric Cylinder-6"> <path id="Cylinder_face-6" data-name="Cylinder face-6" class="cls-2" d="M42.86,126.1c0,4.94-3.48,7-7.76,4.47a17.1,17.1,0,0,1-7.75-13.43c0-4.94,3.47-7,7.75-4.47A17.14,17.14,0,0,1,42.86,126.1Z"></path> <path id="Cylinder_body-6" data-name="Cylinder body-6" class="cls-1" d="M29.57,112.15l.8-.46c1.41-.84,3.37-.74,5.53.51a17.14,17.14,0,0,1,7.76,13.43c0,2.45-.85,4.17-2.22,5l-.8.47c1.37-.82,2.22-2.55,2.22-5a17.14,17.14,0,0,0-7.76-13.43C32.93,111.42,31,111.31,29.57,112.15Z"></path> </g> <path class="cls-1" d="M41.12,126.88l-1.32-3.57c-.09-.25-.19-.49-.3-.74a12.48,12.48,0,0,0-2-3.17,9.74,9.74,0,0,0-2.34-2L32,115.62a3.76,3.76,0,0,0-3.8-.38l-2.15,1.25a3.81,3.81,0,0,1,3.8.38L33,118.69a9.52,9.52,0,0,1,2.34,2,12.76,12.76,0,0,1,2,3.17c.1.25.2.49.29.74L39,128.13c.26.68.14,1.21-.19,1.4L41,128.28C41.25,128.09,41.37,127.56,41.12,126.88Z"></path> <path class="cls-2" d="M39,128.13l-1.32-3.57A11.5,11.5,0,0,0,33,118.69l-3.14-1.82c-2-1.13-3.75-1-4.69.48l-1.32,2.05c-.41.61.11,1.95,1,2.45L38,129.45C38.82,129.94,39.37,129.22,39,128.13Z"></path> <polygon class="cls-1" points="18.74 104.68 22.69 102.38 57.73 122.62 53.78 124.91 18.74 104.68"></polygon> <polygon class="cls-1" points="53.79 121.98 57.74 119.69 61.56 118.43 57.61 120.73 53.79 121.98"></polygon> <polygon class="cls-1" points="57.61 120.73 61.56 118.43 70.5 123.59 66.55 125.89 57.61 120.73"></polygon> <polygon class="cls-1" points="70.35 131.54 74.3 129.25 74.3 132.18 70.34 134.47 70.35 131.54"></polygon> <polygon class="cls-1" points="66.55 125.89 70.5 123.59 74.3 129.25 70.35 131.54 66.55 125.89"></polygon> <polygon class="cls-5" points="105.39 154.71 109.34 152.41 109.32 160.67 105.37 162.97 105.39 154.71"></polygon> <polygon class="cls-1" points="70.34 134.47 74.3 132.18 109.34 152.41 105.39 154.71 70.34 134.47"></polygon> <path class="cls-2" d="M66.55,125.89l3.8,5.65v2.93l35.05,20.24V163l-5.17-3-2.41-3.56a8.11,8.11,0,0,0-2.54-2.51l-6.12-3.53a3,3,0,0,0-2.52-.41l-2.41.77L70,142.55,67.64,139a8,8,0,0,0-2.55-2.52L59,133a3,3,0,0,0-2.52-.41l-2.42.78-14.18-8.19-2.37-3.54A8,8,0,0,0,35,119.12l-6.11-3.53a3,3,0,0,0-2.52-.41l-2.42.78-5.17-3V104.7l35,20.23V122l3.82-1.25Z"></path> <g id="Axonometric_Cube-2" data-name="Axonometric Cube-2"> <polygon id="Cube_face_-_left-2" data-name="Cube face - left-2" class="cls-2" points="81.41 133.5 73.41 128.89 73.41 134.14 81.41 138.76 81.41 133.5"></polygon> <polygon id="Cube_face_-_right" data-name="Cube face - right" class="cls-1" points="95 130.92 81.41 138.76 81.41 133.5 95 125.66 95 130.92"></polygon> <polygon id="Cube_face_-_top" data-name="Cube face - top" class="cls-1" points="81.41 133.5 73.41 128.89 87 121.04 95 125.66 81.41 133.5"></polygon> </g> <g id="Axonometric_Cube-3" data-name="Axonometric Cube-3"> <polygon id="Cube_face_-_left-3" data-name="Cube face - left-3" class="cls-2" points="51.86 116.44 43.86 111.83 43.86 117.08 51.86 121.7 51.86 116.44"></polygon> <polygon id="Cube_face_-_right-2" data-name="Cube face - right-2" class="cls-1" points="65.45 113.86 51.86 121.7 51.86 116.44 65.45 108.6 65.45 113.86"></polygon> <polygon id="Cube_face_-_top-2" data-name="Cube face - top-2" class="cls-1" points="51.86 116.44 43.86 111.83 57.45 103.98 65.45 108.6 51.86 116.44"></polygon> </g> <path class="cls-1" d="M90.92,153.43c-1.26-.73-2.27-.14-2.27,1.31a5,5,0,0,0,2.27,3.93c1.25.72,2.27.13,2.27-1.31A5,5,0,0,0,90.92,153.43Z"></path> <path class="cls-1" d="M61.41,136.39c-1.25-.72-2.26-.13-2.26,1.31a5,5,0,0,0,2.26,3.93c1.26.73,2.27.14,2.27-1.31A5,5,0,0,0,61.41,136.39Z"></path> <path class="cls-1" d="M31.3,119c-1.26-.72-2.27-.13-2.27,1.31a5,5,0,0,0,2.27,3.93c1.25.73,2.26.14,2.26-1.31A5,5,0,0,0,31.3,119Z"></path> <g id="Axonometric_Cube-4" data-name="Axonometric Cube-4"> <polygon class="cls-1" points="131.92 138 108.51 151.51 193.46 205.56 198.9 223.65 222.3 210.13 222.3 190.18 131.92 138"></polygon> <polygon id="Cube_face_-_left-4" data-name="Cube face - left-4" class="cls-2" points="198.9 223.65 108.51 171.46 108.51 151.51 198.9 203.69 198.9 223.65"></polygon> </g> <polygon class="cls-1" points="201.87 210.27 234.85 233.78 243.33 234.68 259.21 246.42 287.24 262.73 295.6 263.32 302.51 247.5 268.79 207.51 217.4 203.69 201.87 210.27"></polygon> <g id="Axonometric_Cylinder-7" data-name="Axonometric Cylinder-7"> <path id="Cylinder_face-7" data-name="Cylinder face-7" class="cls-3" d="M289.44,267.29c0,6.21-4.36,8.72-9.74,5.62s-9.7-10.66-9.7-16.86,4.36-8.73,9.74-5.63S289.44,261.08,289.44,267.29Z"></path> <path id="Cylinder_body-7" data-name="Cylinder body-7" class="cls-4" d="M272.75,249.78l1-.58c1.77-1.06,4.23-.93,6.95.64,5.38,3.11,9.74,10.66,9.74,16.87,0,3.06-1.07,5.23-2.79,6.26l-1,.58c1.72-1,2.79-3.19,2.79-6.26,0-6.21-4.36-13.76-9.74-16.87C277,248.85,274.52,248.72,272.75,249.78Z"></path> </g> <g id="Axonometric_Cylinder-8" data-name="Axonometric Cylinder-8"> <path id="Cylinder_face-8" data-name="Cylinder face-8" class="cls-2" d="M286.44,266.73c0,4.95-3.47,6.95-7.76,4.48a17.17,17.17,0,0,1-7.75-13.43c0-4.95,3.47-6.95,7.75-4.48A17.11,17.11,0,0,1,286.44,266.73Z"></path> <path id="Cylinder_body-8" data-name="Cylinder body-8" class="cls-1" d="M273.15,252.79l.8-.47c1.41-.84,3.37-.74,5.54.52a17.1,17.1,0,0,1,7.75,13.43c0,2.44-.84,4.16-2.22,5l-.8.46c1.37-.82,2.22-2.55,2.22-5a17.11,17.11,0,0,0-7.76-13.43C276.52,252.05,274.56,251.94,273.15,252.79Z"></path> </g> <path class="cls-1" d="M284.7,267.51l-1.32-3.57c-.09-.25-.19-.49-.3-.73a12.48,12.48,0,0,0-2-3.17,9.52,9.52,0,0,0-2.34-2l-3.15-1.82a3.81,3.81,0,0,0-3.8-.38l-2.15,1.26a3.79,3.79,0,0,1,3.8.37l3.14,1.82a9.17,9.17,0,0,1,2.34,2,12.21,12.21,0,0,1,2,3.17c.11.24.21.49.3.73l1.32,3.57c.25.68.13,1.21-.19,1.4l2.15-1.25C284.84,268.72,285,268.19,284.7,267.51Z"></path> <path class="cls-2" d="M282.55,268.76l-1.32-3.57a11.56,11.56,0,0,0-4.66-5.87l-3.14-1.82c-1.95-1.12-3.75-.95-4.69.48l-1.32,2c-.41.62.11,2,1,2.45l13.17,7.6C282.4,270.57,283,269.85,282.55,268.76Z"></path> <g id="Axonometric_Cylinder-9" data-name="Axonometric Cylinder-9"> <path id="Cylinder_face-9" data-name="Cylinder face-9" class="cls-3" d="M259.61,250.07c0,6.21-4.36,8.73-9.73,5.62s-9.74-10.65-9.74-16.86,4.36-8.73,9.74-5.62S259.61,243.86,259.61,250.07Z"></path> <path id="Cylinder_body-9" data-name="Cylinder body-9" class="cls-4" d="M242.93,232.56l1-.58c1.76-1.06,4.22-.93,6.94.64,5.38,3.11,9.74,10.66,9.74,16.87,0,3.06-1.06,5.23-2.79,6.26l-1,.59c1.73-1,2.79-3.2,2.79-6.27,0-6.21-4.36-13.76-9.73-16.86C247.16,231.63,244.7,231.5,242.93,232.56Z"></path> </g> <g id="Axonometric_Cylinder-10" data-name="Axonometric Cylinder-10"> <path id="Cylinder_face-10" data-name="Cylinder face-10" class="cls-2" d="M256.62,249.51c0,5-3.48,6.95-7.76,4.48a17.12,17.12,0,0,1-7.75-13.43c0-4.95,3.47-6.95,7.75-4.48A17.14,17.14,0,0,1,256.62,249.51Z"></path> <path id="Cylinder_body-10" data-name="Cylinder body-10" class="cls-1" d="M243.33,235.57l.8-.47c1.41-.84,3.37-.73,5.53.52a17.11,17.11,0,0,1,7.76,13.43c0,2.44-.85,4.17-2.22,5l-.81.46c1.38-.82,2.23-2.55,2.23-5a17.14,17.14,0,0,0-7.76-13.43C246.69,234.83,244.73,234.72,243.33,235.57Z"></path> </g> <path class="cls-1" d="M254.88,250.29l-1.32-3.57c-.09-.24-.19-.49-.3-.73a12.21,12.21,0,0,0-2-3.17,9.17,9.17,0,0,0-2.34-2L245.76,239a3.81,3.81,0,0,0-3.8-.38l-2.15,1.26a3.76,3.76,0,0,1,3.8.38l3.14,1.81a9.74,9.74,0,0,1,2.34,2,12.48,12.48,0,0,1,2,3.17c.1.24.2.49.29.74l1.32,3.56c.26.68.14,1.21-.19,1.4l2.16-1.25C255,251.5,255.13,251,254.88,250.29Z"></path> <path class="cls-2" d="M252.72,251.54,251.4,248a11.55,11.55,0,0,0-4.65-5.88l-3.14-1.81c-2-1.13-3.75-1-4.7.48l-1.31,2c-.41.62.11,2,1,2.45l13.17,7.6C252.58,253.35,253.13,252.63,252.72,251.54Z"></path> <g id="Axonometric_Cylinder-11" data-name="Axonometric Cylinder-11"> <path id="Cylinder_face-11" data-name="Cylinder face-11" class="cls-3" d="M229.6,232.74c0,6.21-4.36,8.73-9.74,5.62s-9.73-10.65-9.73-16.86,4.36-8.73,9.73-5.62S229.6,226.53,229.6,232.74Z"></path> <path id="Cylinder_body-11" data-name="Cylinder body-11" class="cls-4" d="M212.92,215.23l1-.58c1.77-1.06,4.23-.93,7,.65,5.38,3.1,9.74,10.65,9.74,16.86,0,3.07-1.07,5.23-2.79,6.27l-1,.58c1.73-1,2.79-3.2,2.79-6.27,0-6.21-4.36-13.76-9.74-16.86C217.14,214.31,214.68,214.17,212.92,215.23Z"></path> </g> <g id="Axonometric_Cylinder-12" data-name="Axonometric Cylinder-12"> <path id="Cylinder_face-12" data-name="Cylinder face-12" class="cls-2" d="M226.6,232.18c0,4.95-3.47,6.95-7.75,4.48a17.14,17.14,0,0,1-7.76-13.43c0-4.95,3.47-6.95,7.76-4.48A17.12,17.12,0,0,1,226.6,232.18Z"></path> <path id="Cylinder_body-12" data-name="Cylinder body-12" class="cls-1" d="M213.31,218.24l.81-.47c1.4-.84,3.36-.73,5.53.52a17.14,17.14,0,0,1,7.76,13.43c0,2.44-.85,4.17-2.23,5l-.8.46c1.37-.82,2.22-2.54,2.22-5a17.14,17.14,0,0,0-7.75-13.43C216.68,217.5,214.72,217.4,213.31,218.24Z"></path> </g> <path class="cls-1" d="M224.86,233l-1.32-3.56c-.09-.25-.19-.5-.29-.74a12.48,12.48,0,0,0-2-3.17,9.52,9.52,0,0,0-2.34-2l-3.14-1.81a3.76,3.76,0,0,0-3.8-.38l-2.16,1.25a3.76,3.76,0,0,1,3.8.38l3.14,1.81a9.74,9.74,0,0,1,2.34,2,12.21,12.21,0,0,1,2,3.17c.11.24.21.49.3.74l1.32,3.57c.25.67.13,1.21-.19,1.4l2.15-1.26A1.14,1.14,0,0,0,224.86,233Z"></path> <path class="cls-2" d="M222.71,234.22l-1.32-3.57a11.44,11.44,0,0,0-4.66-5.88L213.59,223c-2-1.13-3.75-1-4.69.48l-1.31,2.05c-.42.61.11,1.95,1,2.44l13.17,7.61C222.57,236,223.12,235.3,222.71,234.22Z"></path> <polygon class="cls-1" points="202.49 210.76 206.44 208.47 241.48 228.7 237.53 231 202.49 210.76"></polygon> <polygon class="cls-1" points="237.54 228.07 241.49 225.77 245.31 224.52 241.35 226.81 237.54 228.07"></polygon> <polygon class="cls-1" points="241.35 226.81 245.31 224.52 254.25 229.68 250.3 231.98 241.35 226.81"></polygon> <polygon class="cls-1" points="254.1 237.63 258.05 235.33 258.04 238.26 254.09 240.56 254.1 237.63"></polygon> <polygon class="cls-1" points="250.3 231.98 254.25 229.68 258.05 235.33 254.1 237.63 250.3 231.98"></polygon> <polygon class="cls-5" points="289.13 260.79 293.08 258.5 293.07 266.76 289.12 269.06 289.13 260.79"></polygon> <polygon class="cls-1" points="254.09 240.56 258.04 238.26 293.08 258.5 289.13 260.79 254.09 240.56"></polygon> <path class="cls-2" d="M250.3,232l3.8,5.65v2.93l35,20.23v8.26l-5.18-3-2.4-3.56A8,8,0,0,0,279,260l-6.11-3.53a3,3,0,0,0-2.52-.41l-2.42.78-14.18-8.19-2.37-3.54a8.07,8.07,0,0,0-2.55-2.52l-6.11-3.53a3,3,0,0,0-2.52-.4l-2.42.77-14.19-8.19-2.37-3.54a8,8,0,0,0-2.54-2.51l-6.12-3.53a3,3,0,0,0-2.52-.41l-2.41.77-5.17-3v-8.27L237.53,231v-2.93l3.82-1.26Z"></path> <g id="Axonometric_Cube-5" data-name="Axonometric Cube-5"> <polygon id="Cube_face_-_left-5" data-name="Cube face - left-5" class="cls-2" points="265.15 239.59 257.15 234.97 257.15 240.23 265.15 244.85 265.15 239.59"></polygon> <polygon id="Cube_face_-_right-3" data-name="Cube face - right-3" class="cls-1" points="278.74 237 265.15 244.85 265.15 239.59 278.74 231.75 278.74 237"></polygon> <polygon id="Cube_face_-_top-3" data-name="Cube face - top-3" class="cls-1" points="265.15 239.59 257.15 234.97 270.74 227.13 278.74 231.75 265.15 239.59"></polygon> </g> <g id="Axonometric_Cube-6" data-name="Axonometric Cube-6"> <polygon id="Cube_face_-_left-6" data-name="Cube face - left-6" class="cls-2" points="235.6 222.53 227.6 217.91 227.6 223.17 235.6 227.79 235.6 222.53"></polygon> <polygon id="Cube_face_-_right-4" data-name="Cube face - right-4" class="cls-1" points="249.19 219.94 235.6 227.79 235.6 222.53 249.19 214.68 249.19 219.94"></polygon> <polygon id="Cube_face_-_top-4" data-name="Cube face - top-4" class="cls-1" points="235.6 222.53 227.6 217.91 241.19 210.07 249.19 214.68 235.6 222.53"></polygon> </g> <path class="cls-1" d="M274.66,259.51c-1.25-.72-2.27-.13-2.27,1.31a5,5,0,0,0,2.27,3.93c1.26.73,2.27.14,2.27-1.31A5,5,0,0,0,274.66,259.51Z"></path> <path class="cls-1" d="M245.16,242.48c-1.25-.72-2.27-.14-2.27,1.31a5,5,0,0,0,2.27,3.93c1.25.72,2.27.14,2.27-1.31A5,5,0,0,0,245.16,242.48Z"></path> <path class="cls-1" d="M215,225.09c-1.25-.72-2.27-.14-2.27,1.31a5,5,0,0,0,2.27,3.93c1.25.72,2.27.14,2.27-1.31A5,5,0,0,0,215,225.09Z"></path> <g id="Axonometric_Cube-7" data-name="Axonometric Cube-7"> <polygon id="Cube_face_-_left-7" data-name="Cube face - left-7" class="cls-2" points="307.54 286.57 291.88 277.52 291.88 249.91 307.54 258.95 307.54 286.57"></polygon> <path id="Cube_face_-_right-5" data-name="Cube face - right-5" class="cls-1" d="M353.15,260.23l-45.61,26.34V259l45.61-26.33C358.78,246.31,362,258,353.15,260.23Z"></path> <polygon id="Cube_face_-_top-5" data-name="Cube face - top-5" class="cls-1" points="307.54 258.95 291.88 249.91 321.58 232.76 337.49 223.58 353.15 232.62 307.54 258.95"></polygon> </g> <polygon class="cls-6" points="309.22 274.45 324.54 279.59 360.42 258.46 359.43 245.8 356.66 255.21 324.96 273.47 309.22 274.45"></polygon> <polygon class="cls-7" points="364.83 278.91 357.6 255.63 324.96 274.48 332.19 297.75 364.83 278.91"></polygon> <polygon class="cls-8" points="359.43 245.8 357.6 255.63 364.83 278.91 365.78 260.31 359.43 245.8"></polygon> <polygon class="cls-2" points="324.95 274.48 309.22 274.45 309.22 292.96 332.19 297.75 324.95 274.48"></polygon> <path class="cls-9" d="M306,257.56v8.71l1,.58c12.23,7.06,52.34-14.54,52.37-25.31v-8Z"></path> <path class="cls-10" d="M0,81.08v2.71L307,261.05c12.23,7.06,52.34-14.54,52.37-25.31V233Z"></path> <path class="cls-6" d="M357,229.31c6.85,4-1.8,13-14,20.22-12.56,7.42-28.9,12.89-35.95,8.81L0,81.09l50-29Z"></path> <polygon id="Cube_face_-_right-6" data-name="Cube face - right-6" class="cls-11" points="126.11 100.12 89.32 121.36 89.32 62.98 126.11 41.74 126.11 100.12"></polygon> <polygon class="cls-12" points="89.32 72.29 89.32 62.98 24.62 25.63 24.62 84.01 151.45 157.22 151.47 108.41 89.32 72.29"></polygon> <path class="cls-13" d="M28.63,38.08V63.77L41.31,71.1V45.41Zm12.2,32.26L29.11,63.57V38.84l11.72,6.77Z"></path> <path class="cls-13" d="M44.78,47.41V73.1l12.69,7.33V54.74ZM57,79.67,45.27,72.9V48.17L57,54.94Z"></path> <path class="cls-13" d="M60.94,56.74V82.43l12.69,7.33V64.07ZM73.15,89,61.42,82.23V57.5l11.73,6.77Z"></path> <polygon class="cls-14" points="61.09 0 37.71 8.86 107.66 49.46 131.03 40.6 61.09 0"></polygon> <polygon class="cls-15" points="84.33 73.36 14.39 32.76 14.37 26.98 84.31 67.58 84.33 73.36"></polygon> <polygon class="cls-16" points="37.71 8.86 14.37 26.98 84.31 67.58 107.66 49.46 37.71 8.86"></polygon> <polygon class="cls-11" points="131.03 40.6 107.66 49.46 84.31 67.58 84.33 73.36 131.05 46.39 131.03 40.6"></polygon> <path class="cls-17" d="M125,48.85c-2.26-1.31-10.91,2.38-17.28,6-7,4.07-18.44,12.89-18.43,17.37l62.19,36.14L187.17,85Z"></path> <polygon id="Cube_face_-_left-8" data-name="Cube face - left-8" class="cls-16" points="151.29 98.76 239.23 149.54 239.21 207.91 151.27 157.13 151.29 98.76"></polygon> <polygon class="cls-14" points="272.38 122.94 265.63 122.43 325.4 157.06 332.15 157.58 272.38 122.94"></polygon> <polygon class="cls-14" points="325.4 157.06 188.09 77.52 151.29 98.76 288.81 178.19 325.4 157.06"></polygon> <polygon class="cls-16" points="229.03 143.56 222.31 151.85 282.09 186.48 288.81 178.19 229.03 143.56"></polygon> <path class="cls-11" d="M325.41,157.06l-36.6,21.13-6.72,8.29v57.44L332.15,215V157.58Zm4.67,10.78c-.22.83-1.05,1.09-2.09.49l-5.72-3.3,5.62-3.25c1.21-.7,2.19-.29,2.19.92Z"></path> <polygon class="cls-16" points="338.33 184.77 330.54 198.1 330.54 231.78 338.33 218.44 338.33 184.77"></polygon> <polygon class="cls-11" points="330.54 198.1 312.61 208.49 312.61 242.17 330.54 231.78 330.54 198.1"></polygon> <polygon class="cls-18" points="312.61 208.49 288.24 213.82 288.24 247.5 312.61 242.17 312.61 208.49"></polygon> <path class="cls-19" d="M146.55,139.5a.85.85,0,0,1-.38-.09l-131-75.67V86.5a.75.75,0,0,1-1.5,0V62.44a.76.76,0,0,1,.75-.75.79.79,0,0,1,.37.1L147,138.11a.74.74,0,0,1,.3,1,.73.73,0,0,1-.67.39Z"></path> <path class="cls-19" d="M36.15,99.82a.74.74,0,0,1-.75-.73V75a.75.75,0,0,1,1.5,0V99.07A.76.76,0,0,1,36.15,99.82Z"></path> <path class="cls-19" d="M57.92,112.39a.75.75,0,0,1-.75-.74V87.59a.75.75,0,0,1,1.5,0v24.06a.74.74,0,0,1-.74.74Z"></path> <path class="cls-19" d="M79.7,125a.77.77,0,0,1-.75-.75V100.16a.75.75,0,0,1,1.5,0v24.06a.76.76,0,0,1-.74.78Z"></path> <path class="cls-19" d="M101.48,137.54a.74.74,0,0,1-.75-.73V112.73a.75.75,0,0,1,1.5,0v24.06A.76.76,0,0,1,101.48,137.54Z"></path> <path class="cls-19" d="M123.26,150.11a.76.76,0,0,1-.76-.74h0V125.3a.76.76,0,0,1,1.51,0v24.07A.75.75,0,0,1,123.26,150.11Z"></path> <path class="cls-19" d="M143.26,149.88a.43.43,0,0,1-.22-.06L14.14,75.4a.45.45,0,0,1-.16-.61.44.44,0,0,1,.6-.17h0l128.89,74.42a.45.45,0,0,1,.14.62.44.44,0,0,1-.37.21Z"></path> <polygon id="Cube_face_-_left-9" data-name="Cube face - left-9" class="cls-16" points="226.81 211.98 141.58 162.77 141.6 122.56 226.84 171.77 226.81 211.98"></polygon> <polygon class="cls-13" points="222.3 209.41 222.31 169.15 221.68 168.79 221.66 209.01 222.3 209.41"></polygon> <polygon id="Cube_face_-_right-7" data-name="Cube face - right-7" class="cls-20" points="236.42 206.44 226.81 211.98 226.84 171.77 236.44 166.22 236.42 206.44"></polygon> <polygon id="Cube_face_-_top-6" data-name="Cube face - top-6" class="cls-6" points="226.84 171.77 141.6 122.56 151.21 117.01 236.44 166.22 226.84 171.77"></polygon> <path class="cls-19" d="M229.27,158a.75.75,0,0,1-.38-.1l-82.41-47.58-16.27,5.92v12.62a.75.75,0,0,1-1.5,0V115.75a.74.74,0,0,1,.49-.7l17.09-6.22a.7.7,0,0,1,.63,0l82.72,47.75a.76.76,0,0,1,.27,1A.73.73,0,0,1,229.27,158Z"></path> <path class="cls-19" d="M147,124.29a.77.77,0,0,1-.75-.75V110a.75.75,0,0,1,1.5,0v13.51a.76.76,0,0,1-.72.78Z"></path> <path class="cls-19" d="M168.82,136.86a.74.74,0,0,1-.75-.73V122.6a.75.75,0,1,1,1.5,0h0v13.51A.76.76,0,0,1,168.82,136.86Z"></path> <path class="cls-19" d="M190.59,149.43a.76.76,0,0,1-.75-.75V135.17a.75.75,0,0,1,1.5,0v13.51a.74.74,0,0,1-.73.75Z"></path> <path class="cls-19" d="M212.37,162a.77.77,0,0,1-.75-.75v-13.5a.75.75,0,0,1,1.5,0v13.51A.75.75,0,0,1,212.37,162Z"></path> <polygon class="cls-16" points="288.24 247.5 288.24 213.82 282.09 201.72 282.09 186.48 222.31 151.85 222.3 209.41 288.24 247.5"></polygon> <polygon class="cls-14" points="332.1 172.54 310.17 185.26 282.01 201.59 288.24 213.82 312.61 208.49 330.54 198.1 338.33 184.77 332.1 172.54"></polygon> <path class="cls-21" d="M258.11,184.35v-7.57c0-1.21,1-1.62,2.19-.93l17,9.81a4.53,4.53,0,0,1,2.19,3.45v7.57c0,1.21-1,1.63-2.19.93l-17-9.8A4.53,4.53,0,0,1,258.11,184.35Zm-7.74-2.28,3.16,1.83c1.21.7,2.19.28,2.19-.93V175.4a4.53,4.53,0,0,0-2.19-3.46l-3.16-1.82c-1.21-.7-2.2-.29-2.2.92v7.57a4.54,4.54,0,0,0,2.2,3.46Zm-9.89-5.7,3.17,1.82c1.21.7,2.19.29,2.19-.92V169.7a4.53,4.53,0,0,0-2.19-3.46l-3.17-1.83c-1.21-.7-2.19-.28-2.19.93v7.57a4.53,4.53,0,0,0,2.19,3.46Z"></path> <path class="cls-21" d="M303.51,187.81l-17,9.8c-1.21.7-2.19.28-2.19-.93v-7.57a4.53,4.53,0,0,1,2.19-3.45l17-9.81c1.21-.69,2.19-.28,2.19.93v7.57A4.53,4.53,0,0,1,303.51,187.81Zm26.57-17.54V162.7c0-1.21-1-1.62-2.19-.92l-17,9.8A4.53,4.53,0,0,0,308.7,175v7.57c0,1.21,1,1.62,2.19.92l17-9.8a4.53,4.53,0,0,0,2.19-3.46Z"></path> <path class="cls-6" d="M296.79,252.47l-.9.52v1.06l-5.59-3.23v-2.1l-.71-.41-.9.53-.1,33.22.71.41.9-.53V281l5.59,3.23v1.94l.71.41.9-.52.1-33.22Zm-1,30.1-5.59-3.23v-5.41l5.59,3.23Zm0-7.12-5.59-3.22v-5.45l5.59,3.23Zm0-7.14-5.59-3.23v-5.41l5.59,3.23Zm0-7.12L290.27,258v-5.45l5.59,3.23Z"></path> <path class="cls-6" d="M9.23,86.45l-.9.52v1l-5.6-3.2V82.7L2,82.29l-.9.52L1,116l.71.41.9-.52V115l5.59,3.23v1.94l.71.41.9-.53.1-33.21Zm-1,30.09-5.59-3.22v-5.41l5.59,3.22Zm0-7.11L2.67,106.2v-5.44L8.28,104Zm0-7.14L2.69,99.06V93.65L8.3,96.87Zm0-7.12L2.71,91.94V86.5L8.3,89.73Z"></path> <g id="Axonometric_Cube-8" data-name="Axonometric Cube-8"> <polygon id="Cube_face_-_left-10" data-name="Cube face - left-10" class="cls-2" points="327.43 268.71 323.71 266.56 323.71 260.8 327.43 262.95 327.43 268.71"></polygon> <polygon id="Cube_face_-_right-8" data-name="Cube face - right-8" class="cls-7" points="333.64 265.13 327.43 268.71 327.43 262.95 333.64 259.37 333.64 265.13"></polygon> <path id="Cube_face_-_top-7" data-name="Cube face - top-7" class="cls-8" d="M327.43,263l-3.72-2.15c4.71-1.49,7.65-2.74,7.65-2.74l2.28,1.31Z"></path> </g> <g id="Axonometric_Cube-9" data-name="Axonometric Cube-9"> <polygon id="Cube_face_-_left-11" data-name="Cube face - left-11" class="cls-2" points="353.31 253.76 351.13 252.5 351.13 246.75 353.31 248.01 353.31 253.76"></polygon> <polygon id="Cube_face_-_right-9" data-name="Cube face - right-9" class="cls-7" points="358.99 250.49 353.31 253.76 353.31 248.01 358.99 244.74 358.99 250.49"></polygon> <path id="Cube_face_-_top-8" data-name="Cube face - top-8" class="cls-8" d="M353.32,248l-2.19-1.26a52.81,52.81,0,0,0,4.46-4l3.4,2Z"></path> </g> <path class="cls-22" d="M356.08,247.46c.87-.51,1.58-.1,1.58.91a3.49,3.49,0,0,1-1.58,2.75c-.88.51-1.59.1-1.59-.91A3.5,3.5,0,0,1,356.08,247.46Z"></path> <path class="cls-22" d="M328.94,265c0,1,.71,1.42,1.59.91a3.51,3.51,0,0,0,1.58-2.74c0-1-.71-1.43-1.58-.92A3.5,3.5,0,0,0,328.94,265Z"></path> <path class="cls-19" d="M325.42,255.29a.76.76,0,0,1-.75-.75V235.83a11,11,0,0,1,5.5-9.52l16.39-9.46a3.9,3.9,0,0,1,5.85,3.38V239.4a.75.75,0,1,1-1.5,0V220.23a2.4,2.4,0,0,0-3.6-2.08l-16.39,9.46a9.54,9.54,0,0,0-4.75,8.22v18.71a.74.74,0,0,1-.73.75Z"></path> <path class="cls-19" d="M325.42,242.73a.74.74,0,0,1-.37-1.38l25.91-15a.74.74,0,0,1,1,.28.75.75,0,0,1-.28,1l-25.9,15A.88.88,0,0,1,325.42,242.73Z"></path> <path class="cls-23" d="M169.37,93.08l-12,6.91-.89-.51,12-6.91Zm1.29.74-12,6.91.89.52,12-6.91Zm2.17,1.26-12,6.91.89.51,12-6.91ZM175,96.33l-12,6.91.89.52,12-6.91Zm2.18,1.26-12,6.91.89.51,12-6.91Zm2.17,1.25-12,6.91.89.52,12-6.91Zm10.79-17.75-12,6.91-.89-.51,12-6.91Zm1.29.74-12,6.91.89.52,12-6.91Zm2.17,1.26L181.6,90l.89.51,12-6.91Zm2.17,1.25-12,6.91.89.51,12-6.91ZM198,85.6l-12,6.91.89.51,12-6.91Zm2.17,1.25-12,6.91.89.51,12-6.91Z"></path> <path class="cls-23" d="M190.14,105.07l-12,6.91-.89-.51,12-6.91Zm1.29.75-12,6.91.89.51,12-6.91Zm2.17,1.25-12,6.91.89.51,12-6.91Zm2.17,1.25-12,6.92.89.51,12-6.91Zm2.18,1.26-12,6.91.89.51,12-6.91Zm2.17,1.25-12,6.91.89.52,12-6.91Zm10.8-17.75L199,100l-.89-.51,12-6.91Zm1.28.74-12,6.91.89.52,12-6.91Zm2.17,1.26-12,6.91.89.51,12-6.91Zm2.18,1.25-12,6.91.89.52,12-6.91Zm2.17,1.26-12,6.91.89.51,12-6.91Zm2.17,1.25-12,6.91.89.52,12-6.91Z"></path> <polygon class="cls-13" points="222.13 191.75 221.83 192.27 263.07 216.07 263.07 232.87 263.66 233.23 263.66 215.73 222.13 191.75"></polygon> <g id="Axonometric_Cylinder-13" data-name="Axonometric Cylinder-13"> <path id="Cylinder_face-13" data-name="Cylinder face-13" class="cls-11" d="M320.65,216.81c0,2.65,1.87,3.72,4.16,2.4A9.17,9.17,0,0,0,329,212c0-2.65-1.86-3.73-4.16-2.4A9.22,9.22,0,0,0,320.65,216.81Z"></path> <path id="Cylinder_face-14" data-name="Cylinder face-14" class="cls-22" d="M321.84,216.12c0,1.89,1.33,2.66,3,1.71a6.54,6.54,0,0,0,3-5.14c0-1.89-1.33-2.66-3-1.71A6.53,6.53,0,0,0,321.84,216.12Z"></path> <path id="Cylinder_body-13" data-name="Cylinder body-13" class="cls-16" d="M327.78,209.32l-2.78-1.6a2.92,2.92,0,0,0-3,.27,9.19,9.19,0,0,0-4.16,7.21,3,3,0,0,0,1.19,2.68l2.78,1.6a2.94,2.94,0,0,1-1.19-2.67,9.23,9.23,0,0,1,4.16-7.21A2.92,2.92,0,0,1,327.78,209.32Z"></path> </g> </g> </svg> 