<?xml version="1.0" encoding="UTF-8"?> <svg xmlns="http://www.w3.org/2000/svg" xmlns:xlink="http://www.w3.org/1999/xlink" id="Слой_1" data-name="Слой 1" viewBox="0 0 366.72 319.18"> <defs> <style>.cls-1{fill:#b2d59c;}.cls-2{fill:#3a3a3a;}.cls-3{fill:#5f7254;}.cls-17,.cls-4{fill:#d84f3f;}.cls-5{fill:url(#Безымянный_градиент);}.cls-6{fill:#b22f20;}.cls-7{fill:#191919;}.cls-8{fill:#262626;}.cls-9{fill:#332e2a;}.cls-10{fill:#9b9384;}.cls-11{fill:#b6b1a5;}.cls-12{fill:#d9d4cd;}.cls-13{fill:#a09a8e;}.cls-14{fill:#938d82;}.cls-15{fill:url(#Безымянный_градиент_2);}.cls-16{fill:#c46f00;}.cls-17,.cls-40{opacity:0.7;}.cls-17,.cls-19,.cls-37,.cls-38,.cls-40,.cls-41,.cls-45,.cls-47,.cls-48{isolation:isolate;}.cls-18{fill:none;}.cls-19{fill:#a3382c;}.cls-19,.cls-34,.cls-41{opacity:0.3;}.cls-20{fill:#e9e5e0;}.cls-21{fill:#2e2e2f;}.cls-22{fill:#353535;}.cls-23{fill:#5e5e5e;}.cls-24{fill:#4c4c4c;}.cls-25{fill:#818184;}.cls-26{fill:#dbdad0;}.cls-27{fill:#c2c1b7;}.cls-28{fill:#f5f4ec;}.cls-29{fill:#a32b1d;}.cls-30{fill:#3f3b34;}.cls-31,.cls-40,.cls-41,.cls-48{fill:#970825;}.cls-32{fill:url(#Безымянный_градиент_25);}.cls-33{fill:#116aa7;}.cls-35{fill:#696969;}.cls-36{fill:#757575;}.cls-37,.cls-38,.cls-47{opacity:0.5;}.cls-37{fill:url(#Безымянный_градиент_4);}.cls-38{fill:#292d2f;}.cls-39{fill:url(#Безымянный_градиент_24);}.cls-42{fill:url(#Безымянный_градиент_6);}.cls-43{fill:url(#Безымянный_градиент_7);}.cls-44{fill:#cae8ea;}.cls-45{fill:#6b8a8e;opacity:0.8;}.cls-46{fill:#dcfdff;}.cls-47{fill:#aecdd1;}.cls-48{opacity:0.2;}.cls-49{fill:url(#Безымянный_градиент_8);}.cls-50{fill:#c93c2b;}</style> <linearGradient id="Безымянный_градиент" x1="311.34" y1="79.51" x2="308.25" y2="79.51" gradientTransform="matrix(1, 0, 0, -1, 0, 322)" gradientUnits="userSpaceOnUse"> <stop offset="0.56" stop-color="#b22f20"></stop> <stop offset="0.57" stop-color="#ce4636"></stop> </linearGradient> <linearGradient id="Безымянный_градиент_2" x1="299.65" y1="74.25" x2="300.9" y2="72.09" gradientTransform="matrix(1, 0, 0, -1, 0, 322)" gradientUnits="userSpaceOnUse"> <stop offset="0" stop-color="#3a3a3a"></stop> <stop offset="1" stop-color="#2e2e2f"></stop> </linearGradient> <linearGradient id="Безымянный_градиент_25" x1="271.95" y1="85.71" x2="268.71" y2="85.71" gradientTransform="matrix(1, 0, 0, -1, 0, 322)" gradientUnits="userSpaceOnUse"> <stop offset="0.56" stop-color="#970825"></stop> <stop offset="0.57" stop-color="#ce4636"></stop> </linearGradient> <linearGradient id="Безымянный_градиент_4" x1="307.19" y1="71.71" x2="309.13" y2="72.01" gradientTransform="matrix(1, 0, 0, -1, 0, 322)" gradientUnits="userSpaceOnUse"> <stop offset="0.52" stop-color="#111214"></stop> <stop offset="0.55" stop-color="#1b1e20"></stop> <stop offset="0.6" stop-color="#292d2f"></stop> </linearGradient> <linearGradient id="Безымянный_градиент_24" x1="292.82" y1="57.79" x2="333.01" y2="60.88" gradientTransform="matrix(1, 0, 0, -1, 0, 322)" gradientUnits="userSpaceOnUse"> <stop offset="0" stop-color="#970825"></stop> <stop offset="1" stop-color="#970825"></stop> </linearGradient> <linearGradient id="Безымянный_градиент_6" x1="330.24" y1="32.22" x2="346.53" y2="22.82" gradientTransform="matrix(1, 0, 0, -1, 0, 322)" gradientUnits="userSpaceOnUse"> <stop offset="0.59" stop-color="#6f6f6f"></stop> <stop offset="0.59" stop-color="gray"></stop> <stop offset="0.59" stop-color="#8f8f8f"></stop> </linearGradient> <linearGradient id="Безымянный_градиент_7" x1="325.41" y1="52.08" x2="349.74" y2="38.03" xlink:href="#Безымянный_градиент_6"></linearGradient> <linearGradient id="Безымянный_градиент_8" x1="335.68" y1="324.02" x2="339" y2="322.1" gradientTransform="matrix(1, -0.58, 0, -1, 0, 795.61)" xlink:href="#Безымянный_градиент_6"></linearGradient> </defs> <title>Монтажная область 1</title> <g id="_0" data-name=" 0"> <g id="_1" data-name=" 1"> <path class="cls-1" d="M314.32,232.92l-.59.37a2.6,2.6,0,0,0-1.12,2.42v1.73l.61-.37v-1.74A2.65,2.65,0,0,1,314.32,232.92Z"></path> <path class="cls-2" d="M321.8,240.3a8.39,8.39,0,0,0-.77-3.38,10.56,10.56,0,0,0-.54-1.06,11,11,0,0,0-1.26-1.78,8.4,8.4,0,0,0-2.07-1.73,3.33,3.33,0,0,0-3.36-.33l-.59.37a3.35,3.35,0,0,1,3.36.33,8.18,8.18,0,0,1,2.06,1.74,10,10,0,0,1,1.26,1.77,7,7,0,0,1,.54,1.06,8.57,8.57,0,0,1,.78,3.38v1.73l.59-.37Z"></path> <path class="cls-3" d="M316.57,232.72a9.56,9.56,0,0,1,3.32,3.51,9.16,9.16,0,0,1,1.32,4.44v1.73l-.74-.42v-1.73a7.78,7.78,0,0,0-1.1-3.73,8.17,8.17,0,0,0-2.81-3c-2.17-1.25-3.95-.29-4,2.14v1.73l-.73-.43v-1.73C311.89,232.38,314,231.24,316.57,232.72Z"></path> <path class="cls-4" d="M311.51,231.88l-18.14,10.54,1.5.86a6.2,6.2,0,0,1,4.31,1.31,5.38,5.38,0,0,1,1.57,2.09l23.41,13.51,18.14-10.54Z"></path> <polygon class="cls-5" points="309.63 234.52 338.22 251.02 338.71 250.74 309.63 233.95 296.89 241.37 297.39 241.65 309.63 234.52"></polygon> <path class="cls-2" d="M309.29,245.09l6.36-3.7a2.19,2.19,0,0,1,2.21,0l12.64,7.29-7.5,4.38a2.8,2.8,0,0,1-2.8,0l-10.89-6.28C308.64,246.4,308.32,245.65,309.29,245.09Z"></path> <path class="cls-6" d="M294.41,247.93l-1-.6v-4.92l2.29,1.33a2.68,2.68,0,0,0-1.26,2.57Zm6.61-1.1a8.12,8.12,0,0,1,1.25,4v1.62l22.16,12.79.5-4.62Z"></path> <path class="cls-7" d="M300.44,244.46a11.86,11.86,0,0,0-2-1.38,3.28,3.28,0,0,0-3-.06h-.09a3.24,3.24,0,0,0-1.84,2.69v.2l.24,2.35Z"></path> <path class="cls-7" d="M298.78,243.74a2,2,0,0,0-1.58.13L295.29,245l4.92,8.46,1.91-1.11a1.76,1.76,0,0,0,.57-.58A10.35,10.35,0,0,0,298.78,243.74Z"></path> <path class="cls-8" d="M297.76,245.22c-1.92-1.11-3.48-.22-3.49,2a7.64,7.64,0,0,0,3.47,6c1.91,1.11,3.47.22,3.48-2A7.6,7.6,0,0,0,297.76,245.22Z"></path> <path class="cls-9" d="M297.76,246.35c-1.38-.8-2.5-.16-2.5,1.42a5.45,5.45,0,0,0,2.48,4.3c1.38.8,2.5.16,2.5-1.42A5.49,5.49,0,0,0,297.76,246.35Z"></path> <path class="cls-10" d="M297.8,246.44c-1.3-.79-2.39-.21-2.42,1.3a5.23,5.23,0,0,0,2.3,4.15c1.31.79,2.39.21,2.43-1.3A5.23,5.23,0,0,0,297.8,246.44Z"></path> <path class="cls-11" d="M300,250.93a1.25,1.25,0,0,1-1.55,0,4.14,4.14,0,0,1-1.83-3.3,1.19,1.19,0,0,1,.78-1.28c.1,0,0,0,0,0h-.54c-.75,0-1.27.54-1.29,1.55a4.89,4.89,0,0,0,2.17,3.91c.89.54,1.68.4,2.05-.27l.21-.37S300.06,250.86,300,250.93Z"></path> <path class="cls-12" d="M297.8,246.44c-1.3-.79-2.39-.21-2.42,1.3a5.23,5.23,0,0,0,2.3,4.15c1.31.79,2.39.21,2.43-1.3A5.23,5.23,0,0,0,297.8,246.44Zm-.11,5.29a4.89,4.89,0,0,1-2.17-3.91c0-1.42,1.05-2,2.28-1.22a4.92,4.92,0,0,1,2.17,3.91C299.94,251.93,298.92,252.47,297.69,251.73Z"></path> <path class="cls-13" d="M297.8,246.6a2.55,2.55,0,0,0-.5-.24,1.24,1.24,0,0,0-.69,1.25,4.11,4.11,0,0,0,1.83,3.3,1.3,1.3,0,0,0,1.47.09,2,2,0,0,0,.06-.49A4.92,4.92,0,0,0,297.8,246.6Z"></path> <path class="cls-14" d="M299.23,248.5a1.89,1.89,0,0,0-.72-.84l-.16-.08c-.44-.18-.78.06-.8.6v.13l.82,1.46.11.06c.51.3.94.07.95-.52A1.9,1.9,0,0,0,299.23,248.5Z"></path> <path class="cls-11" d="M298.4,247.86c-.46-.28-.84-.07-.85.45a1.84,1.84,0,0,0,.8,1.45c.46.27.84.07.85-.46A1.83,1.83,0,0,0,298.4,247.86Z"></path> <path class="cls-15" d="M303,251.16a8.39,8.39,0,0,0-.77-3.38,10.56,10.56,0,0,0-.54-1.06,11,11,0,0,0-1.26-1.78,8.4,8.4,0,0,0-2.07-1.73,3.33,3.33,0,0,0-3.36-.33l-.59.37a3.35,3.35,0,0,1,3.36.33,8.18,8.18,0,0,1,2.06,1.74,10,10,0,0,1,1.26,1.77,7,7,0,0,1,.54,1.06,8.57,8.57,0,0,1,.78,3.38v1.73l.59-.37Z"></path> <path class="cls-8" d="M297.76,243.58a9.56,9.56,0,0,1,3.32,3.51,9.16,9.16,0,0,1,1.32,4.44v1.73l-.74-.42v-1.73a7.78,7.78,0,0,0-1.1-3.73,8.19,8.19,0,0,0-2.81-2.95c-2.17-1.25-3.95-.29-4,2.14v1.73l-.73-.43v-1.73C293.08,243.24,295.19,242.1,297.76,243.58Z"></path> <path class="cls-2" d="M300.42,245a11,11,0,0,1,1.26,1.78c.13.23.24.46.36.7l2.13-1.23c-.12-.25-.23-.49-.37-.73a10.94,10.94,0,0,0-1.26-1.77,8.58,8.58,0,0,0-2.06-1.74,3.35,3.35,0,0,0-3.36-.33L295,242.91a3.33,3.33,0,0,1,3.36.33A8.47,8.47,0,0,1,300.42,245Z"></path> <path class="cls-2" d="M316.5,235.69a11,11,0,0,1,1.27,1.77c.13.23.24.47.35.7l2.21-1.27a10.65,10.65,0,0,0-3.69-4.24,3.25,3.25,0,0,0-3.43-.29l-2.13,1.26a3.33,3.33,0,0,1,3.36.33A8.18,8.18,0,0,1,316.5,235.69Z"></path> <path class="cls-8" d="M318.12,238.16l-7.34-4.24s1-1.52,3.88-.1A6.63,6.63,0,0,1,318.12,238.16Z"></path> <path class="cls-16" d="M304.88,251.05l-.51-.29a.52.52,0,0,1-.24-.37c0-.13.11-.18.24-.1l.51.29a.48.48,0,0,1,.23.37C305.11,251.08,305,251.13,304.88,251.05Z"></path> <path class="cls-17" d="M341.83,250.71l.25,24.65"></path> <line class="cls-18" x1="323.7" y1="256.27" x2="323.41" y2="256.44"></line> <path class="cls-19" d="M332.57,246.07l.13.07"></path> <polygon id="Cube_face_-_left" data-name="Cube face - left" class="cls-11" points="323.69 265.42 319.56 263.04 319.56 258.12 323.69 260.5 323.69 265.42"></polygon> <polygon id="Cube_face_-_right" data-name="Cube face - right" class="cls-12" points="324.2 265.13 323.69 265.42 323.69 260.5 324.2 260.21 324.2 265.13"></polygon> <polygon class="cls-20" points="323.4 259.76 323.4 258.12 321.49 257.01 319.56 258.12 323.69 260.5 324.19 260.22 323.4 259.76"></polygon> <path class="cls-21" d="M323.06,264.55,321,263.34a.47.47,0,0,1-.24-.38v-.56c0-.13.1-.17.24-.1l2.09,1.21a.47.47,0,0,1,.24.38v.56C323.3,264.58,323.19,264.62,323.06,264.55Z"></path> </g> <g id="_2" data-name=" 2"> <g id="Axonometric_Cube" data-name="Axonometric Cube"> <polygon class="cls-8" points="186.95 246.5 186.95 247.15 192.78 250.51 198.64 247.12 198.64 246.48 186.95 246.5"></polygon> <polygon id="Cube_face_-_top" data-name="Cube face - top" class="cls-22" points="192.78 249.87 186.95 246.5 192.82 243.12 198.64 246.48 192.78 249.87"></polygon> </g> <g id="Axonometric_Cylinder" data-name="Axonometric Cylinder"> <ellipse id="Cylinder_face" data-name="Cylinder face" class="cls-22" cx="192.86" cy="242.32" rx="2.53" ry="1.46"></ellipse> <path id="Cylinder_body" data-name="Cylinder body" class="cls-8" d="M190.33,242.31v4a1.24,1.24,0,0,0,.74,1,4,4,0,0,0,3.58,0,1.28,1.28,0,0,0,.75-1v-4a1.28,1.28,0,0,1-.75,1,4,4,0,0,1-3.58,0A1.24,1.24,0,0,1,190.33,242.31Z"></path> </g> <path class="cls-23" d="M194.59,226.37c.17-.35,0-.73-.43-1a2.78,2.78,0,0,0-2.54,0,.92.92,0,0,0-.53.73v16a.9.9,0,0,0,.53.74,2.84,2.84,0,0,0,2.54,0,.89.89,0,0,0,.52-.73v-16A.62.62,0,0,1,194.59,226.37Z"></path> <g id="Axonometric_Cube-2" data-name="Axonometric Cube-2"> <polygon id="Cube_face_-_left-2" data-name="Cube face - left-2" class="cls-8" points="199.72 241.62 184.42 232.78 184.42 220.75 199.72 229.58 199.72 241.62"></polygon> <polygon id="Cube_face_-_right-2" data-name="Cube face - right-2" class="cls-7" points="246.71 214.49 199.72 241.62 199.72 229.58 246.71 202.45 246.71 214.49"></polygon> <polygon id="Cube_face_-_top-2" data-name="Cube face - top-2" class="cls-23" points="199.72 229.58 184.42 220.75 231.41 193.62 246.71 202.45 199.72 229.58"></polygon> </g> <g id="Axonometric_Cube-3" data-name="Axonometric Cube-3"> <polygon id="Cube_face_-_left-3" data-name="Cube face - left-3" class="cls-8" points="187.61 230.85 107.87 184.81 107.87 172.77 187.61 218.81 187.61 230.85"></polygon> </g> <g id="Axonometric_Cube-4" data-name="Axonometric Cube-4"> <polygon id="Cube_face_-_left-4" data-name="Cube face - left-4" class="cls-23" points="0.94 136.41 0 135.87 0 123.94 9.17 119.75 0.94 136.41"></polygon> <polygon id="Cube_face_-_right-3" data-name="Cube face - right-3" class="cls-24" points="48.53 108.93 0.94 136.41 0.94 124.48 48.53 97 48.53 108.93"></polygon> <polygon id="Cube_face_-_top-3" data-name="Cube face - top-3" class="cls-25" points="0.94 124.48 0 123.94 47.6 96.46 48.53 97 0.94 124.48"></polygon> </g> <path class="cls-7" d="M28.8,132.44c-1.6-1-3.4-1.73-5-2.79a1.1,1.1,0,0,1-.34-.34,9.39,9.39,0,0,0-4.81.87l-.27.13A9.28,9.28,0,0,0,13.1,138v.59l.69,6.72L31.4,135.14A11.3,11.3,0,0,0,28.8,132.44Z"></path> <path class="cls-7" d="M28.07,132.26a5.86,5.86,0,0,0-4.55.36L18,135.8l14.13,24.3,5.49-3.19a5.17,5.17,0,0,0,1.63-1.66C39.11,146,34.65,137.05,28.07,132.26Z"></path> <path class="cls-8" d="M25.13,136.5c-5.51-3.18-10-.63-10,5.69s4.43,14,9.94,17.21,10,.63,10-5.7S30.64,139.68,25.13,136.5Z"></path> <path class="cls-9" d="M25.12,139.73c-3.95-2.28-7.16-.45-7.18,4.09a15.74,15.74,0,0,0,7.13,12.35c4,2.28,7.17.45,7.18-4.09A15.69,15.69,0,0,0,25.12,139.73Z"></path> <path class="cls-10" d="M25.25,140c-3.74-2.26-6.86-.59-6.95,3.73a15,15,0,0,0,6.61,11.92c3.75,2.26,6.87.59,7-3.74A15,15,0,0,0,25.25,140Z"></path> <path class="cls-11" d="M31.54,152.88c-1,1-2.64,1-4.44,0a12,12,0,0,1-5.27-9.48c.05-2,.92-3.31,2.24-3.67.28-.07-.12-.13-.12-.13H22.39c-2.13-.07-3.64,1.56-3.7,4.46a14.14,14.14,0,0,0,6.23,11.22c2.57,1.55,4.83,1.14,5.9-.77l.6-1.07S31.74,152.68,31.54,152.88Z"></path> <path class="cls-12" d="M25.25,140c-3.74-2.26-6.86-.59-6.95,3.73a15,15,0,0,0,6.61,11.92c3.75,2.26,6.87.59,7-3.74A15,15,0,0,0,25.25,140Zm-.33,15.19A14.14,14.14,0,0,1,18.69,144c.09-4.07,3-5.65,6.55-3.52a14.13,14.13,0,0,1,6.24,11.23C31.39,155.75,28.45,157.32,24.92,155.19Z"></path> <path class="cls-13" d="M25.24,140.45a7,7,0,0,0-1.44-.67c-1.16.45-1.93,1.7-2,3.57a12,12,0,0,0,5.27,9.48c1.68,1,3.19,1,4.22.25a7.33,7.33,0,0,0,.16-1.4A14.12,14.12,0,0,0,25.24,140.45Z"></path> <path class="cls-14" d="M29.37,145.92a5.76,5.76,0,0,0-2.07-2.41,4.16,4.16,0,0,0-.47-.24c-1.27-.5-2.26.19-2.29,1.72v.38l2.34,4.18.33.19c1.47.85,2.68.19,2.71-1.51A5.17,5.17,0,0,0,29.37,145.92Z"></path> <path class="cls-11" d="M27,144.07c-1.31-.79-2.39-.21-2.42,1.3a5.19,5.19,0,0,0,2.3,4.15c1.31.79,2.39.21,2.43-1.3A5.23,5.23,0,0,0,27,144.07Z"></path> <path class="cls-7" d="M55.1,147.62c-1.61-1-3.41-1.73-5-2.79a1.37,1.37,0,0,1-.34-.34,9.35,9.35,0,0,0-4.8.87l-.28.13a9.31,9.31,0,0,0-5.28,7.71v.59l.69,6.72,17.62-10.19A11.54,11.54,0,0,0,55.1,147.62Z"></path> <path class="cls-7" d="M54.36,147.44a5.86,5.86,0,0,0-4.55.36L44.33,151l14.12,24.3,5.49-3.19a5.07,5.07,0,0,0,1.63-1.66C65.4,161.22,60.94,152.23,54.36,147.44Z"></path> <path class="cls-8" d="M51.42,151.68c-5.5-3.18-10-.63-10,5.69s4.43,14,9.94,17.21,10,.63,10-5.7S56.93,154.86,51.42,151.68Z"></path> <path class="cls-9" d="M51.41,154.91c-3.95-2.28-7.16-.45-7.17,4.09a15.69,15.69,0,0,0,7.13,12.35c4,2.28,7.16.45,7.18-4.09A15.73,15.73,0,0,0,51.41,154.91Z"></path> <path class="cls-10" d="M51.55,155.18c-3.75-2.26-6.87-.59-7,3.73a15,15,0,0,0,6.62,11.92c3.75,2.26,6.86.59,7-3.73A15,15,0,0,0,51.55,155.18Z"></path> <path class="cls-11" d="M57.84,168.06c-1,1-2.64,1.05-4.45-.05a11.92,11.92,0,0,1-5.26-9.48c0-2,.92-3.31,2.24-3.67.27-.07-.12-.13-.12-.13H48.69c-2.14-.07-3.64,1.56-3.71,4.46a14.18,14.18,0,0,0,6.24,11.22c2.57,1.55,4.82,1.14,5.89-.77l.6-1.07S58,167.86,57.84,168.06Z"></path> <path class="cls-12" d="M51.55,155.18c-3.75-2.26-6.87-.59-7,3.73a15,15,0,0,0,6.62,11.92c3.75,2.26,6.86.59,7-3.73A15,15,0,0,0,51.55,155.18Zm-.33,15.19A14.19,14.19,0,0,1,45,159.15c.09-4.07,3-5.65,6.56-3.52a14.16,14.16,0,0,1,6.23,11.23C57.68,170.93,54.75,172.5,51.22,170.37Z"></path> <path class="cls-13" d="M51.54,155.63A7.67,7.67,0,0,0,50.1,155c-1.17.45-1.93,1.7-2,3.57A11.91,11.91,0,0,0,53.39,168c1.68,1,3.2,1,4.22.25a7.33,7.33,0,0,0,.16-1.4A14.17,14.17,0,0,0,51.54,155.63Z"></path> <path class="cls-14" d="M55.66,161.1a5.76,5.76,0,0,0-2.07-2.41,4.16,4.16,0,0,0-.47-.24c-1.27-.5-2.25.19-2.29,1.72v.38l2.34,4.18.33.19c1.47.85,2.68.19,2.72-1.51A5.31,5.31,0,0,0,55.66,161.1Z"></path> <path class="cls-11" d="M53.25,159.25c-1.3-.79-2.39-.21-2.42,1.3a5.23,5.23,0,0,0,2.3,4.15c1.31.79,2.4.21,2.43-1.3A5.23,5.23,0,0,0,53.25,159.25Z"></path> <path class="cls-7" d="M81.39,162.8c-1.61-1-3.41-1.73-5-2.79a1.14,1.14,0,0,1-.35-.34,9.35,9.35,0,0,0-4.8.87l-.28.13a9.27,9.27,0,0,0-5.27,7.71,5.81,5.81,0,0,0,0,.59l.69,6.72L84,165.5A11.54,11.54,0,0,0,81.39,162.8Z"></path> <path class="cls-7" d="M80.65,162.62a5.83,5.83,0,0,0-4.54.36l-5.49,3.18,14.13,24.3,5.48-3.19a5.1,5.1,0,0,0,1.64-1.66C91.69,176.4,87.24,167.41,80.65,162.62Z"></path> <path class="cls-8" d="M77.72,166.86c-5.51-3.18-10-.63-10,5.69s4.44,14,9.94,17.21,10,.63,10-5.7S83.22,170,77.72,166.86Z"></path> <path class="cls-9" d="M77.71,170.09c-3.95-2.28-7.17-.45-7.18,4.09a15.74,15.74,0,0,0,7.13,12.35c4,2.28,7.17.45,7.18-4.09A15.74,15.74,0,0,0,77.71,170.09Z"></path> <path class="cls-10" d="M77.84,170.36c-3.75-2.26-6.86-.59-7,3.73A15,15,0,0,0,77.5,186c3.75,2.26,6.86.59,7-3.73A15,15,0,0,0,77.84,170.36Z"></path> <path class="cls-11" d="M84.13,183.24c-1,1-2.64,1-4.45-.05a11.9,11.9,0,0,1-5.26-9.47c0-2,.92-3.32,2.24-3.68.28-.07-.12-.13-.12-.13H75c-2.14-.07-3.64,1.56-3.7,4.46a14.14,14.14,0,0,0,6.23,11.22c2.57,1.55,4.82,1.14,5.89-.77l.6-1.07S84.33,183,84.13,183.24Z"></path> <path class="cls-12" d="M77.84,170.36c-3.75-2.26-6.86-.59-7,3.73A15,15,0,0,0,77.5,186c3.75,2.26,6.86.59,7-3.73A15,15,0,0,0,77.84,170.36Zm-.33,15.19a14.14,14.14,0,0,1-6.23-11.22c.09-4.07,3-5.65,6.55-3.52A14.14,14.14,0,0,1,84.06,182C84,186.11,81,187.68,77.51,185.55Z"></path> <path class="cls-13" d="M77.83,170.81a7.54,7.54,0,0,0-1.44-.67c-1.17.45-1.93,1.7-2,3.58a11.9,11.9,0,0,0,5.26,9.47c1.68,1,3.2,1,4.22.25A6.61,6.61,0,0,0,84,182,14.17,14.17,0,0,0,77.83,170.81Z"></path> <path class="cls-14" d="M82,176.28a5.74,5.74,0,0,0-2.06-2.41,2.16,2.16,0,0,0-.48-.24c-1.26-.5-2.25.19-2.28,1.72v.38l2.35,4.18.33.19c1.46.85,2.67.19,2.71-1.51A5.15,5.15,0,0,0,82,176.28Z"></path> <path class="cls-11" d="M79.55,174.43c-1.31-.79-2.39-.2-2.43,1.3a5.23,5.23,0,0,0,2.31,4.15c1.3.79,2.39.21,2.42-1.3A5.23,5.23,0,0,0,79.55,174.43Z"></path> <path class="cls-7" d="M98.72,180.46a24.27,24.27,0,0,0-2.23-9.7,30.37,30.37,0,0,0-1.55-3,32,32,0,0,0-3.62-5.09c-1.82-2.07-55.82-33.78-57.92-35l-.29-.15-.3-.2c-3.77-2.17-7.19-2.38-9.64-1l-7.68,4.52c4.66-.17,19.79,8.11,29.93,13.61,4.55,2.47,5.48,3.49,9.18,5.85l23.84,14.1a24.87,24.87,0,0,1,11.84,17c.32,1.81-.08,5,.13,6.86l.65,1.65,7.67-4.52Z"></path> <path class="cls-8" d="M91.06,190v-5a26.1,26.1,0,0,0-3.78-12.75,27.35,27.35,0,0,0-9.54-10.07L25.13,131.8c-7.37-4.26-13.43-1-13.47,7.35v5l2.1,1.22v-5c0-7,5.14-9.71,11.36-6.12a23.09,23.09,0,0,1,8.07,8.47,22,22,0,0,1,3.16,10.7v5l1.62.93,2.1,1.22v-5c0-7,5.15-9.71,11.37-6.12a23.14,23.14,0,0,1,8.06,8.47,22,22,0,0,1,3.17,10.7v4.95l2.12,1.23,1.6.92v-5c0-7,5.15-9.71,11.37-6.12a23,23,0,0,1,8.06,8.47A22,22,0,0,1,89,183.77v4.95Z"></path> <g id="Axonometric_Cube-5" data-name="Axonometric Cube-5"> <polygon id="Cube_face_-_left-5" data-name="Cube face - left-5" class="cls-23" points="112.38 191.43 110.63 190.42 110.63 183.35 112.38 184.36 112.38 191.43"></polygon> <polygon id="Cube_face_-_right-4" data-name="Cube face - right-4" class="cls-24" points="113.03 191.05 112.38 191.43 112.38 184.36 113.03 183.98 113.03 191.05"></polygon> <polygon id="Cube_face_-_top-4" data-name="Cube face - top-4" class="cls-7" points="112.38 184.36 110.63 183.35 111.29 182.98 113.03 183.98 112.38 184.36"></polygon> </g> <g id="Axonometric_Cube-6" data-name="Axonometric Cube-6"> <polygon id="Cube_face_-_left-6" data-name="Cube face - left-6" class="cls-23" points="176.11 228.23 174.37 227.22 174.37 220.15 176.11 221.16 176.11 228.23"></polygon> <polygon id="Cube_face_-_right-5" data-name="Cube face - right-5" class="cls-24" points="176.77 227.85 176.11 228.23 176.11 221.16 176.77 220.78 176.77 227.85"></polygon> <polygon id="Cube_face_-_top-5" data-name="Cube face - top-5" class="cls-7" points="176.11 221.16 174.37 220.15 175.02 219.77 176.77 220.78 176.11 221.16"></polygon> </g> <g id="Axonometric_Cube-7" data-name="Axonometric Cube-7"> <polygon class="cls-26" points="104.89 184.56 103.97 185.09 181.28 232.5 182.21 231.97 182.21 229.19 104.89 184.56"></polygon> <polygon id="Cube_face_-_left-7" data-name="Cube face - left-7" class="cls-27" points="181.28 232.5 103.97 187.86 103.97 185.09 181.28 229.73 181.28 232.5"></polygon> </g> <g id="Axonometric_Cube-8" data-name="Axonometric Cube-8"> <polygon class="cls-26" points="104.89 177.84 103.97 178.37 181.28 225.78 182.21 225.25 182.21 222.47 104.89 177.84"></polygon> <polygon id="Cube_face_-_left-8" data-name="Cube face - left-8" class="cls-27" points="181.28 225.78 103.97 181.14 103.97 178.37 181.28 223.01 181.28 225.78"></polygon> </g> <g id="Axonometric_Cube-9" data-name="Axonometric Cube-9"> <polygon id="Cube_face_-_left-9" data-name="Cube face - left-9" class="cls-23" points="247.95 261.54 0.06 118.42 0.06 112.75 247.95 255.87 247.95 261.54"></polygon> <polygon id="Cube_face_-_right-6" data-name="Cube face - right-6" class="cls-25" points="303.62 229.4 247.95 261.54 247.95 255.87 303.62 223.73 303.62 229.4"></polygon> </g> <g id="Axonometric_Cube-10" data-name="Axonometric Cube-10"> <polygon id="Cube_face_-_left-10" data-name="Cube face - left-10" class="cls-27" points="248.01 259.35 0 116.16 0 32.14 300.3 145.13 248.01 259.35"></polygon> <polygon id="Cube_face_-_right-7" data-name="Cube face - right-7" class="cls-26" points="303.67 227.21 248.01 259.35 248.01 175.32 303.67 143.19 303.67 227.21"></polygon> <polygon id="Cube_face_-_top-6" data-name="Cube face - top-6" class="cls-28" points="248.01 175.32 0 32.14 55.66 0 303.67 143.19 248.01 175.32"></polygon> </g> <path class="cls-29" d="M14.69,109.93c19.1,7.69,53.09,25.69,53.09,25.69L14.69,105Z"></path> <path class="cls-30" d="M17.89,96.61l-3.08-1.78c-.18-.1-.26-.06-.26.11v7.5a.44.44,0,0,0,.26.41l3.08,1.78a1.84,1.84,0,0,0,1.52.34c.36-.14.54-.54.54-1.18v-4A3.25,3.25,0,0,0,19.41,98,4.31,4.31,0,0,0,17.89,96.61Zm.47,6.19c0,.26-.05.42-.16.47a.78.78,0,0,1-.57-.16l-1.36-.79a.24.24,0,0,1-.14-.21v-5c0-.09.05-.11.14,0l1.36.78a1.7,1.7,0,0,1,.57.5,1.27,1.27,0,0,1,.16.66Z"></path> <path class="cls-30" d="M27,101.89l-4-2.36c-.17-.1-.26-.06-.26.12v7.49a.46.46,0,0,0,.26.41l4,2.36c.17.1.25.06.25-.12v-.85a.43.43,0,0,0-.25-.4L24.43,107a.24.24,0,0,1-.15-.22v-1.73c0-.1,0-.11.15-.06l2.13,1.24c.17.1.26.06.26-.12v-.84a.47.47,0,0,0-.26-.42l-2.13-1.23a.24.24,0,0,1-.15-.22v-1.62c0-.09,0-.11.15,0l2.6,1.5c.17.1.25.06.25-.12v-.84A.45.45,0,0,0,27,101.89Z"></path> <path class="cls-30" d="M34.28,112.71l-2.63-1.52a.24.24,0,0,1-.15-.22v-6.24a.46.46,0,0,0-.26-.41l-1.06-.62c-.18-.1-.27-.06-.27.11v7.5a.45.45,0,0,0,.27.41l4.1,2.37c.17.1.25.06.25-.12v-.84A.44.44,0,0,0,34.28,112.71Z"></path> <path class="cls-30" d="M38.15,108.31l-1.06-.62c-.18-.1-.27-.06-.27.11v7.5a.45.45,0,0,0,.27.41l1.06.62c.17.1.26.06.26-.12v-7.49A.46.46,0,0,0,38.15,108.31Z"></path> <path class="cls-30" d="M46.59,113.18l-1.17-.68q-.26-.14-.3.09L43.81,118c-.05,0-1.36-6.92-1.36-6.92a.54.54,0,0,0-.3-.43L41,109.94c-.23-.13-.31-.08-.25.14l1.93,8.59a.59.59,0,0,0,.31.44l1.64,1q.23.14.3-.09l1.93-6.36A.45.45,0,0,0,46.59,113.18Z"></path> <path class="cls-30" d="M53.42,117.13l-4.07-2.36c-.18-.1-.27-.06-.27.11v7.5a.45.45,0,0,0,.27.41l4.07,2.36c.17.09.25,0,.25-.12v-.85a.47.47,0,0,0-.25-.41l-2.6-1.5a.24.24,0,0,1-.15-.22v-1.74c0-.09,0-.11.15,0L53,121.49c.18.1.26.07.26-.11v-.85a.44.44,0,0,0-.26-.41l-2.13-1.23a.24.24,0,0,1-.15-.22V117c0-.09,0-.1.15,0l2.6,1.51c.17.09.25.06.25-.12v-.85A.43.43,0,0,0,53.42,117.13Z"></path> <path class="cls-30" d="M60.5,126.15c.74.07,1.11-.34,1.11-1.28v-1a3.3,3.3,0,0,0-.55-1.83,4.28,4.28,0,0,0-1.52-1.41l-3-1.72c-.18-.1-.26-.06-.26.11v7.5a.44.44,0,0,0,.26.41l1.06.61c.17.1.26.07.26-.11v-2.55c0-.1,0-.11.15-.06l.84.49,1.24,3.41a.73.73,0,0,0,.17.31,1.24,1.24,0,0,0,.32.23l1,.59q.33.18.21-.18ZM60,124c0,.25-.06.39-.18.43a.84.84,0,0,1-.59-.17l-1.22-.7a.26.26,0,0,1-.14-.22v-2.15c0-.09,0-.11.14,0l1.22.7a1.8,1.8,0,0,1,.59.51,1.27,1.27,0,0,1,.18.6Z"></path> <path class="cls-30" d="M69.69,126.52l-1.32-.77q-.21-.12-.3.09l-1.22,2.33c-.09,0-1.34-3.8-1.34-3.8a.72.72,0,0,0-.3-.44l-1.32-.76h-.17s0,.1,0,.19L66,129.47v2.67a.47.47,0,0,0,.26.42l1.06.61c.18.1.26.06.26-.11v-2.67l2.28-3.5a.14.14,0,0,0,0-.19A.49.49,0,0,0,69.69,126.52Z"></path> <path class="cls-27" d="M259.61,173l-8.79,5.08v-1l8.79-5.07Zm0,1.94L250.82,180v1l8.79-5.07Z"></path> <path class="cls-27" d="M301.09,149.05l-8.79,5.08v-1l8.79-5.07Zm0,1.94-8.79,5.08v1l8.79-5.08Z"></path> </g> <g id="_1-2" data-name=" 1-2"> <path class="cls-31" d="M310.91,245.41,308.24,247l-1.67,1-.17.09-.54.31-.43.26-.35.2-1.49.86-14.1,8.18-.45.29-2.79,1.64a.22.22,0,0,0-.2.08h0l-2.67,1.55-.37.2-1.87,1.09-6.63,3.85-.54.31-1.64,1-.54.32-3.88,2.24-.83.48-8.21,4.77-2.18-1.27V265l.83-.48-.83-.49v-9.47l.06-23.54V214.28l19.15,11h0L305,242Z"></path> <polygon class="cls-32" points="300.63 248.51 299.2 249.35 284.44 240.82 283.35 240.19 282.98 239.99 281.86 239.33 277.96 237.09 277.47 236.8 274.48 235.08 273.94 234.76 268.23 231.46 260.59 227.04 260.07 226.76 256.8 224.86 256.8 223.22 260.07 225.12 260.59 225.41 269.37 230.49 273.88 233.07 274.48 233.41 277.47 235.14 277.96 235.43 281.86 237.66 282.98 238.32 283.35 238.55 284.44 239.19 300.63 248.51"></polygon> <polygon class="cls-2" points="277.04 242.63 274.48 244.12 273.94 244.44 271.15 246.07 270.61 246.39 268.68 247.51 266.85 248.57 266.3 248.89 260.59 252.22 260.07 252.5 256.71 254.46 256.77 230.92 260.07 232.84 260.59 233.13 267.48 237.12 273.94 240.85 274.48 241.17 277.04 242.63"></polygon> <path class="cls-31" d="M259,275.75h0l-.11-.06-2.18-1.27v14.07l.89.52,1.43.83.69.4L261.08,277Z"></path> <path class="cls-31" d="M365.56,218.61a1,1,0,0,0-1,.1l-1.4.8a3.15,3.15,0,0,0-1.42,2.48v10.14a1,1,0,0,0,.42.93l.74.43L366.3,219Z"></path> <path class="cls-31" d="M365.29,219.13c.78-.45,1.43-.08,1.43.83V230.1a3.13,3.13,0,0,1-1.43,2.48l-1.4.81c-.78.45-1.43.09-1.43-.83V222.42a3.18,3.18,0,0,1,1.42-2.48Z"></path> <path class="cls-8" d="M358.36,226.14a.47.47,0,0,1-.24-.87h0l3.46-2.07a.47.47,0,0,1,.48.81l-3.47,2.07A.4.4,0,0,1,358.36,226.14Z"></path> <path class="cls-7" d="M280.14,284c-.66-.41-4.8-3.35-5.41-3a1.08,1.08,0,0,1-.8.14,50.34,50.34,0,0,0-5,2.59,12.53,12.53,0,0,0-1.91,6.49l.69,6.72,16.54-9.56A20.51,20.51,0,0,0,280.14,284Z"></path> <path class="cls-7" d="M292.65,294.54a24.57,24.57,0,0,0-3.87-6.09,17.7,17.7,0,0,0-4.37-3.67c-2.78-1.61-5.3-1.76-7.12-.7l-5.5,3.2L286,311.63l5.5-3.19c1.79-1,2.9-3.26,2.91-6.41A18.69,18.69,0,0,0,292.65,294.54Z"></path> <path class="cls-8" d="M278.91,288c-5.52-3.18-10-.63-10,5.71s4.44,14.07,10,17.26,10,.63,10-5.72S284.43,291.16,278.91,288Z"></path> <path class="cls-9" d="M278.9,291.22c-4-2.29-7.18-.46-7.2,4.09a15.77,15.77,0,0,0,7.15,12.38c4,2.29,7.19.46,7.2-4.1A15.76,15.76,0,0,0,278.9,291.22Z"></path> <path class="cls-11" d="M278.9,292.13c-3.45-2.14-6.35-.62-6.48,3.38a13.91,13.91,0,0,0,6,11.1c3.45,2.13,6.35.61,6.48-3.39A13.89,13.89,0,0,0,278.9,292.13Z"></path> <path class="cls-12" d="M283.17,298a12.26,12.26,0,0,0-4.3-5.13,6.27,6.27,0,0,0-1-.51c-2.65-1.08-4.73.35-4.84,3.56v.83c.1-3,2-4.23,4.3-3.27a6.36,6.36,0,0,1,.9.46,10.66,10.66,0,0,1,3.81,4.57,9.85,9.85,0,0,1,1,4.33c-.1,3.2-2.43,4.42-5.19,2.71l.61.37c3.1,1.92,5.72.55,5.84-3.05A11.12,11.12,0,0,0,283.17,298Z"></path> <path class="cls-12" d="M284.24,297.56a14.11,14.11,0,0,0-5-6,6.46,6.46,0,0,0-1.17-.6c-3.08-1.26-5.51.41-5.64,4.15v.51c.13-3.69,2.44-5.28,5.37-4.09a7,7,0,0,1,1.12.58,13.38,13.38,0,0,1,4.76,5.69,12.17,12.17,0,0,1,1.23,5.4c-.13,4-3,5.52-6.48,3.39l.32.19c3.62,2.24,6.66.64,6.8-3.56A12.64,12.64,0,0,0,284.24,297.56Z"></path> <path class="cls-33" d="M361.42,247.83l-52.06,30.25v40.41a.28.28,0,0,1-.12.25l52.06-30.25a.3.3,0,0,0,.12-.26Z"></path> <polygon class="cls-8" points="362.01 241.73 348.51 233.94 346.44 230.35 331.43 221.69 275.32 225.3 266.95 232.59 269.37 253.62 292.25 271.37 313.06 279.97 359.99 259.36 363.16 243.24 362.01 241.73"></polygon> <g class="cls-34"> <path class="cls-35" d="M342.66,240.19a15.83,15.83,0,0,0-3.22,1.66c-2.93,2-5.28,5.08-5.83,7.9a5.68,5.68,0,0,0-.11,1.09,4.44,4.44,0,0,0,.11,1.09,3.18,3.18,0,0,0,1,1.66c1,.92,2.75,1.18,4.85.58L340,254a15.43,15.43,0,0,0,6.2-4.31h0A11.52,11.52,0,0,0,349,244.5a1.13,1.13,0,0,0,0-.26,5.08,5.08,0,0,0,.06-1.35C348.83,240.16,346.24,239,342.66,240.19Zm-3.22,2.87a11.62,11.62,0,0,1,3.13-1.66l.75-.18-1.3,4h0l-.63,1.95-1.95-.51h-.11l-2.73-.75A14,14,0,0,1,339.44,243.06Zm8.58,2a11,11,0,0,1-3.27,5.37h0a12.27,12.27,0,0,1-4.48,2.81,5.51,5.51,0,0,1-.8.2,4.19,4.19,0,0,1-3.13-.17h-.06a2.68,2.68,0,0,1-1.49-2,4.66,4.66,0,0,1,0-1.49v-.18a8.93,8.93,0,0,1,1.29-2.95l2.24.6,1.12.29L341,248l1,.26.31-.92.83-2.61,1.21-3.65c1.89-.17,3.24.57,3.65,2a3,3,0,0,1,.08,1.55,1,1,0,0,1-.08.44Z"></path> <path class="cls-35" d="M357.62,240.91c-19.41,6.49-40.56,20.23-52.69,31.94l1.8,3.43L316.6,283l46-28.89c.19-2.79,1.5-7.94-.32-10.22Z"></path> <path class="cls-36" d="M353,242.58c-1.45,5.74-13.08,11.52-22.76,11.28a44.31,44.31,0,0,1,9.69-7.6C348.05,241.85,353,242.58,353,242.58Z"></path> </g> <polygon class="cls-8" points="359.44 218.8 356.58 219.64 360.14 241.85 362.55 243.24 359.44 218.8"></polygon> <path class="cls-37" d="M359.11,218.92l-49.85,29a3.23,3.23,0,0,1-3.21,0l-26.6-15.35a1.62,1.62,0,0,0-.8-.24,1.25,1.25,0,0,0-1.2,1.28s0,.07,0,.11v16a3.27,3.27,0,0,0,1.51,2.61l14.89,8.6,2,3.47a.77.77,0,0,0,.18.18l13.5,7.79a4,4,0,0,0,2,.53,3.83,3.83,0,0,0,2-.54L363,243.63Z"></path> <polygon class="cls-38" points="339.44 257.24 362.92 243.59 359.11 218.92 339.44 230.35 339.44 257.24"></polygon> <polygon class="cls-8" points="359.72 217.82 358.27 219.46 362.04 243.96 362.98 243.51 363.55 242.66 359.72 217.82"></polygon> <path class="cls-8" d="M308.17,246.59l-5.35-2.05,4,26.38c1.24,3.36,4.23,5.38,5.48,2.33Z"></path> <path class="cls-8" d="M284.45,232.14l-2.59-.48v25.21a4.32,4.32,0,0,0,2.62,2.93Z"></path> <polygon class="cls-31" points="308.89 180.27 256.83 210.53 303.83 237.67 355.9 207.41 308.89 180.27"></polygon> <path class="cls-39" d="M362.78,273.06l.77.46v14.63a2.67,2.67,0,0,1-1.29,2.27L314,318.47a4.6,4.6,0,0,1-.63.31,5.71,5.71,0,0,1-1.35.35h-.37a3.94,3.94,0,0,1-1.41-.08,5,5,0,0,1-1.67-.6l-14.46-8.36h0l-1.69-1-.18-.09-.23-.14v-4.65a16.34,16.34,0,0,0-.46-3.88,2.09,2.09,0,0,0-.11-.43,26,26,0,0,0-7.23-12.54c-.38-.38-.78-.72-1.18-1.06a18.78,18.78,0,0,0-2.27-1.58,14.25,14.25,0,0,0-2.41-1.12h0c-.51-.18-1-.33-1.55-.46h0c-4.93-1.06-9.41,1.18-9.44,6.8v4.65l-1.7-1-5.94-3.45-.69-.4-1.43-.83-.89-.52V264.9l.83-.48-.83-.49v-9.47l.06-23.54V210.59l24.86,14.35,22.16,12.77,27.5-16,24.54-14.27,3.41,6.72a5.51,5.51,0,0,1,.61,2.52v2.21l-.38.35-.14.14-.17.12-.83.48-1.58.89-13.35,7.75-4,2.33-29.9,17.36a3.33,3.33,0,0,1-1,.4,3.89,3.89,0,0,1-1.73,0,2.73,2.73,0,0,1-.91-.35h-.06l-.46-.26-.12,0-.28-.18h0l-1.78-1L284.44,236l-1.09-.63-.37-.2-1.12-.66L279.22,233c-.69-.41-1.26-.09-1.26.71v16a2.78,2.78,0,0,0,1.23,2.18l2.67,1.55,1.15.66.37.2,1.09.63,5,2.93,4.68,2.7,2.07,3.56,2.84,1.64.75.43,1.09.63,2.38,1.38,3.42,2,.69.4,1,.57.4.23,1,.55a2.82,2.82,0,0,0,.46.23,3.5,3.5,0,0,0,1.95.14,2.12,2.12,0,0,0,.55-.14,2.34,2.34,0,0,0,.51-.23l26.21-15.24L362,243.67H362l.12-.06.46-.29a1,1,0,0,0,.28-.14L363,243l.54-.31h0v29.48A4,4,0,0,1,362.78,273.06Z"></path> <path class="cls-40" d="M363.55,272.17V242.69h0L363,243l-.15.09a1,1,0,0,1-.28.14l-.46.29-.12.06h-.05l-22.48,13.06-26.21,15.24a2.34,2.34,0,0,1-.51.23l-.32.05a.86.86,0,0,1-.23.06,3.41,3.41,0,0,1-1.95-.14v47a6.07,6.07,0,0,0,1.41.08H312a5.71,5.71,0,0,0,1.35-.35,4.6,4.6,0,0,0,.63-.31l48.28-28.05a2.67,2.67,0,0,0,1.29-2.27V273.52l-.77-.46A4.27,4.27,0,0,0,363.55,272.17Zm-4.25-58-3.41-6.72-24.54,14.27-27.5,16L305,242l1,3.76.57,2.18.06.17.14.58a3.89,3.89,0,0,0,1.73,0,3.33,3.33,0,0,0,1-.4l29.94-17.39,4-2.33,13.35-7.75,1.58-.89.83-.48.17-.12.14-.14.38-.35v-2.21a5.41,5.41,0,0,0-.59-2.5Z"></path> <path class="cls-41" d="M363.55,273.52a6.44,6.44,0,0,1-.8.57l-1.32.77-48.6,28.05a2.22,2.22,0,0,1-1.09.31,2.25,2.25,0,0,1-1.32-.46l-.2-.17-.86-.8L293.2,287.06a40.62,40.62,0,0,0-7.21-5.22L267.05,270.9l-10.36-6,.83-.48,10.36,6,15.1,8.69.37.23,3.13,1.81a41.81,41.81,0,0,1,7.18,5.22l14.87,13.55.37.32.46.43.86.77.72.66a1.36,1.36,0,0,0,1.46.09l49-28.3.89-.52.46-.31Z"></path> <path class="cls-42" d="M325.61,305.28a1.23,1.23,0,0,1-1.24-1.2c0-.05,0-.09,0-.14v-3.33a3.54,3.54,0,0,1,1.72-2.74L350.2,284a2.07,2.07,0,0,1,1-.29,1.23,1.23,0,0,1,1.24,1.2s0,.09,0,.14v3.33a3.5,3.5,0,0,1-1.71,2.74L326.59,305a2.07,2.07,0,0,1-1,.29Z"></path> <path class="cls-21" d="M350.45,284.38,326.34,298.3a3,3,0,0,0-1.46,2.31v3.33c0,.81.65,1.09,1.46.62l24.11-13.91a3.08,3.08,0,0,0,1.47-2.32V285C351.92,284.19,351.26,283.91,350.45,284.38Z"></path> <path class="cls-43" d="M320.77,294.7a1.47,1.47,0,0,1-1.47-1.45.86.86,0,0,1,0-.16V281.33a4.44,4.44,0,0,1,2.18-3.47l31.68-18.3a2.47,2.47,0,0,1,1.21-.36,1.45,1.45,0,0,1,1.47,1.43,1,1,0,0,1,0,.17v11.77a4.49,4.49,0,0,1-2.18,3.47L322,294.34a2.47,2.47,0,0,1-1.21.36Z"></path> <path class="cls-21" d="M353.42,260l-31.69,18.29a4,4,0,0,0-1.93,3V293.1c0,1.07.87,1.43,1.93.82l31.69-18.3a4,4,0,0,0,1.93-3V260.81C355.35,259.74,354.48,259.37,353.42,260Z"></path> <path class="cls-44" d="M362.19,277.62l-8.08,4.66a2,2,0,0,0-.95,1.5v2.78c0,.52.43.7.95.4l8.08-4.67v-4.67Z"></path> <polygon class="cls-45" points="362.19 277.62 361 278.31 361 281.6 362.19 282.3 362.19 281.07 362.19 277.62"></polygon> <path class="cls-46" d="M353.73,283.62a.94.94,0,0,0-.57.26v1.43a1.47,1.47,0,0,0,.86-.83C354.22,284,354.11,283.62,353.73,283.62Zm6.35-3.68a1.42,1.42,0,0,0-1,.87c-.21.48-.09.89.28.89a1.44,1.44,0,0,0,1-.89c.21-.46.09-.87-.28-.87Zm-4.22,2.44a1.47,1.47,0,0,0-1.06.89c-.2.49-.09.87.28.87a1.32,1.32,0,0,0,1-.87c.27-.48.12-.89-.22-.89Zm2.12-1.23a1.45,1.45,0,0,0-1.06.89c-.2.49-.09.89.29.89a1.35,1.35,0,0,0,1-.89c.26-.49.12-.89-.21-.89Z"></path> <path class="cls-47" d="M362.19,277.62l-8.08,4.66a2,2,0,0,0-.95,1.5v2.78c0,.52.43.7.95.4l8.08-4.67v-4.67Z"></path> <path class="cls-44" d="M322.68,300.43l-8.25,4.77v4.67l8.25-4.76a2,2,0,0,0,.95-1.51v-2.77C323.63,300.31,323.21,300.13,322.68,300.43Z"></path> <path class="cls-45" d="M322.68,300.43l-.43.25v3.88l.65.38a1.92,1.92,0,0,0,.73-1.34v-2.77C323.63,300.31,323.21,300.13,322.68,300.43Z"></path> <path class="cls-46" d="M315.19,305.86a1.22,1.22,0,0,0-.55.23h0v1.47h0a1.66,1.66,0,0,0,.83-.84C315.67,306.27,315.56,305.86,315.19,305.86Zm6.34-3.67a1.4,1.4,0,0,0-1,.89c-.21.49-.09.89.28.89a1.4,1.4,0,0,0,1-.89c.19-.49.09-.89-.28-.89Zm-4.22,2.44a1.45,1.45,0,0,0-1.06.89c-.2.49-.09.89.28.89a1.35,1.35,0,0,0,1-.89c.27-.52.12-.89-.22-.89Zm2.12-1.21a1.43,1.43,0,0,0-1.06.87c-.2.48-.08.89.29.89a1.38,1.38,0,0,0,1-.89c.26-.49.12-.87-.23-.87Z"></path> <path class="cls-47" d="M322.68,300.43l-8.25,4.77v4.67l8.25-4.76a2,2,0,0,0,.95-1.51v-2.77C323.63,300.31,323.21,300.13,322.68,300.43Z"></path> <path class="cls-44" d="M361.26,287.44l-7.48,4.32c-.36.21-.65.08-.65-.28v-1a1.35,1.35,0,0,1,.65-1l7.48-4.31c.36-.21.65-.09.65.27v1A1.34,1.34,0,0,1,361.26,287.44Z"></path> <path class="cls-47" d="M361.26,287.44l-7.48,4.32c-.36.21-.65.08-.65-.28v-1a1.35,1.35,0,0,1,.65-1l7.48-4.31c.36-.21.65-.09.65.27v1A1.34,1.34,0,0,1,361.26,287.44Z"></path> <path class="cls-44" d="M323,309.52l-7.48,4.31c-.36.21-.65.09-.65-.27v-1a1.35,1.35,0,0,1,.65-1l7.48-4.31c.36-.21.65-.09.65.27v1A1.35,1.35,0,0,1,323,309.52Z"></path> <path class="cls-47" d="M323,309.52l-7.48,4.31c-.36.21-.65.09-.65-.27v-1a1.35,1.35,0,0,1,.65-1l7.48-4.31c.36-.21.65-.09.65.27v1A1.35,1.35,0,0,1,323,309.52Z"></path> <path class="cls-16" d="M311,305.56a.26.26,0,0,0-.29.21v3.6a1.19,1.19,0,0,0,.07.51c.54.63,2.83.56,3.91-.1v-4.73A6.6,6.6,0,0,1,311,305.56Z"></path> <path class="cls-16" d="M363.56,281v-4.67a3,3,0,0,1-1.36,1.29c-.07,0-.07,4.71-.07,4.71A3,3,0,0,0,363.56,281Z"></path> <path class="cls-31" d="M294.06,305.15a24.15,24.15,0,0,0-2.23-9.71,32.34,32.34,0,0,0-1.55-3.05,31.24,31.24,0,0,0-3.62-5.08,23.84,23.84,0,0,0-5.92-5c-3.77-2.17-7.19-2.38-9.64-.95l-1.71,1.07a13.39,13.39,0,0,1,9.58,1.84,20,20,0,0,1,5.25,4.66,32.26,32.26,0,0,1,4.13,4.91,25.72,25.72,0,0,1,1.19,2.81A22.76,22.76,0,0,1,292,306l.42,5.2,1.7-1.07Z"></path> <path class="cls-31" d="M279,283.4a27.3,27.3,0,0,1,9.55,10.07,26.13,26.13,0,0,1,3.78,12.75v5L290.25,310v-5a22,22,0,0,0-3.17-10.7,23,23,0,0,0-8.06-8.47c-6.22-3.59-11.33-.85-11.37,6.12v5l-2.1-1.21v-5C265.61,282.43,271.66,279.15,279,283.4Z"></path> <path class="cls-41" d="M273.85,247.64l-12.07-7a2.45,2.45,0,0,1-1.18-1.86v-14.4a.85.85,0,0,1,.08-.35.58.58,0,0,0-.61.66v14.4a2.45,2.45,0,0,0,1.18,1.86l12.06,7c.51.29.94.21,1.11-.15A1.14,1.14,0,0,1,273.85,247.64Z"></path> <path class="cls-48" d="M273.31,231.18l-12.06-7a1.22,1.22,0,0,0-.56-.17,1.12,1.12,0,0,0-.09.36c.09.13,12.16,7.09,12.16,7.09a2.5,2.5,0,0,1,1.18,1.87v14.29a1.17,1.17,0,0,0,.44.13.7.7,0,0,0,.12-.34V233A2.46,2.46,0,0,0,273.31,231.18Z"></path> <path class="cls-41" d="M273.85,268.75l-12.07-7a2.5,2.5,0,0,1-1.18-1.87v-14.4a.85.85,0,0,1,.08-.35.58.58,0,0,0-.61.66v14.4a2.5,2.5,0,0,0,1.18,1.87l12.06,7c.51.3.94.21,1.11-.15A1.14,1.14,0,0,1,273.85,268.75Z"></path> <path class="cls-48" d="M273.31,252.3l-12.06-7a1.22,1.22,0,0,0-.56-.17,1.12,1.12,0,0,0-.09.36c.09.13,12.16,7.1,12.16,7.1a2.45,2.45,0,0,1,1.18,1.86v14.3a1.16,1.16,0,0,0,.44.12.7.7,0,0,0,.12-.34v-14.4A2.44,2.44,0,0,0,273.31,252.3Z"></path> <path class="cls-41" d="M308.81,271.36l-.26-1.81-3.12-21-.09-.55-.12-.05-.28-.2h0l.14,1,3.13,21,.2,1.29.09.63v28.12l.37.32V271.85ZM283,235.14v44l.37.23v-44Z"></path> <path class="cls-49" d="M337.72,275a4,4,0,0,0-1.93,3c0,1.06.87,1.41,1.93.81a4,4,0,0,0,1.92-3.05C339.64,274.72,338.78,274.35,337.72,275Zm0,3.44c-.86.49-1.55.2-1.55-.63a3.2,3.2,0,0,1,1.55-2.44c.83-.49,1.52-.2,1.52.66a3.14,3.14,0,0,1-1.52,2.39Z"></path> <polygon class="cls-11" points="257.52 276.56 257.52 288.99 256.63 288.47 256.66 276.07 257.52 276.56"></polygon> <polygon class="cls-12" points="258.95 275.73 258.95 289.85 257.52 290.68 257.52 276.56 258.93 275.75 258.95 275.73"></polygon> <polygon class="cls-20" points="258.93 275.75 257.52 276.56 256.66 276.07 256.66 274.43 258.84 275.67 258.93 275.75"></polygon> <path class="cls-16" d="M300,305.12l-1.46-.85a1.42,1.42,0,0,1-.68-1.06c0-.37.31-.5.68-.29l1.46.85a1.42,1.42,0,0,1,.68,1.06C300.63,305.21,300.32,305.33,300,305.12Z"></path> <path class="cls-50" d="M330.28,214l-30.19-17.45a1.76,1.76,0,0,0-1.52,0c-.21.14-.32.32-.29.46a.43.43,0,0,1,.23-.23,1.58,1.58,0,0,1,1.52,0l30.22,17.42a.55.55,0,0,1,.29.43C330.66,214.41,330.6,214.18,330.28,214ZM324,217.63l-30.2-17.45a1.76,1.76,0,0,0-1.52,0,.58.58,0,0,0-.32.46.58.58,0,0,1,.26-.23,1.58,1.58,0,0,1,1.52,0L324,217.83a.49.49,0,0,1,.31.43C324.4,218,324.31,217.8,324,217.63Zm12.54-7.24-30.23-17.45a1.7,1.7,0,0,0-1.49,0,.56.56,0,0,0-.31.46.69.69,0,0,1,.25-.26,1.72,1.72,0,0,1,1.5,0l30.22,17.46a.47.47,0,0,1,.29.43.47.47,0,0,0-.17-.63h-.06Zm6.26-3.61-30.2-17.45a1.7,1.7,0,0,0-1.49,0,.55.55,0,0,0-.32.45.88.88,0,0,1,.26-.25,1.76,1.76,0,0,1,1.52,0L342.77,207a.57.57,0,0,1,.32.43c.11-.25,0-.43-.26-.65Zm-25.06,14.46-30.23-17.42a1.52,1.52,0,0,0-1.49,0,.52.52,0,0,0-.32.43.62.62,0,0,1,.3-.25,1.54,1.54,0,0,1,1.5,0l30.22,17.43a.64.64,0,0,1,.32.43c.1-.21,0-.44-.27-.62Zm-12.55,7.24-8-4.59L275,211.05a1.63,1.63,0,0,0-1.52,0,.52.52,0,0,0-.32.46.53.53,0,0,1,.26-.25,1.58,1.58,0,0,1,1.52,0l21.87,12.65h.06l8.27,4.77a.54.54,0,0,1,.31.43c.15-.23.06-.46-.23-.63Zm6.26-3.62-2.9-1.72h-.05l-27.24-15.7a1.6,1.6,0,0,0-1.53,0,.45.45,0,0,0-.28.43.43.43,0,0,1,.23-.23,1.58,1.58,0,0,1,1.52,0l26.95,15.53,3.27,1.89a.53.53,0,0,1,.29.43.4.4,0,0,0-.23-.63Z"></path> <path class="cls-8" d="M301.74,258.83a.46.46,0,0,1-.4-.23.47.47,0,0,1,.15-.65h0l3.47-2.06a.45.45,0,0,1,.63.15h0a.47.47,0,0,1-.16.64L302,258.76A.41.41,0,0,1,301.74,258.83Z"></path> <path class="cls-31" d="M302.94,254.76a1,1,0,0,0-1,.1l-1.4.81a3.1,3.1,0,0,0-1.42,2.48v10.14a1,1,0,0,0,.42.92l.74.43,3.44-14.45Z"></path> <path class="cls-31" d="M302.67,255.29c.78-.46,1.43-.09,1.43.82v10.15a3.16,3.16,0,0,1-1.43,2.47l-1.4.81c-.78.46-1.43.09-1.43-.83V258.57a3.19,3.19,0,0,1,1.43-2.48Z"></path> <path class="cls-21" d="M286.56,261.53l3.46,2c.35.2.63.08.63-.26v-.43a1.29,1.29,0,0,0-.63-1l-3.46-2c-.35-.2-.63-.08-.63.26v.43A1.29,1.29,0,0,0,286.56,261.53Z"></path> </g> </g> </svg> 