<?xml version="1.0" encoding="UTF-8"?> <svg xmlns="http://www.w3.org/2000/svg" xmlns:xlink="http://www.w3.org/1999/xlink" viewBox="0 0 370.73 228.08"> <defs> <style>.cls-1{isolation:isolate;}.cls-2{fill:#818184;}.cls-3{fill:#5e5e5e;}.cls-4{fill:#757575;}.cls-5{fill:#2b2927;}.cls-6{fill:url(#linear-gradient);}.cls-7{fill:#aaafaf;}.cls-8{fill:url(#linear-gradient-2);}.cls-9{fill:url(#linear-gradient-3);}.cls-10{fill:url(#linear-gradient-4);}.cls-11{fill:url(#linear-gradient-5);}.cls-12{fill:url(#linear-gradient-6);}.cls-13{fill:url(#linear-gradient-7);}.cls-14{fill:url(#linear-gradient-8);}.cls-15{fill:#a32b1d;}.cls-16{fill:url(#Ѕезым_нный_градиент_24);}.cls-17{fill:#970825;}.cls-18,.cls-19{fill:#f3f2ea;}.cls-18{opacity:0.5;}.cls-18,.cls-19,.cls-22,.cls-28,.cls-33,.cls-35{mix-blend-mode:screen;}.cls-19{opacity:0.2;}.cls-20,.cls-26,.cls-38,.cls-43{fill:#c2c1b7;}.cls-20{opacity:0.3;}.cls-20,.cls-38,.cls-41{mix-blend-mode:multiply;}.cls-21{fill:url(#Ѕезым_нный_градиент_24-2);}.cls-22{fill:url(#Ѕезым_нный_градиент_43);}.cls-23{fill:#dbdad0;}.cls-24{fill:#3a3a3a;}.cls-25{fill:#f9f8f0;}.cls-27{fill:url(#Ѕезым_нный_градиент_24-3);}.cls-28{fill:url(#Ѕезым_нный_градиент_43-2);}.cls-29{fill:#707576;}.cls-30{fill:#f5f4ec;}.cls-31{fill:url(#Ѕезым_нный_градиент_65);}.cls-32{fill:url(#Ѕезым_нный_градиент_24-4);}.cls-33{fill:url(#Ѕезым_нный_градиент_43-3);}.cls-34{fill:url(#Ѕезым_нный_градиент_24-5);}.cls-35{fill:url(#Ѕезым_нный_градиент_43-4);}.cls-36{fill:#d84f3f;}.cls-37{fill:#b2bbbd;}.cls-38,.cls-43{opacity:0.4;}.cls-39{fill:url(#Ѕезым_нный_градиент_47);}.cls-40{fill:url(#Ѕезым_нный_градиент_50);}.cls-41{fill:#3f4146;}.cls-42{fill:url(#linear-gradient-9);}.cls-44{fill:#970a19;}</style> <linearGradient id="linear-gradient" x1="244.09" y1="202.5" x2="247.56" y2="208.5" gradientTransform="translate(50.6 18.23) scale(0.93)" gradientUnits="userSpaceOnUse"> <stop offset="0" stop-color="#494644"></stop> <stop offset="0.08" stop-color="#4f4c4a"></stop> <stop offset="0.31" stop-color="#5d5957"></stop> <stop offset="0.5" stop-color="#625e5c"></stop> <stop offset="0.92" stop-color="#4e4a48"></stop> <stop offset="1" stop-color="#494644"></stop> </linearGradient> <linearGradient id="linear-gradient-2" x1="240.94" y1="204.32" x2="244.4" y2="210.32" xlink:href="#linear-gradient"></linearGradient> <linearGradient id="linear-gradient-3" x1="145.8" y1="152.2" x2="149.39" y2="158.42" xlink:href="#linear-gradient"></linearGradient> <linearGradient id="linear-gradient-4" x1="142.53" y1="154.09" x2="146.12" y2="160.31" xlink:href="#linear-gradient"></linearGradient> <linearGradient id="linear-gradient-5" x1="151.55" y1="155.52" x2="155.14" y2="161.74" xlink:href="#linear-gradient"></linearGradient> <linearGradient id="linear-gradient-6" x1="148.27" y1="157.41" x2="151.87" y2="163.63" xlink:href="#linear-gradient"></linearGradient> <linearGradient id="linear-gradient-7" x1="157.29" y1="158.83" x2="160.88" y2="165.06" xlink:href="#linear-gradient"></linearGradient> <linearGradient id="linear-gradient-8" x1="154.02" y1="160.72" x2="157.61" y2="166.95" xlink:href="#linear-gradient"></linearGradient> <linearGradient id="Ѕезым_нный_градиент_24" x1="1212.76" y1="118.61" x2="1232.47" y2="152.74" gradientTransform="matrix(-0.93, 0, 0, 0.93, 1337.24, 18.23)" gradientUnits="userSpaceOnUse"> <stop offset="0" stop-color="#f5f4ec"></stop> <stop offset="0.21" stop-color="#f1f0e8"></stop> <stop offset="0.42" stop-color="#e5e4dc"></stop> <stop offset="0.63" stop-color="#d2d1c8"></stop> <stop offset="0.76" stop-color="#c2c1b7"></stop> <stop offset="0.95" stop-color="#c5c4ba"></stop> <stop offset="1" stop-color="#c8c7bd"></stop> </linearGradient> <linearGradient id="Ѕезым_нный_градиент_24-2" x1="876.01" y1="131.92" x2="874.43" y2="148.78" gradientTransform="matrix(0.85, 0.39, -0.39, 0.85, -375.26, -368.38)" xlink:href="#Ѕезым_нный_градиент_24"></linearGradient> <linearGradient id="Ѕезым_нный_градиент_43" x1="284.5" y1="89.71" x2="287.74" y2="69.32" gradientTransform="translate(50.6 18.23) scale(0.93)" gradientUnits="userSpaceOnUse"> <stop offset="0"></stop> <stop offset="0.13" stop-color="#181817"></stop> <stop offset="0.39" stop-color="#565552"></stop> <stop offset="0.77" stop-color="#b7b7b1"></stop> <stop offset="1" stop-color="#f5f4ec"></stop> </linearGradient> <linearGradient id="Ѕезым_нный_градиент_24-3" x1="859.59" y1="170.3" x2="858" y2="187.16" gradientTransform="matrix(0.85, 0.39, -0.39, 0.85, -375.26, -368.38)" xlink:href="#Ѕезым_нный_градиент_24"></linearGradient> <linearGradient id="Ѕезым_нный_градиент_43-2" x1="253.57" y1="117.75" x2="256.82" y2="97.35" xlink:href="#Ѕезым_нный_градиент_43"></linearGradient> <linearGradient id="Ѕезым_нный_градиент_65" x1="151.04" y1="95.55" x2="183.94" y2="152.53" gradientTransform="translate(50.6 18.23) scale(0.93)" gradientUnits="userSpaceOnUse"> <stop offset="0" stop-color="#e3e2d9"></stop> <stop offset="0.08" stop-color="#e9e8df"></stop> <stop offset="0.3" stop-color="#f2f1e9"></stop> <stop offset="0.58" stop-color="#f5f4ec"></stop> <stop offset="0.76" stop-color="#f2f1e9"></stop> <stop offset="0.89" stop-color="#eae9e0"></stop> <stop offset="1" stop-color="#dcdbd1"></stop> <stop offset="1" stop-color="#dbdad0"></stop> </linearGradient> <linearGradient id="Ѕезым_нный_градиент_24-4" x1="770.96" y1="295.12" x2="769.38" y2="311.98" gradientTransform="matrix(0.85, 0.39, -0.39, 0.85, -375.26, -368.38)" xlink:href="#Ѕезым_нный_градиент_24"></linearGradient> <linearGradient id="Ѕезым_нный_градиент_43-3" x1="120.99" y1="194.28" x2="124.24" y2="173.88" xlink:href="#Ѕезым_нный_градиент_43"></linearGradient> <linearGradient id="Ѕезым_нный_градиент_24-5" x1="733.54" y1="331.52" x2="731.95" y2="348.38" gradientTransform="matrix(0.85, 0.39, -0.39, 0.85, -375.26, -368.38)" xlink:href="#Ѕезым_нный_градиент_24"></linearGradient> <linearGradient id="Ѕезым_нный_градиент_43-4" x1="71.8" y1="211.77" x2="75.05" y2="191.37" xlink:href="#Ѕезым_нный_градиент_43"></linearGradient> <linearGradient id="Ѕезым_нный_градиент_47" x1="60.17" y1="14.41" x2="56.08" y2="21.49" gradientTransform="translate(50.6 18.23) scale(0.93)" gradientUnits="userSpaceOnUse"> <stop offset="0" stop-color="#f5f4ec"></stop> <stop offset="0.5" stop-color="#d8d7ce"></stop> <stop offset="0.95" stop-color="#c2c1b7"></stop> </linearGradient> <linearGradient id="Ѕезым_нный_градиент_50" x1="71.21" y1="20.78" x2="67.15" y2="27.82" gradientTransform="translate(50.6 18.23) scale(0.93)" gradientUnits="userSpaceOnUse"> <stop offset="0" stop-color="#f5f4ec"></stop> <stop offset="0.27" stop-color="#f1f0e8"></stop> <stop offset="0.55" stop-color="#e5e4dc"></stop> <stop offset="0.83" stop-color="#d2d1c8"></stop> <stop offset="1" stop-color="#c2c1b7"></stop> </linearGradient> <linearGradient id="linear-gradient-9" x1="246.83" y1="186.6" x2="266.38" y2="179.45" gradientTransform="translate(50.6 18.23) scale(0.93)" gradientUnits="userSpaceOnUse"> <stop offset="0" stop-color="#1c1c1b"></stop> <stop offset="0.47" stop-color="#252523"></stop> <stop offset="0.5" stop-color="#262624"></stop> <stop offset="1" stop-color="#353532"></stop> </linearGradient> </defs> <title>Монтажная область 6</title> <g class="cls-1"> <g id="_0" data-name="0"> <g id="_12" data-name="12"> <path class="cls-2" d="M277.82,208.32c-.88-.51-1.6-.1-1.6.91a3.5,3.5,0,0,0,1.59,2.74c.87.51,1.59.1,1.59-.91A3.51,3.51,0,0,0,277.82,208.32Z"></path> <path class="cls-3" d="M277.81,208.73a1,1,0,0,0-.74-.13.94.94,0,0,0-.25.7,2.7,2.7,0,0,0,1.23,2.12.91.91,0,0,0,.74.13.93.93,0,0,0,.25-.69A2.72,2.72,0,0,0,277.81,208.73Z"></path> <path class="cls-4" d="M278.05,211.42a2.7,2.7,0,0,1-1.23-2.12,1,1,0,0,1,.25-.7.79.79,0,0,0-.49.84,2.7,2.7,0,0,0,1.23,2.12.78.78,0,0,0,1,0A1,1,0,0,1,278.05,211.42Z"></path> <path class="cls-5" d="M277.82,207.53a5,5,0,0,1,2.28,3.94c0,1.45-1,2-2.29,1.31a5,5,0,0,1-2.28-3.95C275.54,207.38,276.56,206.8,277.82,207.53Zm0,4.38c.85.49,1.54.1,1.54-.87a3.37,3.37,0,0,0-1.53-2.65c-.85-.49-1.54-.1-1.54.88a3.35,3.35,0,0,0,1.53,2.64Z"></path> <path class="cls-6" d="M280.9,209.06a5.45,5.45,0,0,0-.88-1.39,4.14,4.14,0,0,0-1-.84,1.62,1.62,0,0,0-1.62-.16l-1.2.7a1.6,1.6,0,0,1,1.62.16,3.73,3.73,0,0,1,1,.84,5.13,5.13,0,0,1,.88,1.39,4.14,4.14,0,0,1,.4,1.71,1.61,1.61,0,0,1-.67,1.47l1.2-.7a1.59,1.59,0,0,0,.67-1.46A4.39,4.39,0,0,0,280.9,209.06Z"></path> <g class="cls-1"> <path class="cls-4" d="M278.39,209.92a1.33,1.33,0,0,0-.22-.34.79.79,0,0,0-.24-.21.4.4,0,0,0-.39,0l-.17.11a.37.37,0,0,1,.39,0,.79.79,0,0,1,.24.21,1.33,1.33,0,0,1,.22.34,1,1,0,0,1,.09.41.39.39,0,0,1-.16.36l.17-.1a.39.39,0,0,0,.16-.36A.87.87,0,0,0,278.39,209.92Z"></path> <path class="cls-2" d="M277.76,209.47c-.31-.17-.56,0-.56.32a1.23,1.23,0,0,0,.56,1c.3.18.55,0,.55-.32A1.19,1.19,0,0,0,277.76,209.47Z"></path> </g> <g class="cls-1"> <path class="cls-2" d="M278.11,205.34l-.34,5.76a.79.79,0,0,1-.35.67l1.27-.73a.82.82,0,0,0,.34-.67l.34-5.76Z"></path> <polygon class="cls-7" points="276.32 202.84 275.06 203.58 278.11 205.34 279.37 204.61 276.32 202.84"></polygon> <path class="cls-3" d="M275.06,203.58l.37,7.44,1.15.67c.63.36,1.14.1,1.19-.59l.34-5.76Z"></path> </g> <path class="cls-2" d="M274.88,210c-.87-.5-1.59-.1-1.59.91a3.47,3.47,0,0,0,1.58,2.74c.88.51,1.59.1,1.6-.9A3.51,3.51,0,0,0,274.88,210Z"></path> <path class="cls-3" d="M274.88,210.43a.92.92,0,0,0-.74-.14,1,1,0,0,0-.25.7,2.7,2.7,0,0,0,1.23,2.12.58.58,0,0,0,1-.56A2.7,2.7,0,0,0,274.88,210.43Z"></path> <path class="cls-4" d="M275.12,213.11a2.7,2.7,0,0,1-1.23-2.12.92.92,0,0,1,.25-.7.78.78,0,0,0-.49.84,2.69,2.69,0,0,0,1.22,2.12.8.8,0,0,0,1,0A.94.94,0,0,1,275.12,213.11Z"></path> <path class="cls-5" d="M274.89,209.22a5,5,0,0,1,2.28,3.94c0,1.45-1,2-2.29,1.31a5,5,0,0,1-2.28-3.94C272.6,209.08,273.63,208.49,274.89,209.22Zm0,4.39c.84.49,1.53.09,1.54-.88a3.38,3.38,0,0,0-1.53-2.65c-.85-.49-1.54-.1-1.54.88a3.38,3.38,0,0,0,1.53,2.65Z"></path> <path class="cls-8" d="M278,210.76a5.38,5.38,0,0,0-.88-1.39,3.73,3.73,0,0,0-1-.84,1.62,1.62,0,0,0-1.63-.16l-1.2.69a1.61,1.61,0,0,1,1.63.16,4.14,4.14,0,0,1,1,.84,5.45,5.45,0,0,1,.88,1.39,4.34,4.34,0,0,1,.4,1.71,1.63,1.63,0,0,1-.67,1.47l1.2-.69a1.63,1.63,0,0,0,.67-1.47A4.3,4.3,0,0,0,278,210.76Z"></path> <g class="cls-1"> <path class="cls-4" d="M275.46,211.61a1.52,1.52,0,0,0-.22-.34.91.91,0,0,0-.24-.2.4.4,0,0,0-.4,0l-.17.1a.4.4,0,0,1,.4,0,1.11,1.11,0,0,1,.24.2,1.52,1.52,0,0,1,.22.34,1.06,1.06,0,0,1,.09.42.38.38,0,0,1-.16.35l.17-.1a.38.38,0,0,0,.16-.35A1.06,1.06,0,0,0,275.46,211.61Z"></path> <path class="cls-2" d="M274.83,211.17c-.31-.18-.56,0-.56.31a1.22,1.22,0,0,0,.55,1c.31.18.56,0,.56-.31A1.22,1.22,0,0,0,274.83,211.17Z"></path> </g> <path class="cls-2" d="M186.41,161.61c-.91-.53-1.65-.11-1.66.94a3.65,3.65,0,0,0,1.65,2.85c.91.52,1.65.1,1.65-1A3.59,3.59,0,0,0,186.41,161.61Z"></path> <path class="cls-3" d="M186.41,162a1,1,0,0,0-.77-.14,1,1,0,0,0-.26.73,2.82,2.82,0,0,0,1.27,2.2.6.6,0,0,0,1-.58A2.84,2.84,0,0,0,186.41,162Z"></path> <path class="cls-4" d="M186.65,164.82a2.82,2.82,0,0,1-1.27-2.2,1,1,0,0,1,.26-.72.8.8,0,0,0-.51.86A2.81,2.81,0,0,0,186.4,165a.81.81,0,0,0,1,0A1,1,0,0,1,186.65,164.82Z"></path> <path class="cls-5" d="M186.42,160.78a5.22,5.22,0,0,1,2.36,4.1c0,1.5-1.07,2.11-2.38,1.35a5.2,5.2,0,0,1-2.36-4.09C184,160.63,185.11,160,186.42,160.78Zm0,4.56c.88.5,1.6.1,1.6-.91a3.5,3.5,0,0,0-1.59-2.75c-.88-.51-1.59-.1-1.59.91a3.48,3.48,0,0,0,1.58,2.75Z"></path> <path class="cls-9" d="M189.61,162.38a5.9,5.9,0,0,0-.91-1.45,4.67,4.67,0,0,0-1-.87,1.68,1.68,0,0,0-1.69-.16l-1.24.72a1.68,1.68,0,0,1,1.69.16,4.41,4.41,0,0,1,1,.87,5.94,5.94,0,0,1,.92,1.45,4.47,4.47,0,0,1,.41,1.78,1.68,1.68,0,0,1-.69,1.52l1.24-.72a1.66,1.66,0,0,0,.69-1.52A4.31,4.31,0,0,0,189.61,162.38Z"></path> <g class="cls-1"> <path class="cls-4" d="M187,163.26a1.29,1.29,0,0,0-.22-.35,1,1,0,0,0-.25-.21.41.41,0,0,0-.41,0l-.18.1a.41.41,0,0,1,.41,0,1,1,0,0,1,.25.22,1.41,1.41,0,0,1,.23.35,1.12,1.12,0,0,1,.1.43.41.41,0,0,1-.17.37l.18-.11a.4.4,0,0,0,.16-.37A1,1,0,0,0,187,163.26Z"></path> <path class="cls-2" d="M186.35,162.8c-.32-.18-.57,0-.58.33a1.28,1.28,0,0,0,.58,1c.32.18.58,0,.58-.33A1.28,1.28,0,0,0,186.35,162.8Z"></path> </g> <g class="cls-1"> <path class="cls-2" d="M187.78,155.19l-1.42,9.3a.83.83,0,0,1-.36.7l1.31-.76a.81.81,0,0,0,.36-.7l1.42-9.31Z"></path> <polygon class="cls-7" points="185.92 152.59 184.61 153.36 187.78 155.19 189.09 154.42 185.92 152.59"></polygon> <path class="cls-3" d="M184.61,153.36l-.67,11,1.19.69c.65.38,1.18.11,1.23-.61l1.42-9.3Z"></path> </g> <path class="cls-2" d="M183.37,163.36c-.91-.52-1.66-.1-1.66.95a3.62,3.62,0,0,0,1.64,2.84c.92.53,1.66.11,1.66-.94A3.64,3.64,0,0,0,183.37,163.36Z"></path> <path class="cls-3" d="M183.36,163.79a1,1,0,0,0-.77-.14,1,1,0,0,0-.25.73,2.77,2.77,0,0,0,1.27,2.2.6.6,0,0,0,1-.59A2.8,2.8,0,0,0,183.36,163.79Z"></path> <path class="cls-4" d="M183.61,166.58a2.77,2.77,0,0,1-1.27-2.2,1,1,0,0,1,.25-.73.84.84,0,0,0-.51.87,2.79,2.79,0,0,0,1.28,2.2.82.82,0,0,0,1,0A1,1,0,0,1,183.61,166.58Z"></path> <path class="cls-5" d="M183.37,162.54a5.23,5.23,0,0,1,2.37,4.09c0,1.51-1.07,2.11-2.38,1.36A5.2,5.2,0,0,1,181,163.9C181,162.39,182.06,161.78,183.37,162.54Zm0,4.55c.88.51,1.6.1,1.6-.91a3.51,3.51,0,0,0-1.59-2.75c-.88-.5-1.59-.1-1.6.91a3.48,3.48,0,0,0,1.59,2.75Z"></path> <path class="cls-10" d="M186.57,164.13a5.7,5.7,0,0,0-.92-1.44,4.18,4.18,0,0,0-1-.87,1.68,1.68,0,0,0-1.69-.17l-1.24.72a1.66,1.66,0,0,1,1.68.17,4.23,4.23,0,0,1,1,.87,5.7,5.7,0,0,1,.92,1.44,4.51,4.51,0,0,1,.41,1.78,1.66,1.66,0,0,1-.7,1.52l1.25-.72a1.65,1.65,0,0,0,.69-1.52A4.51,4.51,0,0,0,186.57,164.13Z"></path> <g class="cls-1"> <path class="cls-4" d="M184,165a1.38,1.38,0,0,0-.22-.35,1,1,0,0,0-.25-.21.39.39,0,0,0-.41,0l-.18.1a.41.41,0,0,1,.41,0,1.21,1.21,0,0,1,.25.21,1.46,1.46,0,0,1,.22.35,1,1,0,0,1,.1.44.4.4,0,0,1-.17.37l.18-.11a.39.39,0,0,0,.17-.37A1.12,1.12,0,0,0,184,165Z"></path> <path class="cls-2" d="M183.31,164.56c-.32-.18-.58,0-.58.33a1.3,1.3,0,0,0,.57,1c.32.18.58,0,.58-.33A1.26,1.26,0,0,0,183.31,164.56Z"></path> </g> <path class="cls-2" d="M191.75,164.69c-.91-.52-1.65-.1-1.65.94a3.64,3.64,0,0,0,1.64,2.85c.91.53,1.65.1,1.66-.94A3.65,3.65,0,0,0,191.75,164.69Z"></path> <path class="cls-3" d="M191.75,165.12A1,1,0,0,0,191,165a1,1,0,0,0-.26.72,2.84,2.84,0,0,0,1.27,2.21,1,1,0,0,0,.77.14,1,1,0,0,0,.26-.73A2.79,2.79,0,0,0,191.75,165.12Z"></path> <path class="cls-4" d="M192,167.91a2.84,2.84,0,0,1-1.27-2.21A1,1,0,0,1,191,165c-.31.09-.51.39-.51.87a2.82,2.82,0,0,0,1.27,2.2.83.83,0,0,0,1,0A1,1,0,0,1,192,167.91Z"></path> <path class="cls-5" d="M191.76,163.87a5.18,5.18,0,0,1,2.36,4.09c0,1.5-1.07,2.11-2.38,1.36a5.25,5.25,0,0,1-2.36-4.1C189.39,163.72,190.45,163.11,191.76,163.87Zm0,4.55c.88.51,1.59.1,1.59-.91a3.48,3.48,0,0,0-1.58-2.75c-.88-.51-1.6-.1-1.6.91a3.51,3.51,0,0,0,1.59,2.75Z"></path> <path class="cls-11" d="M195,165.46A5.7,5.7,0,0,0,194,164a3.86,3.86,0,0,0-1-.87,1.66,1.66,0,0,0-1.68-.17l-1.25.72a1.68,1.68,0,0,1,1.69.17,4.19,4.19,0,0,1,1,.87,5.66,5.66,0,0,1,.91,1.44,4.51,4.51,0,0,1,.41,1.78,1.64,1.64,0,0,1-.69,1.52l1.25-.72a1.69,1.69,0,0,0,.69-1.52A4.51,4.51,0,0,0,195,165.46Z"></path> <g class="cls-1"> <path class="cls-4" d="M192.35,166.35a1.41,1.41,0,0,0-.23-.35,1,1,0,0,0-.25-.22.41.41,0,0,0-.41,0l-.17.11a.41.41,0,0,1,.41,0,1,1,0,0,1,.25.21,1.38,1.38,0,0,1,.22.35,1.12,1.12,0,0,1,.1.43.4.4,0,0,1-.17.37l.18-.1a.41.41,0,0,0,.17-.37A1.12,1.12,0,0,0,192.35,166.35Z"></path> <path class="cls-2" d="M191.7,165.89c-.32-.19-.58,0-.58.33a1.25,1.25,0,0,0,.57,1c.32.19.58,0,.58-.33A1.28,1.28,0,0,0,191.7,165.89Z"></path> </g> <g class="cls-1"> <path class="cls-2" d="M193.12,158.27l-1.42,9.31a.81.81,0,0,1-.35.69l1.31-.76a.83.83,0,0,0,.35-.7l1.42-9.3Z"></path> <polygon class="cls-7" points="191.27 155.68 189.96 156.44 193.12 158.27 194.44 157.51 191.27 155.68"></polygon> <path class="cls-3" d="M190,156.44l-.68,11.06,1.19.69c.65.37,1.19.1,1.23-.61l1.42-9.31Z"></path> </g> <path class="cls-2" d="M188.71,166.45c-.91-.53-1.65-.11-1.66.94a3.65,3.65,0,0,0,1.65,2.85c.91.52,1.65.1,1.65-1A3.62,3.62,0,0,0,188.71,166.45Z"></path> <path class="cls-3" d="M188.71,166.88a.6.6,0,0,0-1,.58,2.8,2.8,0,0,0,1.27,2.2.6.6,0,0,0,1-.58A2.8,2.8,0,0,0,188.71,166.88Z"></path> <path class="cls-4" d="M189,169.66a2.8,2.8,0,0,1-1.27-2.2,1,1,0,0,1,.26-.72c-.31.09-.51.39-.51.87a2.79,2.79,0,0,0,1.27,2.2.83.83,0,0,0,1,0A1,1,0,0,1,189,169.66Z"></path> <path class="cls-5" d="M188.72,165.62a5.22,5.22,0,0,1,2.36,4.1c0,1.5-1.07,2.11-2.38,1.35a5.18,5.18,0,0,1-2.36-4.09C186.34,165.48,187.41,164.87,188.72,165.62Zm0,4.56c.88.51,1.6.1,1.6-.91a3.51,3.51,0,0,0-1.59-2.75c-.88-.51-1.59-.1-1.59.91a3.48,3.48,0,0,0,1.58,2.75Z"></path> <path class="cls-12" d="M191.91,167.22a5.66,5.66,0,0,0-.91-1.44,4.19,4.19,0,0,0-1-.87,1.66,1.66,0,0,0-1.69-.17l-1.24.72a1.68,1.68,0,0,1,1.69.16,4.23,4.23,0,0,1,1,.88,5.7,5.7,0,0,1,.92,1.44,4.51,4.51,0,0,1,.41,1.78,1.68,1.68,0,0,1-.69,1.52l1.24-.72a1.66,1.66,0,0,0,.69-1.52A4.34,4.34,0,0,0,191.91,167.22Z"></path> <g class="cls-1"> <path class="cls-4" d="M189.3,168.1a1.46,1.46,0,0,0-.22-.35,1.21,1.21,0,0,0-.25-.21.41.41,0,0,0-.41,0l-.18.11a.37.37,0,0,1,.41,0,.82.82,0,0,1,.25.21,1.41,1.41,0,0,1,.23.35,1.12,1.12,0,0,1,.1.43.41.41,0,0,1-.17.37l.18-.1a.41.41,0,0,0,.16-.37A1,1,0,0,0,189.3,168.1Z"></path> <path class="cls-2" d="M188.65,167.65c-.32-.19-.58,0-.58.33a1.26,1.26,0,0,0,.58,1c.32.18.58,0,.58-.33A1.25,1.25,0,0,0,188.65,167.65Z"></path> </g> <path class="cls-2" d="M197.1,167.78c-.92-.53-1.66-.11-1.66.94a3.62,3.62,0,0,0,1.64,2.84c.91.53,1.66.11,1.66-.94A3.62,3.62,0,0,0,197.1,167.78Z"></path> <path class="cls-3" d="M197.09,168.2a1,1,0,0,0-.77-.14,1,1,0,0,0-.25.73,2.77,2.77,0,0,0,1.27,2.2,1,1,0,0,0,.77.14,1,1,0,0,0,.26-.72A2.82,2.82,0,0,0,197.09,168.2Z"></path> <path class="cls-4" d="M197.34,171a2.77,2.77,0,0,1-1.27-2.2,1,1,0,0,1,.25-.72.82.82,0,0,0-.51.86,2.82,2.82,0,0,0,1.28,2.21.8.8,0,0,0,1,0A.93.93,0,0,1,197.34,171Z"></path> <path class="cls-5" d="M197.1,167a5.24,5.24,0,0,1,2.37,4.1c0,1.5-1.07,2.11-2.38,1.35a5.23,5.23,0,0,1-2.37-4.09C194.73,166.8,195.79,166.2,197.1,167Zm0,4.56c.88.5,1.6.1,1.6-.91a3.5,3.5,0,0,0-1.59-2.75c-.88-.51-1.59-.1-1.6.91a3.51,3.51,0,0,0,1.59,2.75Z"></path> <path class="cls-13" d="M200.3,168.55a5.94,5.94,0,0,0-.92-1.45,4.41,4.41,0,0,0-1-.87,1.68,1.68,0,0,0-1.69-.16l-1.24.72a1.66,1.66,0,0,1,1.68.16,4.46,4.46,0,0,1,1,.87,5.94,5.94,0,0,1,.92,1.45,4.47,4.47,0,0,1,.41,1.78,1.68,1.68,0,0,1-.7,1.52l1.25-.72a1.68,1.68,0,0,0,.69-1.52A4.47,4.47,0,0,0,200.3,168.55Z"></path> <g class="cls-1"> <path class="cls-4" d="M197.69,169.43a1.38,1.38,0,0,0-.22-.35,1,1,0,0,0-.25-.21.41.41,0,0,0-.41,0l-.18.1a.41.41,0,0,1,.41,0,1.27,1.27,0,0,1,.25.22,1.15,1.15,0,0,1,.22.35,1,1,0,0,1,.1.43.39.39,0,0,1-.17.37l.18-.11a.38.38,0,0,0,.17-.37A1.21,1.21,0,0,0,197.69,169.43Z"></path> <path class="cls-2" d="M197,169c-.32-.18-.58,0-.58.33a1.3,1.3,0,0,0,.57,1c.32.18.58,0,.58-.33A1.27,1.27,0,0,0,197,169Z"></path> </g> <g class="cls-1"> <path class="cls-2" d="M198.47,161.36l-1.43,9.3a.83.83,0,0,1-.35.7l1.31-.76a.83.83,0,0,0,.35-.7l1.43-9.31Z"></path> <polygon class="cls-7" points="196.61 158.76 195.3 159.53 198.47 161.35 199.78 160.59 196.61 158.76"></polygon> <path class="cls-3" d="M195.3,159.53l-.68,11.05,1.2.69c.64.37,1.18.11,1.22-.61l1.43-9.3Z"></path> </g> <path class="cls-2" d="M194.05,169.53c-.91-.52-1.65-.1-1.65.95a3.62,3.62,0,0,0,1.64,2.84c.91.53,1.65.11,1.66-.94A3.65,3.65,0,0,0,194.05,169.53Z"></path> <path class="cls-3" d="M194.05,170a.6.6,0,0,0-1,.59,2.82,2.82,0,0,0,1.27,2.2,1,1,0,0,0,.77.14,1,1,0,0,0,.26-.73A2.79,2.79,0,0,0,194.05,170Z"></path> <path class="cls-4" d="M194.29,172.75a2.82,2.82,0,0,1-1.27-2.2,1,1,0,0,1,.26-.73.81.81,0,0,0-.51.87,2.8,2.8,0,0,0,1.27,2.2.83.83,0,0,0,1,0A1,1,0,0,1,194.29,172.75Z"></path> <path class="cls-5" d="M194.06,168.71a5.2,5.2,0,0,1,2.36,4.09c0,1.51-1.07,2.11-2.38,1.36a5.25,5.25,0,0,1-2.36-4.09C191.69,168.56,192.75,168,194.06,168.71Zm0,4.55c.88.51,1.59.1,1.59-.91a3.48,3.48,0,0,0-1.58-2.75c-.88-.5-1.6-.1-1.6.91a3.48,3.48,0,0,0,1.59,2.75Z"></path> <path class="cls-14" d="M197.26,170.3a5.7,5.7,0,0,0-.92-1.44,4.05,4.05,0,0,0-1-.87,1.66,1.66,0,0,0-1.68-.17l-1.25.72a1.68,1.68,0,0,1,1.69.17,4.42,4.42,0,0,1,1,.87A5.66,5.66,0,0,1,196,171a4.51,4.51,0,0,1,.41,1.78,1.63,1.63,0,0,1-.69,1.52l1.25-.72a1.68,1.68,0,0,0,.69-1.52A4.51,4.51,0,0,0,197.26,170.3Z"></path> <g class="cls-1"> <path class="cls-4" d="M194.65,171.19a1.41,1.41,0,0,0-.23-.35.82.82,0,0,0-.25-.21.39.39,0,0,0-.41,0l-.18.1a.43.43,0,0,1,.42,0,1.21,1.21,0,0,1,.25.21,1.86,1.86,0,0,1,.22.35,1.21,1.21,0,0,1,.1.44.39.39,0,0,1-.17.36l.18-.1a.41.41,0,0,0,.17-.37A1.12,1.12,0,0,0,194.65,171.19Z"></path> <path class="cls-2" d="M194,170.73c-.32-.18-.58,0-.58.33a1.24,1.24,0,0,0,.57,1c.32.19.58,0,.58-.32A1.28,1.28,0,0,0,194,170.73Z"></path> </g> <polygon class="cls-15" points="217.48 174.08 204.1 173.69 161.52 149.11 152.76 135.18 206.38 146.25 217.48 174.08"></polygon> <path class="cls-16" d="M110.72,79.16c11.49,3.54,26.84,10.14,41.21,17.5,2.49,1.27,65,34.6,101,54,13.56,7.31,26.18,14.27,27.58,15.17a51.54,51.54,0,0,1,8.11,6.45,35.2,35.2,0,0,1,8.79,14.56c4.55,3.55,7.72,10.18,8.2,15.37a7.12,7.12,0,0,1-4.4,7.18c-9.12,3.83-24.53.18-37.57-7.35-43.86-25.32-113.48-66.26-129.95-75.78C107.16,111,96,86.22,96.93,80.86,97.81,76,104.75,77.32,110.72,79.16Z"></path> <path class="cls-17" d="M305,199c0,4-5.77,6.86-17.47,4.57-13.79-2.7-82.06-40.93-130.14-69.77-7.45-4.74-14.52-9.4-21-17.13a14.72,14.72,0,0,1-3.82-9.78c.28-7.88,7-14.77,15.53-12.17-13.22-6.57-26.89-12.34-37.36-15.57-6-1.84-12.91-3.13-13.79,1.7-.69,3.83,4.07,14,10.73,22.62,13,17,21.75,20.24,70.29,48.65,7.65,4.48,17.57,12.37,37.54,22L228,181.34c11.58,6.75,25.65,14.91,35.7,20.71,13,7.53,28.44,11.17,37.56,7.36a7.07,7.07,0,0,0,4.39-7.1A19.7,19.7,0,0,0,305,199Z"></path> <path class="cls-18" d="M278.09,165.84c-3.89-2.55-22.53-13-39.42-22.11-2,.85-3.88,1.86-5.83,2.76,16.53,9.22,36.56,20.28,40.2,22.62,9.9,6.36,12.55,9.59,16.29,9.44C292.21,178.43,289.22,173.14,278.09,165.84Z"></path> <path class="cls-19" d="M228.78,154.1c-.13.42.55,1.88,0,1.88-4.88.05-11.23,2.57-12.38,3.17,25.63,14.88,48,27.73,51.31,26.57C278.4,182,255.37,168.42,228.78,154.1Z"></path> <path class="cls-20" d="M270.61,161.27a8.32,8.32,0,0,1,2.4.37l-1.14-.62a8.68,8.68,0,0,0-1.26-.15c-7.37,0-16.81,8-21.06,17.76a22.69,22.69,0,0,0-2,8.86c-27.08-15.64-61-35.53-83.78-48.87-8.91-5.23-16.66-9.78-22.78-13.35a20.65,20.65,0,0,1,1.82-7.53c3.78-8.74,12.18-15.85,18.71-15.85.14,0,.25,0,.37,0l-.74-.4c-6.62.26-14.94,7.34-18.71,16a21.46,21.46,0,0,0-1.86,7.45l-9.1-5.3A129,129,0,0,1,105,99.89c.4.58.85,1.19,1.29,1.79a131.06,131.06,0,0,0,24.92,18.4c2.39,1.38,5.54,3.21,9.32,5.42a9.24,9.24,0,0,0,1.64,5.72l1.18.69a7.94,7.94,0,0,1-2.42-6.17c6.09,3.55,13.75,8,22.56,13.22,22.82,13.39,56.87,33.34,84,49a9.9,9.9,0,0,0,1.9,5.86l1.08.63c-3.23-2.84-3.54-8.86-.59-15.66C254.1,169.13,263.38,161.27,270.61,161.27Z"></path> <path class="cls-21" d="M310.41,78.68c-8.9-3.55-18.06,4.73-16.3,10.86,1.86,2,21.15,13.67,25.44,14.54l9.12-14.68S329.6,87.61,310.41,78.68Z"></path> <path class="cls-22" d="M317.4,82.24c.13.15,2.32,4.77,1.31,4.62-5.81-.86-13.17,4.14-13.5,6.8,4.67,2.48,11.18,5.89,12.2,6.29L328.11,90a.82.82,0,0,0,0-1.18C326,86.75,322.18,84.94,317.4,82.24Z"></path> <path class="cls-23" d="M323.31,88.84A13.9,13.9,0,0,0,317,99.73c0,4,2.82,5.63,6.29,3.62a13.88,13.88,0,0,0,6.29-10.88C329.6,88.46,326.78,86.83,323.31,88.84Z"></path> <path class="cls-24" d="M323.31,89.63a12.4,12.4,0,0,0-5.6,9.7c0,3.57,2.51,5,5.6,3.23a12.38,12.38,0,0,0,5.6-9.7C328.91,89.29,326.4,87.84,323.31,89.63Z"></path> <g class="cls-1"> <polygon class="cls-25" points="314.24 79.54 315.56 78.77 320.03 86.09 318.71 86.86 314.24 79.54"></polygon> <path class="cls-23" d="M311.6,70.52l2.64,9,1.32-.77-2.18-7.45Z"></path> <path class="cls-26" d="M311.6,70.52c-3-1.32-6-2.54-9.06-3.74l-.91,12.36s10.45,5,17.08,7.72l-4.47-7.32Z"></path> </g> <path class="cls-27" d="M281.65,104.76c-8.9-3.55-18.06,4.73-16.3,10.85,1.86,2,21.15,13.67,25.44,14.54l9.12-14.67S300.84,113.69,281.65,104.76Z"></path> <path class="cls-28" d="M288.64,108.31c.13.16,2.31,4.77,1.31,4.63-5.81-.87-13.17,4.14-13.51,6.8,4.68,2.47,11.19,5.88,12.21,6.28l10.7-9.91a.82.82,0,0,0,0-1.18C297.27,112.83,293.42,111,288.64,108.31Z"></path> <path class="cls-23" d="M294.55,114.91a13.91,13.91,0,0,0-6.29,10.89c0,4,2.82,5.63,6.29,3.63a13.91,13.91,0,0,0,6.29-10.89C300.84,114.53,298,112.91,294.55,114.91Z"></path> <path class="cls-24" d="M294.55,115.7a12.4,12.4,0,0,0-5.6,9.7c0,3.57,2.51,5,5.6,3.24a12.4,12.4,0,0,0,5.6-9.7C300.15,115.37,297.64,113.92,294.55,115.7Z"></path> <g class="cls-1"> <polygon class="cls-25" points="285.48 105.61 286.8 104.84 291.27 112.17 289.95 112.94 285.48 105.61"></polygon> <path class="cls-23" d="M282.84,96.6l2.63,9,1.33-.76-2.18-7.46Z"></path> <path class="cls-26" d="M282.84,96.6c-3-1.33-6-2.54-9.06-3.75l-.91,12.36s10.45,5,17.08,7.73l-4.48-7.33Z"></path> </g> <g class="cls-1"> <path class="cls-23" d="M370.3,20.82,238.71,140.53v2.21L370.3,23a1.12,1.12,0,0,0,.42-.83V20A1.1,1.1,0,0,1,370.3,20.82Z"></path> <polygon class="cls-29" points="238.71 140.53 238.7 142.74 192.23 115.91 192.24 113.7 238.71 140.53"></polygon> <path class="cls-30" d="M370,18.9c.88.51,1,1.32.35,1.92L238.71,140.53,192.24,113.7,352.45,11.1a4.1,4.1,0,0,1,3.88-.07Z"></path> </g> <path class="cls-25" d="M370,18.9l-1.39-.81-142.72,115,12.87,7.42L370.3,20.82C371,20.22,370.83,19.41,370,18.9Z"></path> <g class="cls-1"> <path class="cls-31" d="M238.78,138.16a48.48,48.48,0,0,0-11.85-10.06l-12.55-7.24c-9.93-5.74-22.58-8.58-31.91-8-2.3-.08-9.58,4.58-13.53,8.56,9.34.15,19.2,3.16,29.13,8.89l12.55,7.24a48.45,48.45,0,0,1,11.84,10.06,74.5,74.5,0,0,1,6.3,8.34c3.86-5.79,10-10.56,15.05-10.21C241.81,142.71,241,140.65,238.78,138.16Z"></path> <path class="cls-26" d="M210.62,137.58l-12.55-7.24c-9.93-5.73-19.79-8.74-29.13-8.89L228.76,156C223.31,147.65,217,141.29,210.62,137.58Z"></path> </g> <path class="cls-32" d="M158.34,175.93c-8.9-3.55-18.06,4.73-16.29,10.85,1.85,2,21.15,13.67,25.44,14.55l9.12-14.68S177.53,184.86,158.34,175.93Z"></path> <path class="cls-33" d="M165.34,179.49c.13.15,2.31,4.77,1.31,4.62-5.81-.87-13.18,4.14-13.51,6.8,4.67,2.48,11.18,5.88,12.21,6.28L176,187.28a.81.81,0,0,0,0-1.18C174,184,170.12,182.18,165.34,179.49Z"></path> <path class="cls-23" d="M171.25,186.08A13.89,13.89,0,0,0,165,197c0,4,2.81,5.64,6.29,3.63a13.89,13.89,0,0,0,6.28-10.89C177.53,185.7,174.72,184.08,171.25,186.08Z"></path> <path class="cls-24" d="M171.25,186.88a12.34,12.34,0,0,0-5.6,9.7c0,3.57,2.5,5,5.6,3.23a12.4,12.4,0,0,0,5.6-9.7C176.85,186.54,174.34,185.09,171.25,186.88Z"></path> <g class="cls-1"> <polygon class="cls-25" points="162.17 176.78 163.49 176.02 167.97 183.34 166.65 184.11 162.17 176.78"></polygon> <path class="cls-23" d="M159.54,167.77l2.63,9,1.32-.77-2.18-7.46Z"></path> <path class="cls-26" d="M159.54,167.77c-3-1.32-6-2.54-9.07-3.75l-.9,12.36s10.44,5,17.08,7.73l-4.48-7.32Z"></path> </g> <path class="cls-34" d="M112.6,192.2c-8.9-3.55-18.06,4.73-16.3,10.85,1.86,2,21.15,13.67,25.44,14.54l9.12-14.67S131.79,201.13,112.6,192.2Z"></path> <path class="cls-35" d="M119.59,195.75c.13.16,2.32,4.78,1.31,4.63-5.81-.87-13.17,4.14-13.5,6.8,4.67,2.47,11.18,5.88,12.2,6.28l10.7-9.91a.82.82,0,0,0,0-1.18C128.22,200.27,124.37,198.45,119.59,195.75Z"></path> <path class="cls-23" d="M125.5,202.35a13.91,13.91,0,0,0-6.29,10.89c0,4,2.82,5.63,6.29,3.63A13.91,13.91,0,0,0,131.79,206C131.79,202,129,200.35,125.5,202.35Z"></path> <path class="cls-24" d="M125.5,203.14a12.4,12.4,0,0,0-5.6,9.7c0,3.57,2.51,5,5.6,3.24a12.4,12.4,0,0,0,5.6-9.7C131.1,202.81,128.59,201.36,125.5,203.14Z"></path> <g class="cls-1"> <polygon class="cls-25" points="116.43 193.05 117.75 192.28 122.22 199.61 120.9 200.38 116.43 193.05"></polygon> <path class="cls-23" d="M113.79,184l2.64,9,1.32-.76-2.18-7.46Z"></path> <path class="cls-26" d="M113.79,184c-3-1.33-6-2.54-9.06-3.75l-.91,12.36s10.45,5,17.08,7.73l-4.47-7.33Z"></path> </g> <g class="cls-1"> <path class="cls-23" d="M17.74,225.61a4.17,4.17,0,0,1-3.33-.19L.79,217.56a1.31,1.31,0,0,1-.78-1.1v2.21a1.33,1.33,0,0,0,.78,1.1l13.62,7.86a4.17,4.17,0,0,0,3.33.19l205.93-76.5v-2.21Z"></path> <path class="cls-30" d="M177.2,122.28c15.23,2.47,36.4,13.3,46.47,26.83L17.74,225.61a4.17,4.17,0,0,1-3.33-.19L.79,217.56c-1.09-.63-1-1.67.12-2.26Z"></path> </g> <g class="cls-1"> <path class="cls-23" d="M152.47,5l-37.2,33.07v1.54L152.46,6.55a.81.81,0,0,0,.3-.59V4.42A.83.83,0,0,1,152.47,5Z"></path> <polygon class="cls-29" points="115.27 38.08 115.27 39.62 99.14 30.3 99.14 28.77 115.27 38.08"></polygon> <path class="cls-30" d="M152.23,3.66c.61.35.7.92.24,1.35l-37.2,33.07L99.14,28.77,143.71.38a2.86,2.86,0,0,1,2.71-.07Z"></path> </g> <g class="cls-1"> <polygon class="cls-36" points="122.1 78.79 124.96 77.12 134.68 93.01 131.81 94.67 122.1 78.79"></polygon> <polygon class="cls-23" points="111.24 41.64 114.11 39.98 124.96 77.12 122.1 78.79 111.24 41.64"></polygon> <polygon class="cls-37" points="95.55 32.58 98.41 30.91 114.11 39.98 111.24 41.64 95.55 32.58"></polygon> <path class="cls-26" d="M122.1,78.79,111.24,41.64,95.55,32.58l2.89,45.85c9.8,3.23,21.23,9.15,33.37,16.24Z"></path> <path class="cls-38" d="M114.58,53.06l-3.34-11.42L95.55,32.58,97.43,62.4A116,116,0,0,1,114.58,53.06Z"></path> </g> <g class="cls-1"> <path class="cls-23" d="M92.53,26.14a.91.91,0,0,0-.64.15,2.54,2.54,0,0,0-1.12,2,.85.85,0,0,0,.19.59l4,4.74a2.18,2.18,0,0,1-.44-1.4,5.89,5.89,0,0,1,2.62-4.65,2.19,2.19,0,0,1,1.5-.36Z"></path> <path class="cls-39" d="M99.08,27.36a1.9,1.9,0,0,0-1.93.21,5.89,5.89,0,0,0-2.62,4.65,1.87,1.87,0,0,0,.79,1.7l16.81,9.65a1.89,1.89,0,0,1-.8-1.69A5.9,5.9,0,0,1,114,37.22a1.93,1.93,0,0,1,1.93-.21Z"></path> <path class="cls-40" d="M116.15,37.22a1.72,1.72,0,0,0-2.19,0,5.9,5.9,0,0,0-2.63,4.66c0,1,.45,1.64,1.11,1.81l4,1.07c-.46-.12-.77-.58-.78-1.3a4.22,4.22,0,0,1,1.87-3.33,1.25,1.25,0,0,1,1.57,0Z"></path> <path class="cls-23" d="M117.52,40.13a4.22,4.22,0,0,0-1.87,3.33c0,1.21.88,1.69,1.94,1.06a4.23,4.23,0,0,0,1.88-3.33C119.45,40,118.58,39.5,117.52,40.13Z"></path> <path class="cls-41" d="M117.53,40.69a3.17,3.17,0,0,0-1.4,2.48c0,.9.67,1.26,1.45.79a3.15,3.15,0,0,0,1.4-2.48C119,40.58,118.32,40.23,117.53,40.69Z"></path> </g> <g class="cls-1"> <path class="cls-23" d="M53.69,62.21a2.89,2.89,0,0,1-2.31-.14l-5.8-3.35A.93.93,0,0,1,45,58v1.54a.93.93,0,0,0,.55.77l5.79,3.35a2.91,2.91,0,0,0,2.32.14l57-21.67V40.55Z"></path> <path class="cls-30" d="M110.67,40.55l-57,21.66a2.89,2.89,0,0,1-2.31-.14l-5.8-3.35c-.76-.44-.73-1.16.08-1.57l48.9-25.91Z"></path> </g> <path class="cls-25" d="M12.69,224.43l1.72,1a4.17,4.17,0,0,0,3.33.19l205.93-76.5a53.93,53.93,0,0,0-9.14-9.34Z"></path> <path class="cls-42" d="M297.43,186.89a38.82,38.82,0,0,0-2.16-5.23c.5,4.88-8.46,7.92-16.55,6.32l-.67,5C292.24,194.66,297.09,189.69,297.43,186.89Z"></path> <path class="cls-43" d="M257.89,79.71l-7.36-3.34.39-.24,7,3.19,32.8-22.57-5.66-2.51.39-.25,5.74,2.55a.21.21,0,0,1,.11.16.21.21,0,0,1-.08.18L258.07,79.69C257.94,79.73,257.91,79.72,257.89,79.71Zm38.76-26.59c.11,0,35.49-24.37,35.49-24.37a.21.21,0,0,0,.08-.18.23.23,0,0,0-.11-.16l-3.95-1.75-.39.25,3.87,1.72-35,24.08-5.39-2.4-.39.24,5.72,2.55ZM32.75,203.34c.09,0,44.45-22.12,44.45-22.12a.17.17,0,0,0,.1-.18.18.18,0,0,0-.11-.17l-6-2.66-.43.23,5.88,2.62L32.75,202.94l-4.52-2.05-.43.22,4.87,2.22Zm51-25.4c.09,0,36.22-18,36.22-18a.18.18,0,0,0,0-.34l-7.27-3.24-.43.23,7.18,3.19L83.73,177.53l-6.1-2.71-.43.23,6.45,2.87Z"></path> <path class="cls-44" d="M98.44,78.43c9.8,3.23,21.23,9.15,33.37,16.24L122.1,78.79,97.7,66.68Z"></path> </g> </g> </g> </svg> 