<?xml version="1.0" encoding="UTF-8"?> <svg xmlns="http://www.w3.org/2000/svg" width="193" height="193" viewBox="0 0 193 193" fill="none"> <path opacity="0.1" d="M82.99 113.87L62.0012 92.8812C60.2321 91.1121 58.0608 90.2275 55.4875 90.2275C52.9142 90.2275 50.6625 91.1925 48.7325 93.1225C46.9633 94.8917 46.0787 97.1433 46.0787 99.8775C46.0787 102.612 46.9633 104.863 48.7325 106.632L76.235 134.135C78.0042 135.904 80.2558 136.789 82.99 136.789C85.7242 136.789 87.9758 135.904 89.745 134.135L144.509 79.3713C146.278 77.6021 147.162 75.4308 147.162 72.8575C147.162 70.2842 146.198 68.0325 144.268 66.1025C142.498 64.3333 140.247 63.4487 137.512 63.4487C134.778 63.4487 132.527 64.3333 130.757 66.1025L82.99 113.87ZM96.5 193C83.1508 193 70.6058 190.465 58.865 185.396C47.1242 180.333 36.9113 173.459 28.2263 164.774C19.5413 156.089 12.6672 145.876 7.6042 134.135C2.53473 122.394 0 109.849 0 96.5C0 83.1508 2.53473 70.6058 7.6042 58.865C12.6672 47.1242 19.5413 36.9113 28.2263 28.2263C36.9113 19.5413 47.1242 12.664 58.865 7.59455C70.6058 2.53152 83.1508 0 96.5 0C109.849 0 122.394 2.53152 134.135 7.59455C145.876 12.664 156.089 19.5413 164.774 28.2263C173.459 36.9113 180.333 47.1242 185.396 58.865C190.465 70.6058 193 83.1508 193 96.5C193 109.849 190.465 122.394 185.396 134.135C180.333 145.876 173.459 156.089 164.774 164.774C156.089 173.459 145.876 180.333 134.135 185.396C122.394 190.465 109.849 193 96.5 193Z" fill="#970825"></path> <path d="M81.9112 113.87L60.9225 92.8812C59.1533 91.1121 56.9821 90.2275 54.4087 90.2275C51.8354 90.2275 49.5837 91.1925 47.6537 93.1225C45.8846 94.8916 45 97.1433 45 99.8775C45 102.612 45.8846 104.863 47.6537 106.632L75.1562 134.135C76.9254 135.904 79.1771 136.789 81.9112 136.789C84.6454 136.789 86.8971 135.904 88.6662 134.135L143.43 79.3712C145.199 77.6021 146.084 75.4308 146.084 72.8575C146.084 70.2841 145.119 68.0325 143.189 66.1025C141.42 64.3333 139.168 63.4487 136.434 63.4487C133.7 63.4487 131.448 64.3333 129.679 66.1025L81.9112 113.87Z" fill="#970825"></path> </svg> 