<?xml version="1.0" encoding="UTF-8"?> <svg xmlns="http://www.w3.org/2000/svg" width="73" height="187" viewBox="0 0 73 187" fill="none"> <g clip-path="url(#clip0_4_50)"> <path d="M56.3938 136.971H32.3875V93.6875C32.3875 92.8893 32.3875 91.4326 32.3875 89.3173C32.3875 87.1621 32.4075 84.7874 32.4474 82.1932C32.5272 79.5991 32.627 77.2643 32.7467 75.1889C31.7091 76.4262 30.7312 77.4838 29.8133 78.3618C28.9353 79.2399 28.0772 80.058 27.2391 80.8163L17.3013 89.018L5.02875 73.9317L35.0815 49.4465H56.3938V136.971Z" fill="#F2F2F2"></path> <g clip-path="url(#clip1_4_50)"> <path d="M46.5469 75.2891C46.1588 75.2891 45.8438 75.6041 45.8438 75.9922C45.8438 76.3803 46.1588 76.6953 46.5469 76.6953C46.935 76.6953 47.25 76.3803 47.25 75.9922C47.25 75.6041 46.935 75.2891 46.5469 75.2891Z" fill="#8A1D29"></path> <path d="M71.2969 92.375H68.7656V65.5156C68.7656 63.5771 67.1885 62 65.25 62H39.5156C37.5771 62 36 63.5771 36 65.5156V68.3281C36 68.7164 36.3149 69.0312 36.7031 69.0312H41.625V94.4844C41.625 96.4229 43.2021 98 45.1406 98H68.4844C70.4229 98 72 96.4229 72 94.4844V93.0781C72 92.6899 71.6851 92.375 71.2969 92.375ZM41.625 67.625H37.4062V65.5156C37.4062 64.3525 38.3525 63.4062 39.5156 63.4062C40.0787 63.4062 40.6083 63.6258 41.0069 64.0243C41.4055 64.423 41.625 64.9526 41.625 65.5156V67.625ZM47.25 93.0781V94.4844C47.25 95.6475 46.3037 96.5938 45.1406 96.5938C43.9775 96.5938 43.0312 95.6475 43.0312 94.4844V68.3281V65.5156C43.0312 64.7447 42.784 64.0117 42.3278 63.4062H65.25C66.4131 63.4062 67.3594 64.3525 67.3594 65.5156V92.375H64.5469V89.892C65.4441 89.0925 65.9531 87.967 65.9531 86.75C65.9531 84.4238 64.0606 82.5312 61.7344 82.5312C60.4878 82.5312 59.3663 83.0751 58.5933 83.9375H46.5469C46.1586 83.9375 45.8438 84.2524 45.8438 84.6406C45.8438 85.0289 46.1586 85.3438 46.5469 85.3438H57.7575C57.6014 85.7839 57.5156 86.257 57.5156 86.75C57.5156 87.2385 57.5983 87.7122 57.7543 88.1562H46.5469C46.1586 88.1562 45.8438 88.4711 45.8438 88.8594C45.8438 89.2476 46.1586 89.5625 46.5469 89.5625H58.2188C58.3294 89.5625 58.4336 89.5362 58.5267 89.4907C58.6484 89.6321 58.7804 89.7659 58.9219 89.892V92.375H47.9531C47.5649 92.375 47.25 92.6899 47.25 93.0781ZM61.7344 89.5625C61.1207 89.5625 60.538 89.3683 60.0491 89.001C60.0484 89.0004 60.0476 88.9998 60.0467 88.9992C59.3319 88.4624 58.9219 87.6427 58.9219 86.75C58.9219 85.1992 60.1836 83.9375 61.7344 83.9375C63.2852 83.9375 64.5469 85.1992 64.5469 86.75C64.5469 87.6428 64.1367 88.4627 63.421 88.9999C62.9319 89.3679 62.3486 89.5625 61.7344 89.5625ZM63.1406 90.7286V93.9566L62.1244 93.2791C61.8882 93.1216 61.5806 93.1216 61.3444 93.2791L60.3281 93.9566V90.7285C60.7749 90.8866 61.2481 90.9688 61.7344 90.9688C62.2207 90.9688 62.6939 90.8866 63.1406 90.7286ZM70.5938 94.4844C70.5938 95.6475 69.6475 96.5938 68.4844 96.5938H47.9512C48.3936 96.0057 48.6562 95.2753 48.6562 94.4844V93.7812H58.9219V95.2705C58.9219 95.5298 59.0646 95.768 59.2932 95.8903C59.5219 96.0128 59.7993 95.9993 60.015 95.8555L61.7344 94.7092L63.4537 95.8555C63.5714 95.9339 63.7073 95.9736 63.8438 95.9736C63.9575 95.9736 64.0716 95.946 64.1756 95.8903C64.4041 95.768 64.5469 95.5297 64.5469 95.2705V93.7812H70.5938V94.4844Z" fill="#8A1D29"></path> <path d="M58.2188 66.2188H50.7656C50.3774 66.2188 50.0625 66.5336 50.0625 66.9219C50.0625 67.3101 50.3774 67.625 50.7656 67.625H58.2188C58.607 67.625 58.9219 67.3101 58.9219 66.9219C58.9219 66.5336 58.607 66.2188 58.2188 66.2188Z" fill="#8A1D29"></path> <path d="M63.8438 75.2891H49.3594C48.9711 75.2891 48.6562 75.6039 48.6562 75.9922C48.6562 76.3805 48.9711 76.6953 49.3594 76.6953H63.8438C64.232 76.6953 64.5469 76.3805 64.5469 75.9922C64.5469 75.6039 64.232 75.2891 63.8438 75.2891Z" fill="#8A1D29"></path> <path d="M63.8438 79.7188H46.5469C46.1586 79.7188 45.8438 80.0336 45.8438 80.4219C45.8438 80.8101 46.1586 81.125 46.5469 81.125H63.8438C64.232 81.125 64.5469 80.8101 64.5469 80.4219C64.5469 80.0336 64.232 79.7188 63.8438 79.7188Z" fill="#8A1D29"></path> <path d="M63.8438 70.6484H46.5469C46.1586 70.6484 45.8438 70.9633 45.8438 71.3516C45.8438 71.7398 46.1586 72.0547 46.5469 72.0547H63.8438C64.232 72.0547 64.5469 71.7398 64.5469 71.3516C64.5469 70.9633 64.232 70.6484 63.8438 70.6484Z" fill="#8A1D29"></path> </g> </g> <defs> <clipPath id="clip0_4_50"> <rect width="73" height="187" fill="white"></rect> </clipPath> <clipPath id="clip1_4_50"> <rect width="36" height="36" fill="white" transform="translate(36 62)"></rect> </clipPath> </defs> </svg> 