<?xml version="1.0" encoding="UTF-8"?> <svg xmlns="http://www.w3.org/2000/svg" width="73" height="187" viewBox="0 0 73 187" fill="none"> <g clip-path="url(#clip0_4_66)"> <path d="M64.2363 68.4241C64.2363 72.5748 63.3383 76.1667 61.5423 79.1999C59.7862 82.1932 57.4315 84.6478 54.4781 86.5635C51.5646 88.4792 48.3718 89.916 44.8996 90.8738V91.233C51.8839 92.1111 57.2719 94.2463 61.0634 97.6387C64.8948 100.991 66.8105 105.761 66.8105 111.947C66.8105 116.736 65.5334 121.126 62.9791 125.117C60.4248 129.068 56.4537 132.241 51.0658 134.636C45.6778 136.991 38.7533 138.168 30.2922 138.168C24.6249 138.168 19.7957 137.749 15.8046 136.911C11.8136 136.073 7.94223 134.915 4.19062 133.439V113.803C7.98214 115.758 11.8734 117.215 15.8645 118.173C19.8955 119.091 23.5673 119.55 26.8799 119.55C32.627 119.55 36.5383 118.732 38.6136 117.095C40.7289 115.459 41.7865 113.264 41.7865 110.51C41.7865 108.514 41.2876 106.818 40.2899 105.421C39.2921 104.024 37.4362 102.947 34.7223 102.189C32.0483 101.43 28.1969 101.051 23.1682 101.051H17.7802V83.2708H23.2879C27.7579 83.2708 31.29 82.8717 33.8842 82.0735C36.5183 81.2753 38.4141 80.1977 39.5715 78.8407C40.7289 77.4439 41.3076 75.8474 41.3076 74.0515C41.3076 71.7366 40.4096 70.0205 38.6136 68.903C36.8176 67.7855 34.4429 67.2267 31.4896 67.2267C28.8554 67.2267 26.381 67.5859 24.0662 68.3043C21.7513 69.0227 19.7358 69.8209 18.0197 70.699C16.3035 71.577 15.0064 72.2954 14.1284 72.8541L4.31036 57.0495C7.94223 54.575 12.0929 52.4797 16.7625 50.7636C21.472 49.0474 27.6182 48.1893 35.2012 48.1893C44.2211 48.1893 51.3052 49.9853 56.4537 53.5773C61.6421 57.1692 64.2363 62.1182 64.2363 68.4241Z" fill="#F2F2F2"></path> <path d="M59.8 101H38.04C36.9067 101 36 100.093 36 98.96V69.04C36 67.9067 36.9067 67 38.04 67H59.8C60.9333 67 61.84 67.9067 61.84 69.04V98.96C61.84 100.093 60.9333 101 59.8 101Z" stroke="#8A1D29" stroke-width="1.7" stroke-miterlimit="10" stroke-linecap="round" stroke-linejoin="round"></path> <path d="M40.6466 71.6467H50.7333" stroke="#8A1D29" stroke-width="1.7" stroke-miterlimit="10" stroke-linecap="round" stroke-linejoin="round"></path> <path d="M40.6466 76.1802H54.1333" stroke="#8A1D29" stroke-width="1.7" stroke-miterlimit="10" stroke-linecap="round" stroke-linejoin="round"></path> <path d="M40.6466 80.8267H57.1933" stroke="#8A1D29" stroke-width="1.7" stroke-miterlimit="10" stroke-linecap="round" stroke-linejoin="round"></path> <path d="M40.6466 85.4734H57.1933" stroke="#8A1D29" stroke-width="1.7" stroke-miterlimit="10" stroke-linecap="round" stroke-linejoin="round"></path> <path d="M69.0933 70.3999V95.7866L67.0533 100.093L65.0133 95.7866V70.3999H69.0933Z" stroke="#8A1D29" stroke-width="1.7" stroke-miterlimit="10" stroke-linecap="round" stroke-linejoin="round"></path> <path d="M65.0133 70.4V68.36C65.0133 67.68 65.58 67 66.3733 67H67.7333C68.5266 67 69.0933 67.68 69.0933 68.36V70.4H65.0133Z" stroke="#8A1D29" stroke-width="1.7" stroke-miterlimit="10" stroke-linecap="round" stroke-linejoin="round"></path> <path d="M43.8199 96.3535C45.5725 96.3535 46.9933 94.9328 46.9933 93.1802C46.9933 91.4276 45.5725 90.0068 43.8199 90.0068C42.0674 90.0068 40.6466 91.4276 40.6466 93.1802C40.6466 94.9328 42.0674 96.3535 43.8199 96.3535Z" stroke="#8A1D29" stroke-width="1.7" stroke-miterlimit="10" stroke-linecap="round" stroke-linejoin="round"></path> <path d="M54.1333 96.3535C55.8859 96.3535 57.3066 94.9328 57.3066 93.1802C57.3066 91.4276 55.8859 90.0068 54.1333 90.0068C52.3807 90.0068 50.96 91.4276 50.96 93.1802C50.96 94.9328 52.3807 96.3535 54.1333 96.3535Z" stroke="#8A1D29" stroke-width="1.7" stroke-miterlimit="10" stroke-linecap="round" stroke-linejoin="round"></path> </g> <defs> <clipPath id="clip0_4_66"> <rect width="73" height="187" fill="white"></rect> </clipPath> </defs> </svg> 