<?xml version="1.0" encoding="UTF-8"?> <svg xmlns="http://www.w3.org/2000/svg" width="73" height="187" viewBox="0 0 73 187" fill="none"> <g clip-path="url(#clip0_4_41)"> <path d="M67.1697 136.971H3.65183V121.406L25.024 99.7939C29.4541 95.1642 32.8864 91.4525 35.321 88.6588C37.7954 85.865 39.5316 83.4903 40.5293 81.5347C41.5271 79.5791 42.026 77.5437 42.026 75.4284C42.026 72.8342 41.1879 70.9584 39.5116 69.801C37.8354 68.6436 35.8598 68.0649 33.5849 68.0649C30.831 68.0649 28.0373 68.8631 25.2036 70.4595C22.4099 72.016 19.237 74.3308 15.6849 77.404L2.69397 62.198C5.32808 59.8432 8.12183 57.6082 11.0752 55.493C14.0286 53.3378 17.5208 51.5817 21.5518 50.2248C25.5828 48.8678 30.4918 48.1893 36.2788 48.1893C42.2255 48.1893 47.374 49.227 51.7243 51.3024C56.1145 53.3777 59.5069 56.2313 61.9015 59.8632C64.2962 63.4552 65.4935 67.546 65.4935 72.1357C65.4935 77.2044 64.5556 81.7343 62.6798 85.7253C60.8439 89.6765 58.0701 93.6476 54.3584 97.6387C50.6467 101.59 46.0171 106.08 40.4695 111.109L34.0638 116.856V117.454H67.1697V136.971Z" fill="#F2F2F2"></path> <path d="M68.75 59H44.05C43.8776 59 43.7123 59.0685 43.5904 59.1904C43.4685 59.3123 43.4 59.4776 43.4 59.65V64.85H38.2C38.0276 64.85 37.8623 64.9185 37.7404 65.0404C37.6185 65.1623 37.55 65.3276 37.55 65.5V90.2H33.65C33.4776 90.2 33.3123 90.2685 33.1904 90.3904C33.0685 90.5123 33 90.6776 33 90.85V93.45C33.0013 94.6563 33.4811 95.8129 34.3341 96.6659C35.1871 97.5189 36.3437 97.9987 37.55 98H60.3C61.1616 97.999 61.9877 97.6562 62.597 97.047C63.2063 96.4377 63.549 95.6116 63.55 94.75V92.15H68.75C68.9224 92.15 69.0877 92.0815 69.2096 91.9596C69.3315 91.8377 69.4 91.6724 69.4 91.5V59.65C69.4 59.4776 69.3315 59.3123 69.2096 59.1904C69.0877 59.0685 68.9224 59 68.75 59ZM37.55 96.7C36.6884 96.699 35.8623 96.3562 35.253 95.747C34.6438 95.1377 34.301 94.3116 34.3 93.45V91.5H57.05V94.75C57.0514 94.9523 57.0718 95.154 57.1109 95.3524C57.1227 95.4153 57.1418 95.4747 57.1572 95.5362C57.1891 95.6669 57.2291 95.7956 57.277 95.9213C57.303 95.9874 57.331 96.0513 57.3609 96.1151C57.4154 96.2313 57.4767 96.3442 57.5445 96.4531C57.5796 96.5097 57.6128 96.5666 57.6512 96.6208C57.6693 96.6464 57.6828 96.6751 57.7016 96.7001L37.55 96.7ZM62.25 94.75C62.25 95.2672 62.0446 95.7632 61.6789 96.1289C61.3132 96.4946 60.8172 96.7 60.3 96.7C59.7828 96.7 59.2868 96.4946 58.9211 96.1289C58.5554 95.7632 58.35 95.2672 58.35 94.75V90.85C58.35 90.6776 58.2815 90.5123 58.1596 90.3904C58.0377 90.2685 57.8724 90.2 57.7 90.2H38.85V66.15H62.25V94.75ZM68.1 90.85H63.55V65.5C63.55 65.3276 63.4815 65.1623 63.3596 65.0404C63.2377 64.9185 63.0724 64.85 62.9 64.85H44.7V60.3H68.1V90.85Z" fill="#8A1D29"></path> <path d="M57.7 69.3999H43.4C43.2276 69.3999 43.0623 69.4684 42.9404 69.5903C42.8185 69.7122 42.75 69.8775 42.75 70.0499V73.9499C42.75 74.1223 42.8185 74.2876 42.9404 74.4095C43.0623 74.5314 43.2276 74.5999 43.4 74.5999H57.7C57.8724 74.5999 58.0377 74.5314 58.1596 74.4095C58.2815 74.2876 58.35 74.1223 58.35 73.9499V70.0499C58.35 69.8775 58.2815 69.7122 58.1596 69.5903C58.0377 69.4684 57.8724 69.3999 57.7 69.3999ZM57.05 73.2999H44.05V70.6999H57.05V73.2999Z" fill="#8A1D29"></path> <path d="M57.7 77.2H46C45.8276 77.2 45.6623 77.2684 45.5404 77.3903C45.4185 77.5122 45.35 77.6776 45.35 77.85C45.35 78.0223 45.4185 78.1877 45.5404 78.3096C45.6623 78.4315 45.8276 78.5 46 78.5H57.7C57.8724 78.5 58.0377 78.4315 58.1596 78.3096C58.2815 78.1877 58.35 78.0223 58.35 77.85C58.35 77.6776 58.2815 77.5122 58.1596 77.3903C58.0377 77.2684 57.8724 77.2 57.7 77.2Z" fill="#8A1D29"></path> <path d="M57.7 81.1001H43.4C43.2276 81.1001 43.0623 81.1686 42.9404 81.2905C42.8185 81.4124 42.75 81.5777 42.75 81.7501C42.75 81.9225 42.8185 82.0878 42.9404 82.2097C43.0623 82.3316 43.2276 82.4001 43.4 82.4001H57.7C57.8724 82.4001 58.0377 82.3316 58.1596 82.2097C58.2815 82.0878 58.35 81.9225 58.35 81.7501C58.35 81.5777 58.2815 81.4124 58.1596 81.2905C58.0377 81.1686 57.8724 81.1001 57.7 81.1001Z" fill="#8A1D29"></path> <path d="M57.7 85H43.4C43.2276 85 43.0623 85.0685 42.9404 85.1904C42.8185 85.3123 42.75 85.4776 42.75 85.65C42.75 85.8224 42.8185 85.9877 42.9404 86.1096C43.0623 86.2315 43.2276 86.3 43.4 86.3H57.7C57.8724 86.3 58.0377 86.2315 58.1596 86.1096C58.2815 85.9877 58.35 85.8224 58.35 85.65C58.35 85.4776 58.2815 85.3123 58.1596 85.1904C58.0377 85.0685 57.8724 85 57.7 85Z" fill="#8A1D29"></path> </g> <defs> <clipPath id="clip0_4_41"> <rect width="73" height="187" fill="white"></rect> </clipPath> </defs> </svg> 