<?xml version="1.0" encoding="UTF-8"?> <svg xmlns="http://www.w3.org/2000/svg" width="1001" height="667" viewBox="0 0 1001 667" fill="none"> <path d="M951.3 176.867L774.867 31.1C750.5 11.0333 719.767 0 688.233 0H268.9C223.667 0 183 24.9333 162.767 65.0333L161.933 66.6667H16.6667C7.46667 66.6667 0 74.1333 0 83.3333C0 92.5333 7.46667 100 16.6667 100H145.1L94.7 200H16.7C7.5 200 0.0333333 207.467 0.0333333 216.667C0.0333333 225.867 7.5 233.333 16.7 233.333H77.9L27.4667 333.333H16.6667C7.46667 333.333 0 340.8 0 350C0 357.367 4.9 363.433 11.5333 365.633C4.2 381.167 0.0333333 398.3 0.0333333 415.533C0.0333333 480.5 53.3 533.333 118.733 533.333H133.367C133.367 606.867 193.167 666.667 266.7 666.667C340.233 666.667 400.033 606.867 400.033 533.333H600.033C600.033 606.867 659.833 666.667 733.367 666.667C806.9 666.667 866.7 606.867 866.7 533.333C866.7 532.8 866.567 532.333 866.533 531.833C868.6 532.767 870.9 533.333 873.333 533.333C895.667 533.333 915.8 521 925.833 501.167L966.767 420.033C988.533 376.833 1000.07 328.467 1000.07 280.167C1000.07 240.133 982.267 202.5 951.3 176.867ZM266.667 633.333C211.533 633.333 166.667 588.467 166.667 533.333C166.667 478.2 211.533 433.333 266.667 433.333C321.8 433.333 366.667 478.2 366.667 533.333C366.667 588.467 321.8 633.333 266.667 633.333ZM733.333 633.333C678.2 633.333 633.333 588.467 633.333 533.333C633.333 478.2 678.2 433.333 733.333 433.333C788.467 433.333 833.333 478.2 833.333 533.333C833.333 588.467 788.467 633.333 733.333 633.333ZM936.967 404.967L896.033 486.1C891.733 494.7 883 500 873.333 500C869.433 500 866 501.567 863.133 503.8C849.633 444.5 796.7 400 733.333 400C671.367 400 619.633 442.633 604.733 500H395.267C380.367 442.633 328.633 400 266.667 400C204.7 400 152.967 442.633 138.067 500H118.733C71.6333 500 33.3667 462.1 33.3667 415.533C33.3667 402.467 36.4667 389.467 42.3667 377.833L47.9667 366.667H150C159.2 366.667 166.667 359.2 166.667 350C166.667 340.8 159.2 333.333 150 333.333H64.8L115.233 233.333H216.7C225.9 233.333 233.367 225.867 233.367 216.667C233.367 207.467 225.867 200 216.667 200H132.033L182.467 100H316.7C325.9 100 333.367 92.5333 333.367 83.3333C333.367 74.1333 325.867 66.6667 316.667 66.6667H201.8C217.767 46.1 241.9 33.3333 268.867 33.3333H688.2C712.033 33.3333 735.233 41.6667 753.6 56.8L930.033 202.567C953.367 221.8 966.7 250.1 966.7 280.133C966.733 323.267 956.4 366.433 936.967 404.967Z" fill="#970825"></path> <path d="M693.399 103.299C688.799 99.8992 682.733 99.0325 677.433 101.099C672.066 103.099 668.133 107.766 667.033 113.399L633.699 280.066C632.666 285.166 634.066 290.466 637.533 294.366C640.699 297.932 645.233 299.999 649.999 299.999C650.399 299.999 650.766 299.999 651.233 299.932L884.566 283.266C891.533 282.766 897.433 277.999 899.366 271.333C901.299 264.666 898.933 257.499 893.366 253.299L693.399 103.299ZM670.633 265.133L694.499 145.866L837.633 253.232L670.633 265.133Z" fill="#970825"></path> </svg> 