<?xml version="1.0" encoding="UTF-8"?> <svg xmlns="http://www.w3.org/2000/svg" width="968" height="826" viewBox="0 0 968 826" fill="none"> <path d="M867.4 165.368H584.067C574.867 165.368 567.4 172.756 567.4 181.859C567.4 190.963 574.867 198.351 584.067 198.351H867.4C904.167 198.351 934.067 227.936 934.067 264.316V726.07C934.067 762.45 904.167 792.035 867.4 792.035H100.733C63.9667 792.035 34.0667 762.45 34.0667 726.07V264.316C34.0667 227.936 63.9667 198.351 100.733 198.351H384.067C393.267 198.351 400.733 190.963 400.733 181.859C400.733 172.756 393.267 165.368 384.067 165.368H100.733C45.6001 165.368 0.733398 209.763 0.733398 264.316V726.07C0.733398 780.623 45.6001 825.017 100.733 825.017H867.4C922.533 825.017 967.4 780.623 967.4 726.07V264.316C967.4 209.763 922.533 165.368 867.4 165.368Z" fill="#970825"></path> <path d="M840.366 267.811L524.266 514.751C499.366 532.561 452.1 532.561 427.7 515.179L111.033 267.811C103.833 262.204 93.3662 263.424 87.6329 270.549C81.9329 277.706 83.1662 288.095 90.3995 293.735L407.633 541.532C426.033 554.659 450.7 561.256 475.5 561.256C500.5 561.256 525.566 554.561 544.333 541.104L861 293.735C868.233 288.062 869.466 277.706 863.766 270.549C858.066 263.391 847.566 262.204 840.366 267.811Z" fill="#970825"></path> <path d="M305.6 533.024L105.6 730.919C99.1005 737.35 99.1005 747.806 105.6 754.237C108.867 757.437 113.134 759.053 117.4 759.053C121.667 759.053 125.934 757.437 129.167 754.237L329.167 556.343C335.667 549.911 335.667 539.455 329.167 533.024C322.667 526.592 312.1 526.592 305.6 533.024Z" fill="#970825"></path> <path d="M638.934 533.024C632.434 539.455 632.434 549.911 638.934 556.343L838.934 754.237C842.201 757.437 846.467 759.053 850.734 759.053C855.001 759.053 859.267 757.437 862.501 754.237C869.001 747.806 869.001 737.35 862.501 730.919L662.501 533.024C656.001 526.592 645.434 526.592 638.934 533.024Z" fill="#970825"></path> <path d="M388.933 252.673C382.433 259.104 382.433 269.56 388.933 275.991L472.266 358.448C473.833 359.998 475.666 361.152 477.6 361.944C477.633 361.944 477.666 362.01 477.7 362.01H477.733C479.766 362.834 481.9 363.263 484.066 363.263C486.2 363.263 488.366 362.834 490.366 362.043C492.366 361.218 494.233 360.031 495.833 358.448L579.167 275.991C585.667 269.56 585.667 259.104 579.167 252.673C572.667 246.241 562.1 246.241 555.6 252.673L500.733 306.962V16.9473C500.733 7.84412 493.266 0.456055 484.066 0.456055C474.866 0.456055 467.4 7.84412 467.4 16.9473V306.995L412.5 252.673C406 246.241 395.433 246.241 388.933 252.673Z" fill="#970825"></path> </svg> 