<?xml version="1.0" encoding="UTF-8"?> <svg xmlns="http://www.w3.org/2000/svg" width="884" height="990" viewBox="0 0 884 990" fill="none"> <path d="M878.834 631.483L795.501 549.027C789.001 542.595 778.434 542.595 771.934 549.027L438.601 878.851C435.501 881.952 433.734 886.14 433.734 890.527V972.983C433.734 982.086 441.201 989.474 450.401 989.474H533.734C538.167 989.474 542.401 987.726 545.501 984.626L795.401 737.356C795.434 737.323 795.467 737.323 795.501 737.29C795.534 737.257 795.534 737.224 795.567 737.192L878.834 654.801C885.334 648.37 885.334 637.914 878.834 631.483ZM526.834 956.492H467.067V897.354L700.401 666.477L760.167 725.615L526.834 956.492ZM783.734 702.296L723.967 643.159L783.734 584.021L843.501 643.159L783.734 702.296Z" fill="#970825"></path> <path d="M350.4 956.491H58.7335C44.9668 956.491 33.7335 945.376 33.7335 931.754V156.667C33.7335 143.045 44.9668 131.93 58.7335 131.93H167.067V148.421C167.067 157.524 174.533 164.912 183.733 164.912H550.4C559.6 164.912 567.067 157.524 567.067 148.421V131.93H675.4C689.167 131.93 700.4 143.045 700.4 156.667V511.228C700.4 520.331 707.867 527.719 717.067 527.719C726.267 527.719 733.734 520.331 733.734 511.228V156.667C733.734 124.839 707.567 98.9474 675.4 98.9474H565.4C557.667 61.3474 524 32.9825 483.734 32.9825H424.6C412.8 12.8961 390.967 0 367.067 0C343.167 0 321.334 12.8961 309.534 32.9825H250.4C210.133 32.9825 176.5 61.3474 168.733 98.9474H58.7335C26.5668 98.9474 0.400146 124.839 0.400146 156.667V931.754C0.400146 963.582 26.5668 989.474 58.7335 989.474H350.4C359.6 989.474 367.067 982.086 367.067 972.982C367.067 963.879 359.6 956.491 350.4 956.491ZM250.4 65.9649H320.1C327.167 65.9649 333.467 61.5782 335.8 55.0147C340.567 41.8547 353.134 32.9825 367.067 32.9825C381 32.9825 393.567 41.8547 398.3 55.0147C400.667 61.5782 406.934 65.9649 414 65.9649H483.734C511.3 65.9649 533.734 88.1621 533.734 115.439V131.93H200.4V115.439C200.4 88.1621 222.833 65.9649 250.4 65.9649Z" fill="#970825"></path> </svg> 