<?xml version="1.0" encoding="UTF-8"?> <svg xmlns="http://www.w3.org/2000/svg" width="1001" height="1000" viewBox="0 0 1001 1000" fill="none"> <path d="M150.733 0C68.0334 0 0.733398 67.3 0.733398 150C0.733398 226.633 123.067 405.967 137.033 426.133C140.133 430.633 145.267 433.333 150.733 433.333C156.2 433.333 161.333 430.633 164.433 426.133C178.4 405.967 300.733 226.633 300.733 150C300.733 67.3 233.433 0 150.733 0ZM150.733 386.833C108.8 323.433 34.0667 200.033 34.0667 150C34.0667 85.6667 86.4001 33.3333 150.733 33.3333C215.067 33.3333 267.4 85.6667 267.4 150C267.4 200 192.667 323.4 150.733 386.833Z" fill="#970825"></path> <path d="M817.4 400C716.333 400 634.067 485.667 634.067 591C634.067 690.567 795.967 979.267 802.867 991.5C805.833 996.733 811.367 1000 817.4 1000C823.433 1000 828.967 996.733 831.933 991.5C838.833 979.233 1000.73 690.533 1000.73 591C1000.73 485.667 918.467 400 817.4 400ZM817.4 948.867C765.1 852.833 667.4 659.433 667.4 591C667.4 504.067 734.7 433.333 817.4 433.333C900.1 433.333 967.4 504.067 967.4 591C967.4 659.367 869.7 852.833 817.4 948.867Z" fill="#970825"></path> <path d="M446.765 479.8C434.665 457.367 420.165 438.9 402.498 423.267C395.565 417.167 385.065 417.867 378.965 424.734C372.865 431.634 373.531 442.167 380.431 448.267C395.098 461.234 407.198 476.734 417.398 495.634C420.398 501.234 426.131 504.4 432.065 504.4C434.765 504.4 437.498 503.734 439.998 502.4C448.098 498 451.131 487.9 446.765 479.8Z" fill="#970825"></path> <path d="M340.964 386.533C320.731 378.699 297.831 373.099 272.898 369.933C263.798 368.666 255.398 375.199 254.231 384.366C253.064 393.533 259.564 401.866 268.664 403.033C290.931 405.866 311.231 410.799 328.931 417.633C330.931 418.399 332.931 418.766 334.964 418.766C341.664 418.766 347.964 414.699 350.464 408.066C353.831 399.499 349.564 389.866 340.964 386.533Z" fill="#970825"></path> <path d="M750.699 966.667C727.799 966.667 706.432 965.167 687.199 962.2C677.932 960.9 669.599 967.067 668.199 976.134C666.799 985.234 673.065 993.734 682.132 995.134C703.065 998.367 726.132 1000 750.732 1000C759.932 1000 767.365 992.534 767.365 983.334C767.365 974.134 759.899 966.667 750.699 966.667Z" fill="#970825"></path> <path d="M627.3 946.135C607.8 938.102 590.634 927.435 576.2 914.435C569.367 908.202 558.834 908.835 552.667 915.635C546.467 922.502 547.034 933.002 553.867 939.168C571.134 954.735 591.567 967.435 614.534 976.935C616.6 977.802 618.8 978.202 620.9 978.202C627.467 978.202 633.667 974.302 636.334 967.902C639.834 959.368 635.8 949.635 627.3 946.135Z" fill="#970825"></path> <path d="M489.335 764.033C498.435 762.6 504.668 754.067 503.234 745C499.834 723.4 497.168 701.367 494.501 679.334C493.401 670.134 484.968 663.5 475.968 664.767C466.801 665.867 460.301 674.167 461.401 683.3C464.068 705.734 466.801 728.167 470.268 750.134C471.568 758.367 478.668 764.234 486.701 764.234C487.568 764.234 488.435 764.167 489.335 764.033Z" fill="#970825"></path> <path d="M516.466 808.402C514.033 799.502 504.833 794.402 495.966 796.735C487.066 799.202 481.866 808.335 484.3 817.235C491.166 842.102 499.533 863.501 509.9 882.635C512.866 888.201 518.6 891.368 524.533 891.368C527.233 891.368 529.933 890.735 532.5 889.368C540.566 885.001 543.599 874.868 539.199 866.768C530.066 849.902 522.633 830.802 516.466 808.402Z" fill="#970825"></path> <path d="M471.832 631.567C480.898 630.167 487.165 621.667 485.765 612.567C481.732 586.2 477.398 564.833 472.098 545.367C469.698 536.5 460.698 531.3 451.665 533.634C442.765 536.034 437.532 545.167 439.932 554.067C444.898 572.3 448.998 592.467 452.832 617.6C454.098 625.833 461.198 631.733 469.265 631.733C470.098 631.733 470.932 631.667 471.832 631.567Z" fill="#970825"></path> <path d="M150.733 100C123.167 100 100.733 122.433 100.733 150C100.733 177.567 123.167 200 150.733 200C178.3 200 200.733 177.567 200.733 150C200.733 122.433 178.3 100 150.733 100ZM150.733 166.667C141.567 166.667 134.067 159.167 134.067 150C134.067 140.833 141.567 133.333 150.733 133.333C159.9 133.333 167.4 140.833 167.4 150C167.4 159.167 159.9 166.667 150.733 166.667Z" fill="#970825"></path> <path d="M817.4 500C771.433 500 734.067 537.367 734.067 583.333C734.067 629.3 771.433 666.667 817.4 666.667C863.367 666.667 900.733 629.3 900.733 583.333C900.733 537.367 863.367 500 817.4 500ZM817.4 633.333C789.833 633.333 767.4 610.9 767.4 583.333C767.4 555.767 789.833 533.333 817.4 533.333C844.967 533.333 867.4 555.767 867.4 583.333C867.4 610.9 844.967 633.333 817.4 633.333Z" fill="#970825"></path> </svg> 