<?xml version="1.0" encoding="UTF-8"?> <svg xmlns="http://www.w3.org/2000/svg" width="1001" height="661" viewBox="0 0 1001 661" fill="none"> <path d="M900.709 0.912109H100.709C45.5754 0.912109 0.70874 45.3065 0.70874 99.8594V561.614C0.70874 616.167 45.5754 660.561 100.709 660.561H900.709C955.842 660.561 1000.71 616.167 1000.71 561.614V99.8594C1000.71 45.3065 955.842 0.912109 900.709 0.912109ZM967.375 561.614C967.375 597.993 937.475 627.579 900.709 627.579H100.709C63.9421 627.579 34.0421 597.993 34.0421 561.614V99.8594C34.0421 63.4798 63.9421 33.8946 100.709 33.8946H900.709C937.475 33.8946 967.375 63.4798 967.375 99.8594V561.614Z" fill="#970825"></path> <path d="M150.708 429.684H317.375C326.575 429.684 334.041 422.296 334.041 413.193C334.041 404.09 326.575 396.702 317.375 396.702H150.708C141.508 396.702 134.041 404.09 134.041 413.193C134.041 422.296 141.508 429.684 150.708 429.684Z" fill="#970825"></path> <path d="M517.375 495.648H150.708C141.508 495.648 134.041 503.036 134.041 512.14C134.041 521.243 141.508 528.631 150.708 528.631H517.375C526.575 528.631 534.041 521.243 534.041 512.14C534.041 503.036 526.575 495.648 517.375 495.648Z" fill="#970825"></path> <path d="M150.708 330.737H217.375C226.575 330.737 234.041 323.348 234.041 314.245C234.041 305.142 226.575 297.754 217.375 297.754H150.708C141.508 297.754 134.041 305.142 134.041 314.245C134.041 323.348 141.508 330.737 150.708 330.737Z" fill="#970825"></path> <path d="M317.375 330.737H384.042C393.242 330.737 400.709 323.348 400.709 314.245C400.709 305.142 393.242 297.754 384.042 297.754H317.375C308.175 297.754 300.709 305.142 300.709 314.245C300.709 323.348 308.175 330.737 317.375 330.737Z" fill="#970825"></path> <path d="M550.71 297.754H484.043C474.843 297.754 467.376 305.142 467.376 314.245C467.376 323.348 474.843 330.737 484.043 330.737H550.71C559.91 330.737 567.376 323.348 567.376 314.245C567.376 305.142 559.91 297.754 550.71 297.754Z" fill="#970825"></path> <path d="M784.041 363.72C771.941 363.72 760.508 366.391 750.141 371.009C739.741 366.589 728.708 363.72 717.375 363.72C671.408 363.72 634.041 400.693 634.041 446.176C634.041 491.659 671.408 528.632 717.375 528.632C728.708 528.632 739.808 525.795 750.208 521.376C760.575 525.96 771.975 528.632 784.041 528.632C830.008 528.632 867.375 491.659 867.375 446.176C867.375 400.693 830.008 363.72 784.041 363.72ZM667.375 446.176C667.375 418.899 689.808 396.702 717.375 396.702C717.508 396.702 717.608 396.735 717.741 396.735C707.208 410.555 700.708 427.574 700.708 446.176C700.708 464.778 707.208 481.797 717.741 495.617C717.608 495.617 717.508 495.65 717.375 495.65C689.808 495.65 667.375 473.452 667.375 446.176ZM784.041 495.65C756.475 495.65 734.041 473.452 734.041 446.176C734.041 418.899 756.475 396.702 784.041 396.702C811.608 396.702 834.041 418.899 834.041 446.176C834.041 473.452 811.608 495.65 784.041 495.65Z" fill="#970825"></path> </svg> 