<?xml version="1.0" encoding="UTF-8"?> <svg xmlns="http://www.w3.org/2000/svg" width="125" height="125" viewBox="0 0 125 125" fill="none"> <path fill-rule="evenodd" clip-rule="evenodd" d="M120 93H94V119H120V93ZM89 88V124H125V88H89Z" fill="#970825"></path> <path fill-rule="evenodd" clip-rule="evenodd" d="M18 31C25.1797 31 31 25.1797 31 18C31 10.8203 25.1797 5 18 5C10.8203 5 5 10.8203 5 18C5 25.1797 10.8203 31 18 31ZM18 36C27.9411 36 36 27.9411 36 18C36 8.05887 27.9411 0 18 0C8.05887 0 0 8.05887 0 18C0 27.9411 8.05887 36 18 36Z" fill="#970825"></path> <path fill-rule="evenodd" clip-rule="evenodd" d="M107 31C114.18 31 120 25.1797 120 18C120 10.8203 114.18 5 107 5C99.8203 5 94 10.8203 94 18C94 25.1797 99.8203 31 107 31ZM107 36C116.941 36 125 27.9411 125 18C125 8.05887 116.941 0 107 0C97.0589 0 89 8.05887 89 18C89 27.9411 97.0589 36 107 36Z" fill="#970825"></path> <path fill-rule="evenodd" clip-rule="evenodd" d="M18 120C25.1797 120 31 114.18 31 107C31 99.8203 25.1797 94 18 94C10.8203 94 5 99.8203 5 107C5 114.18 10.8203 120 18 120ZM18 125C27.9411 125 36 116.941 36 107C36 97.0589 27.9411 89 18 89C8.05887 89 0 97.0589 0 107C0 116.941 8.05887 125 18 125Z" fill="#970825"></path> <path d="M33 15H92V20H33V15Z" fill="#970825"></path> <path d="M33 103H92V108H33V103Z" fill="#970825"></path> <path fill-rule="evenodd" clip-rule="evenodd" d="M15.5 49V34H20.5V49C20.5 54.799 25.201 59.5 31 59.5H92.5C101.06 59.5 108 66.4396 108 75V89H103V75C103 69.201 98.299 64.5 92.5 64.5H31C22.4396 64.5 15.5 57.5604 15.5 49Z" fill="#970825"></path> </svg> 