<?xml version="1.0" encoding="UTF-8"?> <svg xmlns="http://www.w3.org/2000/svg" width="967" height="1000" viewBox="0 0 967 1000" fill="none"> <path d="M954.433 126.667L487.767 0.6C487.3 0.466667 486.833 0.7 486.367 0.6C485.367 0.4 484.467 0 483.4 0C482.333 0 481.433 0.4 480.433 0.6C479.967 0.7 479.5 0.466667 479.033 0.6L12.3667 126.667C5.09998 128.6 0.0666504 135.2 0.0666504 142.733V857.267C0.0666504 864.767 5.09998 871.367 12.3667 873.333L479.033 999.4C480.467 999.8 481.933 1000 483.4 1000C484.867 1000 486.333 999.8 487.767 999.4L954.433 873.333C961.7 871.4 966.733 864.8 966.733 857.267V142.733C966.733 135.233 961.7 128.633 954.433 126.667ZM666.733 83.4667L800.033 119.467V476.433L781.267 495.2L742.633 469.467C737.033 465.767 729.733 465.767 724.133 469.467L685.5 495.2L666.733 476.433V83.4667ZM166.733 119.467L300.033 83.4667V476.4L281.267 495.167L242.633 469.433C237.033 465.733 229.733 465.733 224.133 469.433L185.5 495.167L166.733 476.4V119.467ZM33.4 155.5L133.4 128.5V483.3C133.4 487.733 135.133 491.967 138.267 495.1L171.6 528.433C177.233 534.033 186 534.967 192.633 530.533L233.4 503.367L274.167 530.533C277 532.433 280.2 533.333 283.4 533.333C287.7 533.333 291.967 531.667 295.167 528.467L328.5 495.133C331.6 492 333.367 487.767 333.367 483.333V74.4667L466.733 38.4333V961.567L33.4 844.5V155.5ZM933.4 844.5L500.067 961.567V38.4333L633.4 74.4667V483.3C633.4 487.733 635.133 491.967 638.267 495.1L671.6 528.433C677.2 534.033 686 534.967 692.633 530.533L733.4 503.367L774.167 530.533C777 532.433 780.2 533.333 783.4 533.333C787.7 533.333 791.967 531.667 795.167 528.467L828.5 495.133C831.6 492 833.367 487.767 833.367 483.333V128.467L933.4 155.5V844.5Z" fill="#970825"></path> <path d="M395.199 738.233L328.532 671.566C326.999 670.033 325.132 668.8 323.099 667.966C321.932 667.5 320.665 667.433 319.465 667.233C318.532 667.066 317.699 666.666 316.732 666.666C315.465 666.666 314.332 667.133 313.132 667.4C312.232 667.6 311.299 667.6 310.432 667.933C308.332 668.8 306.432 670.066 304.865 671.633L238.299 738.2C231.799 744.7 231.799 755.266 238.299 761.766C244.799 768.266 255.365 768.266 261.865 761.766L300.065 723.6V816.666C300.065 825.866 307.532 833.333 316.732 833.333C325.932 833.333 333.399 825.866 333.399 816.666V723.6L371.599 761.8C374.865 765.033 379.132 766.666 383.399 766.666C387.665 766.666 391.932 765.033 395.199 761.8C401.699 755.3 401.699 744.733 395.199 738.233Z" fill="#970825"></path> <path d="M695.498 767.335L578.832 800.669C569.965 803.169 564.865 812.402 567.398 821.269C569.465 828.569 576.132 833.335 583.398 833.335C584.898 833.335 586.465 833.135 587.998 832.702L704.665 799.369C713.532 796.869 718.632 787.635 716.098 778.769C713.565 769.902 704.432 764.669 695.498 767.335Z" fill="#970825"></path> </svg> 