<?xml version="1.0" encoding="UTF-8"?> <svg xmlns="http://www.w3.org/2000/svg" width="256" height="256" viewBox="0 0 256 256" fill="none"> <path d="M252.4 194.5C257.2 199.3 257.2 207.1 252.4 211.9L211.9 252.4C207.1 257.2 199.3 257.2 194.5 252.4L128 185.3L61.5 252.4C56.7 257.2 48.9 257.2 44.1 252.4L3.6 211.9C-1.2 207.1 -1.2 199.3 3.6 194.5L70.7 128L3.6 61.5C-1.2 56.7 -1.2 48.9 3.6 44.1L44.1 3.6C48.9 -1.2 56.7 -1.2 61.5 3.6L128 70.7L194.5 3.6C199.3 -1.2 207.1 -1.2 211.9 3.6L252.4 44.1C257.2 48.9 257.2 56.7 252.4 61.5L185.3 128L252.4 194.5Z" fill="#970825"></path> </svg> 